<?xml version="1.0" encoding="utf-8"?>
<!-- Generator: Adobe Illustrator 24.2.1, SVG Export Plug-In . SVG Version: 6.00 Build 0)  -->
<svg version="1.1" xmlns="http://www.w3.org/2000/svg" xmlns:xlink="http://www.w3.org/1999/xlink" x="0px" y="0px"
	 viewBox="0 0 1100 1100" style="enable-background:new 0 0 1100 1100;" xml:space="preserve">
<style type="text/css">
	.st0{display:none;}
	.st1{display:inline;fill:#4D4D4D;}
	.st2{display:inline;fill:#FFFFFF;}
</style>
<g id="Calque_5" class="st0">
	<rect x="-208" y="-64" class="st1" width="1596" height="1360"/>
</g>
<g id="Blanc_IM2" class="st0">
	<path class="st2" d="M340.92,427.35c-2.62-0.21-5.8-0.51-8.79-1.81c-5.06-2.19-10.11-4.41-15.19-6.55
		c-1.32-0.56-2.31-1.33-2.64-2.76c-0.36-1.54,0.25-2.47,1.81-2.58c0.77-0.06,1.58,0.15,2.35,0.3c6.72,1.27,13.41,2.74,20.16,3.78
		c6.43,0.99,12.78-0.16,19.02-1.68c3.8-0.92,7.53-2.09,11.31-3.11c1.28-0.34,2.6-0.6,3.91-0.78c0.69-0.1,1.45-0.08,2.11,0.12
		c1.4,0.43,2.68,1.22,3.06,2.72c0.39,1.56-1.1,2.06-2.02,2.81c-0.47,0.39-1.04,0.69-1.61,0.92c-5.26,2.18-10.52,4.35-15.78,6.5
		c-2.67,1.09-5.46,1.51-8.33,1.6C347.36,426.92,344.43,427.15,340.92,427.35z"/>
	<path class="st2" d="M8.75,617.65c0.47,0.84,0.92,1.7,1.42,2.52c1.2,1.96,2.2,4.09,3.68,5.81c2.18,2.53,4.36,2.87,7.44,1.52
		c2.68-1.18,5.29-2.54,7.93-3.82c0.78-0.38,1.57-0.75,2.5-1.2c0.31,0.68,0.61,1.21,0.78,1.78c0.7,2.31,2.15,4.01,3.99,5.52
		c2.59,2.12,4.29,2.41,7.3,0.92c10.36-5.14,20.71-10.29,31.07-15.43c3.42-1.7,6.85-3.4,10.26-5.13c2.29-1.16,4.63-1.37,6.9-0.13
		c1.79,0.97,3.53,2.06,5.14,3.3c1.69,1.3,3.24,2.78,4.76,4.28c3.3,3.26,7.25,3.9,11.6,3.05c0.95-0.18,1.88-0.5,3-0.81
		c0.25,0.54,0.43,1.11,0.74,1.6c0.93,1.5,1.74,3.13,2.91,4.43c2.4,2.67,5.35,4.69,8.63,6.16c5.1,2.29,8.76,1.31,12.18-3.15
		c0.27-0.35,0.53-0.69,0.93-1.21c0.61,0.65,1.1,1.25,1.66,1.75c2.37,2.13,4.66,4.39,7.2,6.31c2.15,1.63,4.79,2.25,7.46,2.71
		c1.08,0.18,2.3,0.61,3.08,1.33c4.85,4.46,10.29,4.33,15.94,2.15c1.71-0.66,3.29-1.78,4.74-2.92c1.12-0.88,2.13-1.28,3.59-1.18
		c5.96,0.38,11.91,0.51,17.8-0.88c5.04-1.19,9.64-3.21,13.23-7.03c1.12-1.19,2.54-1.22,3.88-1.48c10.47-2.04,20.41-5.56,29.81-10.58
		c17.16-9.17,31.06-21.87,41.41-38.4c0.47-0.75,0.96-1.49,1.45-2.22c0.04-0.06,0.16-0.07,0.24-0.1c2.11,5.76,1.01,40.63-1.63,49.39
		c-0.91-0.73-1.75-1.4-2.88-2.3c-0.28,2.42-0.27,4.52,1.34,6.11c1.01,1,0.96,1.91,0.75,3.12c-2.11,12.38-5.03,24.57-8.49,36.63
		c-3.61,12.56-7.55,25.03-11.05,37.62c-5.63,20.27-9.48,40.89-11.51,61.83c-1.33,13.74-2.03,27.52-0.85,41.32
		c0.13,1.57,0.53,3.12,0.88,5.09c-0.29,0.22-0.84,0.54-1.28,0.97c-3.48,3.36-5.36,7.53-5.81,12.28c-0.59,6.3,0.26,12.45,2.68,18.31
		c2.5,6.07,6.67,10.45,13.18,12.25c0.24,0.07,0.44,0.27,0.66,0.41c-86.84,0-173.68,0-260.67,0C8.75,779.33,8.75,698.49,8.75,617.65z
		"/>
	<path class="st2" d="M439.22,380.13c-1.19-2.67-2.32-5.36-3.6-7.99c-2.99-6.16-7.23-11.41-12.1-16.16
		c-0.93-0.91-2.08-1.68-3.27-2.21c-0.54-0.24-1.66,0.04-2.09,0.5c-0.66,0.7,0,1.47,0.58,2.05c2.63,2.65,5.27,5.29,7.89,7.95
		c5.55,5.64,8.94,12.58,11.81,19.81c0.35,0.9,0.22,1.98,0.36,3.45c-1.39-0.72-1.47-1.63-1.79-2.38c-2.62-6.2-5.89-11.99-10.84-16.66
		c-1.54-1.45-3.29-2.7-5.02-3.94c-0.68-0.49-1.56-1.05-2.41-0.2c-0.67,0.67-0.55,1.9,0.41,2.86c1.13,1.13,2.35,2.18,3.58,3.2
		c2.15,1.77,3.97,3.79,5.46,6.16c2.56,4.06,5.25,8.04,7.84,12.09c1.3,2.04,1.26,2.07,0.59,4.82c-1.17-0.34-2.33-0.68-4.04-1.18
		c0.41,0.95,0.55,1.6,0.91,2.06c0.71,0.91,1.61,1.66,2.33,2.57c2.65,3.36,3.45,7.12,2.37,11.3c-2.09,8.05-8.6,13.58-16.32,13.08
		c-2.91-0.19-4.22,0.82-5.71,2.95c-7.63,10.95-16.95,20.11-28.7,26.66c-0.7,0.39-1.26,1.03-2.19,1.82c2.92,1.54,5.34,0.65,7.64-0.02
		c2.36-0.7,4.6-1.82,7.14-2.86c-0.17,0.79-0.24,1.46-0.46,2.07c-1.07,2.99-2.77,5.61-5.13,7.7c-8.12,7.18-17.5,11.48-28.4,12.11
		c-3.48,0.2-6.91-0.19-10.38-2.31c4.8-1.5,9.8-0.82,14.37-3.61c-0.84-0.24-1.27-0.49-1.69-0.46c-13.71,1.07-25.72-3.74-36.92-10.97
		c-11.41-7.36-19.36-17.69-24.76-30.06c-5.96-13.63-8.45-27.87-7.2-42.7c1.13-13.42,5.32-25.91,11.95-37.58
		c1.84-3.25,3.93-6.35,5.9-9.53c0.58-0.94,1.25-1.5,2.47-1.73c4.59-0.86,8.38-3.13,11.59-6.62c3.73-4.06,7.81-7.79,11.61-11.78
		c2.02-2.12,4.33-2.34,6.81-1.49c1.66,0.57,3.29,1.39,4.75,2.37c3.49,2.35,7.22,2.88,11.2,1.78c2.05-0.57,4.12-1.19,6.04-2.07
		c4.76-2.19,9.36-1.65,13.88,0.58c3.34,1.64,5.92,4.21,8.23,7.08c0.77,0.96,1.63,1.92,2.64,2.6c1.58,1.06,3.33,1.43,5.33,1.09
		c5.26-0.88,10.55-1.61,15.83-2.32c4.32-0.58,7.74,1.11,9.67,4.64c2.35,4.31,2.24,8.74-0.63,11.97c-1.33,1.5-3.1,2.63-4.71,3.87
		c-0.56,0.43-1.27,0.65-1.86,1.04c-2.2,1.44-2.27,2.37-0.28,4.03c3.41,2.86,6.98,5.54,10.25,8.55
		C436.56,363.99,439.72,371.37,439.22,380.13z M381.76,428.95c0.78-0.96,1.26-1.31,1.39-1.75c1.17-4.01,2.31-8.02,3.37-12.06
		c0.36-1.38-0.1-2.66-1.23-3.59c-4.17-3.47-8.34-6.95-12.54-10.37c-0.39-0.32-1.04-0.3-1.93-0.54c0.48,1.65,0.84,2.91,1.22,4.16
		c0.75,2.51,0.45,3.29-1.87,4.47c-0.71,0.36-1.47,0.62-2.24,0.82c-4.38,1.15-8.75,2.39-13.17,3.36c-5.46,1.2-10.94,2.49-16.61,1.76
		c-2.47-0.32-4.93-0.7-7.36-1.2c-4.18-0.85-8.35-1.72-12.48-2.74c-2.61-0.64-3.09-1.5-3.03-4.21c0.01-0.66-0.07-1.32-0.12-2.25
		c-0.66,0.31-1.11,0.4-1.39,0.67c-1.65,1.62-3.32,3.23-4.85,4.96c-1.51,1.72-1.59,3.71-0.53,5.71c1.33,2.51,2.69,5.01,4.08,7.49
		c0.31,0.56,0.8,1.03,1.49,1.89c0.22-0.96,0.38-1.44,0.44-1.92c0.34-2.82,1.41-3.32,3.83-1.71c1.33,0.89,2.66,1.79,3.94,2.74
		c4.11,3.05,8.63,5.3,13.49,6.86c5.73,1.84,11.48,2.07,17.31,0.31c8.15-2.46,15.68-6.21,22.96-10.54c0.68-0.41,1.36-0.89,2.11-1.11
		c1.97-0.58,3.51,0.66,3.45,2.72c-0.03,1.24-0.22,2.48-0.23,3.72C381.25,427.17,381.49,427.73,381.76,428.95z M353.08,360.2
		c-1.86-0.53-2.46,0.89-3.16,2.1c-3.52,6.09-7.15,12.09-12.02,17.24c-1.77,1.87-3.49,3.8-5.2,5.73c-1.65,1.86-1.76,2.64-0.58,4.78
		c1.41,2.57,2.88,5.11,4.36,7.65c1.83,3.13,3.67,3.76,7.15,2.67c0.95-0.3,1.39-0.82,1.19-1.73c-0.17-0.76-0.44-1.53-0.84-2.2
		c-0.96-1.6-1.98-3.17-3.03-4.71c-1.4-2.06-1.46-4.05-0.09-6.2c2.21-3.44,4.41-6.9,6.36-10.49c2.03-3.74,3.78-7.63,5.62-11.48
		C353.34,362.52,353.76,361.42,353.08,360.2z M367.47,345.39c1.09-0.58,2.1-1.12,3.11-1.65c2.75-1.44,5.44-3.04,8.28-4.28
		c4.46-1.94,9.93-0.12,12.63,3.94c0.36,0.53,0.82,0.99,1.27,1.52c1.32-1.06,1.14-2.23,0.93-3.36c-0.48-2.6-1.79-4.81-3.42-6.84
		c-1.49-1.85-3.3-3.22-5.69-3.7c-3.11-0.63-5.77,0.54-8.29,2.14c-2.6,1.65-4.51,3.99-6.2,6.52c-1.06,1.58-1.75,1.66-3.17,0.48
		c-0.52-0.43-0.99-0.91-1.89-1.75C365.18,341.32,366.16,343.3,367.47,345.39z M384.51,369.02c-0.41-1.72-0.59-3.43-1.24-4.94
		c-1.44-3.36-4.4-3.63-6.56-0.71c-0.26,0.35-0.51,0.73-0.7,1.13c-2.03,4.11-2.51,8.32-0.53,12.56c1.36,2.92,4.11,3.19,6.14,0.69
		c0.61-0.75,1.17-1.62,1.44-2.53C383.65,373.19,384.03,371.11,384.51,369.02z M328.11,365.22c-0.47-1.78-0.71-3.66-1.47-5.31
		c-1.44-3.14-4.26-3.43-6.22-0.62c-2.88,4.13-3.4,8.75-1.62,13.44c1.33,3.5,4.24,3.79,6.5,0.83
		C327.16,371.13,327.86,368.33,328.11,365.22z M332.75,437.15c0.13,0.64,0.11,0.87,0.21,0.97c3.72,3.62,8.12,4.88,13.17,3.7
		c1.45-0.34,2.41-1.61,2.3-2.87c-0.11-1.28-1.18-2.36-2.79-2.33C341.41,436.7,337.18,436.96,332.75,437.15z M429.11,386.62
		c0.9-1.1,0.52-1.93,0.11-2.69c-1.98-3.69-4.2-7.2-7.84-9.52c-0.59-0.38-1.23-0.7-1.84-1.05c-0.75-0.43-1.5-0.26-1.81,0.45
		c-0.24,0.54-0.18,1.33,0.02,1.92c0.15,0.44,0.69,0.79,1.13,1.08c3.38,2.21,6.11,5.08,8.54,8.27
		C427.86,385.65,428.51,386.07,429.11,386.62z M331.15,345.45c1.78-0.38,2.89-1.52,3.96-2.82c-1.37-1.74-2.96-2.83-4.86-2.81
		c-2.99,0.02-5.99,0.4-8.59,2.12c-0.5,0.33-0.92,0.79-1.37,1.19C325.32,341.77,327.34,342.15,331.15,345.45z M424.25,390.64
		c-0.01-2.59-3.3-6.9-5.33-7.37c-0.41-0.09-1.14,0.16-1.33,0.49c-0.28,0.46-0.38,1.2-0.21,1.7c0.19,0.53,0.76,0.94,1.21,1.36
		c1.17,1.1,2.3,2.2,2.55,3.91c0.13,0.93,0.87,1.54,1.67,1.27C423.49,391.78,423.95,390.95,424.25,390.64z"/>
	<path class="st2" d="M297.32,589.32c0.84,0.59,1.43,0.97,1.98,1.39c12.21,9.3,26.07,14.94,41.01,17.76
		c7.23,1.37,14.65,1.69,22,2.37c2.28,0.21,4.61,0.2,6.89-0.03c2.79-0.29,4.59-2.05,4.92-4.83c0.34-2.9,0.54-5.85,0.42-8.76
		c-0.41-9.6-0.76-19.21-1.56-28.78c-0.89-10.54-1.99-21.07-3.47-31.54c-1.8-12.76-4.13-25.45-6.11-38.18
		c-0.61-3.9-2.47-6.35-6.42-7.11c-1.75-0.33-3.48-0.73-5.22-1.11c-13.61-2.97-24.2-10.4-32.02-21.83c-1.96-2.86-3.34-6.05-4.01-9.9
		c3.02-1.27,6.01-2.53,8.84-3.72c3.75,2.01,7.36,3.91,10.93,5.89c0.57,0.32,1.09,0.91,1.38,1.51c3.67,7.61,9.84,12.18,17.93,13.84
		c17.63,3.62,32.68-1.51,45.2-14.26c3.03-3.08,5.05-6.87,6.46-10.96c0.2-0.57,0.42-1.14,0.74-1.99c3.55,1.13,7.02,2.17,10.43,3.38
		c0.49,0.17,0.89,1.05,1.05,1.68c2.48,9.5,0.2,17.74-6.66,24.74c-4.41,4.5-9.62,7.88-15.11,10.88c-0.47,0.26-0.95,0.49-1.41,0.76
		c-1.64,0.95-1.74,1.18-1.3,2.98c1.36,5.52,2.8,11.03,4.08,16.58c3.56,15.43,6.67,30.95,8.81,46.63
		c1.98,14.53,3.55,29.12,5.25,43.69c0.21,1.83,0.78,3.36,2.37,5.08c0-1.48,0-2.48,0-3.66c11.31-4.36,21.37-10.63,30.78-18.56
		c0.27,0.81,0.52,1.33,0.6,1.87c1.4,8.96,2.73,17.93,4.2,26.88c0.35,2.1-0.04,3.69-1.49,5.32c-7.11,7.98-15.73,13.85-25.33,18.37
		c-12.48,5.88-25.62,9.59-39.21,11.81c-10.56,1.72-21.19,2.73-31.89,2.02c-16.87-1.12-33.11-4.62-47.89-13.27
		c-2.83-1.66-5.44-3.7-8.16-5.54c-0.88-0.6-1.29-1.31-1.15-2.46c1.6-12.55,2.23-25.16,1.87-37.81
		C297.08,590.18,297.19,589.93,297.32,589.32z"/>
	<path class="st2" d="M310.35,294.36c0.56,10.05,10.68,12.46,16.82,10.01c2.28-0.91,4.15-2.34,5.93-4c3.25-3.04,6.53-6.04,9.89-8.95
		c1.33-1.16,2.87-2.11,4.4-3.01c2.07-1.21,4.33-1.59,6.69-0.91c2.39,0.68,4.8,1.33,7.15,2.12c4.13,1.39,5.53,1.08,8.39-2.29
		c1.9-2.24,3.68-4.58,5.58-6.81c1.67-1.96,3.38-3.89,5.17-5.75c1.87-1.95,4.17-2.27,6.62-1.26c1.23,0.51,2.44,1.09,3.56,1.8
		c1.12,0.71,2.26,1.48,3.17,2.44c4.68,4.93,10.74,7.27,17.1,8.73c5.85,1.34,10.13,4.56,13.49,9.3c2.27,3.19,4.47,6.43,6.78,9.59
		c0.67,0.91,1.57,1.66,2.4,2.44c1.49,1.4,3.22,2.59,4.47,4.17c5.76,7.29,9.93,15.4,11.63,24.6c1.07,5.74,0.62,11.53-0.31,17.26
		c-1.14,7.04-3.03,13.89-5.69,20.52c-0.16,0.4-0.37,0.78-0.84,1.78c-1.19-6.04-2.9-11.35-6.47-15.67
		c-3.55-4.29-7.6-8.17-11.52-12.33c0.63-0.47,1.38-0.93,2-1.53c2.36-2.28,4.8-4.49,6.98-6.94c1.57-1.76,2.2-3.98,2.09-6.43
		c-0.45-10.17-8.84-16.52-18.85-14.1c-2.5,0.61-4.92,1.51-7.38,2.29c-1.61,0.51-3.22,1.04-4.83,1.53c-2.04,0.62-3.67,0.35-5.12-1.56
		c-2.37-3.11-4.94-6.08-7.59-8.96c-1.98-2.15-4.08-4.23-6.37-6.03c-2.44-1.93-5.15-1.97-7.99-0.45c-4.39,2.35-8.9,4.47-13.31,6.79
		c-2.54,1.34-4.87,1.38-7.24-0.34c-1.15-0.84-2.43-1.49-3.64-2.23c-4.2-2.59-8.28-2.21-12.21,0.56c-1.3,0.92-2.53,1.98-3.64,3.12
		c-3.3,3.37-6.57,6.77-9.77,10.23c-2.72,2.93-6.06,4.64-9.95,5.24c-3.06,0.47-5.86-0.32-8.06-2.59c-5.99-6.16-9.02-20.22-2.25-29.19
		C308.33,296.57,309.18,295.69,310.35,294.36z"/>
	<path class="st2" d="M214.12,599.07c0.75-2.6,1.4-4.84,2.15-7.43c0.47,0.72,0.79,1.11,1.02,1.56c3.6,7.36,4.61,15.08,3.05,23.1
		c-1.13,5.78-4.53,9.95-9.64,12.77c-4.28,2.36-8.91,3.58-13.74,3.93c-3.08,0.22-6.18,0.04-9.52,0.04c0.78-1.96,1.52-3.81,2.32-5.83
		c1.66,0.99,3.16,1.88,4.73,2.82c0.59-0.54,1.14-0.98,1.62-1.48c5.16-5.41,10.3-10.83,15.44-16.26c1.8-1.9,1.92-3,0.52-5.17
		c-0.43-0.66-0.94-1.32-1.56-1.81c-3.13-2.49-6.17-5.11-9.48-7.33c-4.06-2.72-8.34-5.11-12.58-7.56c-1.1-0.64-1.53-1.37-1.81-2.64
		c-0.48-2.12-0.87-4.11-0.22-6.28c0.23-0.76-0.19-1.72-0.32-2.64c-2.31-0.76-4.12,0.17-5.85,1.26c-2.24,1.42-3.67,3.57-4.99,5.82
		c-0.58,0.98-1.36,1.84-1.96,2.81c-0.46,0.74-0.89,1.53-1.17,2.35c-1.24,3.61-2.43,7.25-3.64,10.88c-0.2,0.59-0.37,1.19-0.61,1.76
		c-1.88,4.52-5.24,5.71-9.66,3.43c-1.55-10.61-2.23-12.02-7.28-14.57c1.05-7.83,2.53-15.43,9.15-21.03
		c8.73-7.39,18.75-10.65,30.09-10.04c4.28,0.23,8.2,1.68,11.62,4.24c6.47,4.83,10.86,11.05,11.67,19.26
		c0.27,2.69-0.18,5.48-0.58,8.19C212.6,595.25,212.71,597.03,214.12,599.07z"/>
	<path class="st2" d="M150.48,579.69c-0.72,4.66-1.39,8.95-2.08,13.42c-4.78,1.91-7.63,6.1-10.65,10.04
		c-0.85,1.11-1.34,2.77-1.38,4.2c-0.17,6.52,5.8,12.82,13.5,10.41c3.79-1.18,5.67-2.65,7.98-6.52c0.54,0.41,1.07,0.81,1.71,1.29
		c-1.12,3.52-3.45,6-6.61,7.64c-5.84,3.03-11.74,2.81-17.27-0.63c-2.61-1.62-4.78-3.94-7.1-5.99c-0.79-0.7-1.43-1.56-2.26-2.49
		c-3,1.06-5.95,2.02-8.83,3.14c-2.85,1.11-5.71,1.9-8.81,1.83c-2.81-0.06-5.24-0.94-7.25-2.87c-1.28-1.23-2.48-2.55-3.68-3.86
		c-2.24-2.45-4.99-4.04-8.24-4.56c-1.49-0.24-2.07-1.02-2.56-2.28c-2.23-5.71-4.54-11.4-6.81-17.09c-0.88-2.21-0.45-3.62,1.52-4.94
		c0.37-0.24,0.79-0.4,1.19-0.61c11.24-5.94,22.48-11.87,33.72-17.82c3.43-1.81,7.04-3.01,10.96-2.9c2.78,0.08,5.01,0.97,6.68,3.56
		c3.79,5.88,8.77,10.73,14.14,15.18C149.06,578.47,149.8,579.11,150.48,579.69z M126.14,566.74c-3.72,0.12-7.09,1.61-10.37,3.08
		c-4.29,1.92-8.38,4.3-12.52,6.54c-4.78,2.59-6.35,6.3-4.44,11.39c2.44,6.52,5.99,12.5,9.93,18.2c2.14,3.1,4.58,3.54,7.9,1.83
		c4.66-2.4,9.31-4.83,13.89-7.38c1.28-0.72,2.35-1.86,3.43-2.9c0.88-0.85,1.57-1.9,2.47-2.72c2.87-2.62,4.43-5.86,4.15-9.71
		c-0.42-5.79-2.84-10.79-6.85-14.96C131.69,568,129.18,566.74,126.14,566.74z"/>
	<path class="st2" d="M457.83,649.59c-2.49-17.48-4.95-34.76-7.43-52.18c3.64-1.52,7.26-1.52,10.82-0.81
		c7.45,1.49,13.16,5.81,18.3,11.24c3.45,3.64,3.76,7.56,1.92,11.75c-3.01,6.83-8.1,11.36-15.59,12.83
		c-2.68,0.53-2.62,0.46-2.19,2.98c0.37,2.15,1.28,3.45,3.63,3.9c1.79,0.35,3.52,1.24,5.13,2.15c1.88,1.06,2.04,2.68,0.47,4.14
		c-2.29,2.13-4.64,4.02-8.18,3.65C462.55,649.03,460.32,649.45,457.83,649.59z"/>
	<path class="st2" d="M80.9,592.4c-1.03,0.57-1.86,1.06-2.72,1.48c-19.11,9.46-38.22,18.91-57.34,28.36
		c-0.64,0.32-1.27,0.65-1.92,0.93c-1.35,0.56-2.73,0.43-3.75-0.54c-1.21-1.15-2.3-2.48-3.21-3.88c-0.77-1.17-0.42-2.16,0.75-2.98
		c0.5-0.36,1.08-0.61,1.64-0.9c18.3-9.49,36.59-18.99,54.9-28.46c2.14-1.11,4.31-2.08,6.86-1.71c1.27,0.19,2.11,0.65,2.55,1.94
		C79.31,588.56,80.12,590.41,80.9,592.4z"/>
	<path class="st2" d="M163.22,613c3.06-0.61,3.57-0.95,6.38-4.52c1.53,0.31,3.19,0.56,4.79,1.01c2.82,0.79,4.03,2.85,3.26,5.72
		c-1.4,5.26-4.45,9.51-8.76,12.72c-2.4,1.79-5.15,3.13-7.78,4.59c-2.5,1.39-5.14,1.24-7.76,0.4c-3.1-1.01-5.69-2.82-7.95-5.28
		c2.63-0.69,5.21-1.13,7.6-2.07c2.58-1.02,4.85-2.78,6.37-5.11C160.79,618.24,161.81,615.77,163.22,613z"/>
	<path class="st2" d="M162.98,637.14c8.49-4.75,15.6-10.05,17.09-20.15c2.5-0.32,4.81,0.16,6.98,1.21c1.38,0.66,1.88,2.09,1.45,3.42
		c-2,6.18-4.62,12.06-10.85,15.11C173.12,638.96,168.32,639.45,162.98,637.14z"/>
	<path class="st2" d="M156.32,604.35c-0.19,3.89-1.9,6.53-5.49,7.86c-2.78,1.03-5.68,1.62-8.6,0.59c-0.99-0.34-1.94-0.9-2.77-1.53
		c-0.85-0.64-1.05-1.54-0.54-2.61c2.38-4.94,6.07-8.53,11.12-10.63c2.38-0.99,4.19-0.17,5.19,2.23
		C155.75,601.57,155.96,602.99,156.32,604.35z"/>
	<path class="st2" d="M138.36,625.69c-2.61,2.62-5.78,3.82-9.37,2.43c-2.62-1.01-5.06-2.54-7.48-4c-0.78-0.47-1.4-1.38-1.85-2.22
		c-0.7-1.28-0.37-2.89,0.83-3.54c1.39-0.74,2.91-1.4,4.44-1.68c1.65-0.3,3.09,0.15,4.5,1.55
		C132.12,620.89,135.23,623.12,138.36,625.69z"/>
	<path class="st2" d="M313.07,332.89c-2.5,4.14-5.1,8.43-7.88,13.03c-3.27-5.26-4.45-10.4-2.5-15.99c0.98-2.81,2.51-3.23,4.8-1.45
		C309.29,329.89,311.08,331.32,313.07,332.89z"/>
	<path class="st2" d="M178.03,586.6c1.57-2.29,3.5-3.8,6.12-4.62c0.52,2.26,1.02,4.41,1.54,6.69
		C183.21,588,180.8,587.35,178.03,586.6z"/>
</g>
<g id="IM2">
	<path d="M8.75,614.44c1.14-1.33,2.35-2.62,3.39-4.03c0.29-0.39,0.2-1.19,0.07-1.74c-0.56-2.33-1.26-4.64-1.8-6.98
		c-0.61-2.68-0.35-3.11,2.13-4.35c1.83-0.91,3.68-1.8,5.47-2.79c1.52-0.84,2.98-0.9,4.58-0.23c3.28,1.37,6.63,2.59,9.9,4
		c1.44,0.62,2.61,0.51,3.99-0.22c10.47-5.51,21.01-10.9,31.46-16.44c2.05-1.09,4.09-1.61,6.36-1.48c1.46,0.08,2.68-0.19,2.92-1.96
		c0.18-1.29,1.35-1.56,2.27-2.03c7.75-3.99,15.52-7.94,23.26-11.96c4.42-2.3,8.79-4.69,13.18-7.05c4.7-2.53,9.56-3.82,14.97-2
		c0.16-0.78,0.3-1.46,0.43-2.14c1.55-7.64,9.56-11.96,16.83-9.27c2.8,1.04,4.63,4.63,2.83,7.36c-1.19,1.8-2.06,3.75-1.98,5.97
		c0.02,0.57,0.11,1.31,0.47,1.67c2.8,2.85,5.67,5.62,8.64,8.52c1.09-0.76,2.18-1.51,3.26-2.27c7.31-5.17,15.33-8.24,24.38-8.2
		c3.76,0.02,7.47,0.36,10.71,1.96c1.31-0.52,2.4-1.08,3.55-1.39c26.51-7.01,47.43-21.82,62.62-44.69
		c7.49-11.27,14.86-22.62,22.59-33.71c7.3-10.48,16.26-19.33,27.52-25.62c1.85-1.03,3.78-1.9,5.89-2.95
		c-0.45-0.5-0.74-0.9-1.11-1.23c-12.61-11.46-19.8-25.87-22.95-42.42c-2.81-14.74-1.76-29.24,3.12-43.43
		c1.21-3.53,2.71-6.96,4.21-10.38c0.67-1.53,0.62-2.7-0.23-4.21c-1.38-2.47-2.55-5.09-3.46-7.77c-2.39-7.08-1.11-13.68,3.04-19.8
		c0.2-0.29,0.4-0.59,0.59-0.89c0.04-0.07,0.04-0.17,0,0.01c-0.8-2.88-1.78-5.48-2.23-8.17c-1.01-6,0.38-11.53,4.16-16.32
		c3.26-4.13,7.53-7.02,12.27-9.23c0.83-0.39,1.79-0.49,3.32-0.88c-0.79,1.77-1.35,2.94-1.85,4.14c-0.58,1.39-1.27,2.77-1.61,4.22
		c-0.58,2.51,0.41,4.37,2.75,5.42c2.94,1.32,8.25,1.55,11.43-1.8c3.01-3.16,6.18-6.15,9.23-9.27c2.88-2.94,6.4-4.42,10.46-4.67
		c3.38-0.2,6.76-0.3,10.14-0.48c4.06-0.21,7.62-1.45,10.34-4.73c1.7-2.05,3.62-3.93,5.55-5.78c4.96-4.76,10.06-5.37,16.05-1.91
		c1.45,0.84,2.81,1.87,4.13,2.92c1.53,1.22,3.03,2.49,4.42,3.86c1.26,1.24,2.71,1.9,4.4,2.3c4.24,1.02,8.43,2.2,12.67,3.19
		c2.03,0.47,3.64,1.5,4.81,3.12c1.66,2.31,3.2,4.7,4.72,7.1c1.05,1.65,1.97,3.39,2.99,5.05c1.36,2.23,3.07,3.94,5.5,5.22
		c2.3,1.2,4.4,3.07,6.13,5.04c5.7,6.48,9.83,13.94,12.9,21.99c1.35,3.54,1.67,7.29,1.72,11.03c0.09,7.86-0.45,15.71-2.68,23.26
		c-1.99,6.72-4.49,13.31-7.04,19.85c-1.38,3.54-3.13,6.99-6.28,9.75c4.35,1.33,4.78,5.01,5.31,8.44c0.28,1.79,0.04,3.75-0.38,5.54
		c-1.35,5.74-4.53,10.41-9.05,14.12c-3,2.46-6.5,3.65-10.42,3.32c-1.12-0.1-1.98-0.02-2.75,1.03c-4.05,5.45-8.9,10.18-13.77,14.88
		c-0.37,0.36-0.72,0.76-1.33,1.41c0.91,0.34,1.58,0.65,2.29,0.86c17.86,5.5,34.83,12.99,50.62,23.02
		c16.66,10.58,31.51,23.2,43.49,39.02c7.2,9.51,12.83,19.87,16.97,31.03c0.67,1.8,0.92,3.75,1.36,5.64c0,0.71,0,1.42,0,2.14
		c-1.59,5.27-2.9,10.64-4.81,15.79c-7.04,18.99-17,36.21-31.7,50.4c-1.09,1.05-1.37,2.02-1.15,3.5c1.3,8.97-2.05,15.81-9.73,20.57
		c-0.72,0.45-1.42,0.92-1.85,1.2c1.05,2.31,2.25,4.32,2.9,6.5c1.64,5.46-0.42,9.75-5.71,11.85c-1.94,0.77-4.11,1.11-6.21,1.32
		c-1.73,0.17-3.5-0.14-5.17-0.23c2.33,23.25,4.82,46.48,6.95,69.74c2.14,23.38,2.8,46.86,3.52,70.32c0.93,0.25,1.62,0.42,2.3,0.62
		c5.36,1.61,10.77,3.07,16.06,4.88c4.89,1.67,9.47,4.1,13.7,7.1c2.13,1.51,4.01,3.26,4.99,5.78c1.11,2.85,0.69,5.02-1.64,6.95
		c-1.43,1.18-3.03,2.19-4.68,3.04c-5.03,2.59-10.43,4.17-16.03,4.77c-16.06,1.71-31.78,0.15-47.03-5.4
		c-0.9-0.33-1.81-0.63-2.81-0.98c-0.7,1.09-1.42,2.01-1.92,3.03c-0.9,1.87-2.37,2.68-4.33,2.35c-3.32-0.55-6.64-1.17-9.92-1.92
		c-3.17-0.73-5.35-2.63-6.26-5.89c-0.83-2.98-1.76-5.94-2.7-9.06c-0.42-0.07-0.93-0.18-1.44-0.23c-4.92-0.51-5.42-1.05-5.59-6.08
		c-0.01-0.27,0-0.53-0.01-0.8c-0.25-14.65-2.15-29.08-5.59-43.31c-5.26-21.74-13.69-42.26-23.81-62.13
		c-0.23-0.45-0.53-0.86-0.96-1.53c-0.62,0.95-1.13,1.64-1.54,2.39c-4.25,7.81-8.62,15.56-12.7,23.47
		c-9.31,18.03-17.77,36.44-24.48,55.63c-4.39,12.53-7.59,25.38-10.74,38.25c-0.79,3.23-2.67,5.12-5.63,6.16
		c-1.09,0.38-2.23,0.6-3.35,0.88c-1.86,0.47-3.73,0.94-5.29,1.33c0,2.28,0.3,4.25-0.05,6.11c-1.24,6.49-4.32,12.1-9.3,16.42
		c-5.76,5-12.3,8.77-19.58,11.17c-1.33,0.44-2.68,0.82-4.02,1.23c-1.96,0-3.92,0-5.88,0c-0.22-0.14-0.42-0.35-0.66-0.41
		c-6.52-1.81-10.68-6.18-13.18-12.25c-2.41-5.86-3.27-12.01-2.68-18.31c0.45-4.75,2.32-8.93,5.81-12.28
		c0.44-0.43,0.99-0.75,1.28-0.97c-0.35-1.97-0.75-3.52-0.88-5.09c-1.18-13.8-0.48-27.58,0.85-41.32
		c2.03-20.94,5.87-41.57,11.51-61.83c3.5-12.59,7.44-25.06,11.05-37.62c3.46-12.06,6.38-24.25,8.49-36.63
		c0.21-1.21,0.26-2.12-0.75-3.12c-1.61-1.59-1.62-3.69-1.34-6.11c1.13,0.9,1.97,1.57,2.88,2.3c2.64-8.76,3.74-43.63,1.63-49.39
		c-0.08,0.03-0.2,0.04-0.24,0.1c-0.49,0.74-0.98,1.47-1.45,2.22c-10.35,16.53-24.26,29.23-41.41,38.4
		c-9.4,5.02-19.34,8.54-29.81,10.58c-1.34,0.26-2.76,0.29-3.88,1.48c-3.6,3.82-8.2,5.84-13.23,7.03c-5.88,1.39-11.84,1.26-17.8,0.88
		c-1.46-0.09-2.48,0.3-3.59,1.18c-1.45,1.15-3.04,2.26-4.74,2.92c-5.65,2.18-11.09,2.31-15.94-2.15c-0.78-0.72-2-1.14-3.08-1.33
		c-2.67-0.45-5.31-1.07-7.46-2.71c-2.53-1.93-4.82-4.18-7.2-6.31c-0.56-0.51-1.05-1.1-1.66-1.75c-0.4,0.52-0.67,0.86-0.93,1.21
		c-3.42,4.46-7.08,5.44-12.18,3.15c-3.28-1.47-6.23-3.49-8.63-6.16c-1.17-1.3-1.97-2.93-2.91-4.43c-0.31-0.49-0.49-1.06-0.74-1.6
		c-1.12,0.31-2.05,0.62-3,0.81c-4.35,0.84-8.31,0.21-11.6-3.05c-1.52-1.5-3.08-2.98-4.76-4.28c-1.61-1.24-3.35-2.33-5.14-3.3
		c-2.27-1.23-4.61-1.03-6.9,0.13c-3.41,1.73-6.84,3.43-10.26,5.13c-10.35,5.15-20.71,10.29-31.07,15.43c-3,1.49-4.7,1.2-7.3-0.92
		c-1.84-1.51-3.29-3.21-3.99-5.52c-0.17-0.57-0.48-1.1-0.78-1.78c-0.93,0.44-1.71,0.82-2.5,1.2c-2.64,1.28-5.25,2.63-7.93,3.82
		c-3.08,1.35-5.25,1.02-7.44-1.52c-1.48-1.72-2.49-3.85-3.68-5.81c-0.5-0.82-0.95-1.68-1.42-2.52
		C8.75,616.58,8.75,615.51,8.75,614.44z M439.22,380.13c0.5-8.76-2.66-16.14-9.06-22.04c-3.27-3.01-6.84-5.7-10.25-8.55
		c-1.99-1.67-1.92-2.6,0.28-4.03c0.59-0.39,1.31-0.61,1.86-1.04c1.61-1.24,3.38-2.37,4.71-3.87c2.87-3.23,2.98-7.66,0.63-11.97
		c-1.93-3.53-5.35-5.22-9.67-4.64c-5.29,0.71-10.57,1.44-15.83,2.32c-1.99,0.33-3.75-0.03-5.33-1.09c-1.01-0.68-1.87-1.64-2.64-2.6
		c-2.32-2.87-4.9-5.44-8.23-7.08c-4.52-2.22-9.11-2.77-13.88-0.58c-1.93,0.89-3.99,1.5-6.04,2.07c-3.98,1.1-7.71,0.57-11.2-1.78
		c-1.46-0.98-3.09-1.8-4.75-2.37c-2.49-0.85-4.8-0.63-6.81,1.49c-3.8,4-7.88,7.73-11.61,11.78c-3.2,3.48-6.99,5.76-11.59,6.62
		c-1.22,0.23-1.89,0.79-2.47,1.73c-1.97,3.18-4.06,6.28-5.9,9.53c-6.64,11.67-10.82,24.16-11.95,37.58
		c-1.25,14.83,1.24,29.07,7.2,42.7c5.4,12.36,13.36,22.69,24.76,30.06c11.2,7.23,23.21,12.04,36.92,10.97
		c0.42-0.03,0.85,0.22,1.69,0.46c-4.57,2.79-9.56,2.11-14.37,3.61c3.47,2.13,6.9,2.51,10.38,2.31c10.9-0.64,20.28-4.94,28.4-12.11
		c2.37-2.09,4.07-4.71,5.13-7.7c0.22-0.61,0.29-1.28,0.46-2.07c-2.55,1.04-4.78,2.16-7.14,2.86c-2.29,0.68-4.71,1.57-7.64,0.02
		c0.93-0.78,1.49-1.43,2.19-1.82c11.75-6.54,21.07-15.71,28.7-26.66c1.49-2.14,2.8-3.14,5.71-2.95c7.71,0.49,14.23-5.04,16.32-13.08
		c1.09-4.18,0.28-7.93-2.37-11.3c-0.71-0.9-1.61-1.66-2.33-2.57c-0.37-0.47-0.51-1.11-0.91-2.06c1.71,0.5,2.87,0.84,4.04,1.18
		c0.67-2.76,0.71-2.79-0.59-4.82c-2.59-4.05-5.28-8.03-7.84-12.09c-1.49-2.36-3.31-4.39-5.46-6.16c-1.24-1.02-2.45-2.07-3.58-3.2
		c-0.96-0.96-1.08-2.19-0.41-2.86c0.85-0.85,1.73-0.29,2.41,0.2c1.73,1.24,3.48,2.49,5.02,3.94c4.95,4.67,8.22,10.46,10.84,16.66
		c0.32,0.75,0.4,1.66,1.79,2.38c-0.14-1.47,0-2.55-0.36-3.45c-2.87-7.23-6.26-14.17-11.81-19.81c-2.62-2.66-5.26-5.3-7.89-7.95
		c-0.59-0.59-1.24-1.35-0.58-2.05c0.43-0.45,1.54-0.74,2.09-0.5c1.19,0.53,2.34,1.3,3.27,2.21c4.87,4.75,9.12,10,12.1,16.16
		C436.9,374.77,438.03,377.47,439.22,380.13z M297.32,589.32c-0.13,0.61-0.24,0.86-0.24,1.11c0.36,12.65-0.28,25.26-1.87,37.81
		c-0.15,1.14,0.26,1.86,1.15,2.46c2.72,1.85,5.33,3.89,8.16,5.54c14.78,8.65,31.02,12.15,47.89,13.27
		c10.7,0.71,21.33-0.3,31.89-2.02c13.59-2.22,26.73-5.93,39.21-11.81c9.59-4.52,18.22-10.39,25.33-18.37
		c1.45-1.63,1.83-3.22,1.49-5.32c-1.47-8.95-2.8-17.92-4.2-26.88c-0.09-0.54-0.34-1.06-0.6-1.87c-9.41,7.92-19.48,14.2-30.78,18.56
		c0,1.18,0,2.18,0,3.66c-1.59-1.71-2.16-3.25-2.37-5.08c-1.69-14.57-3.27-29.16-5.25-43.69c-2.14-15.69-5.25-31.21-8.81-46.63
		c-1.28-5.54-2.71-11.05-4.08-16.58c-0.44-1.79-0.34-2.02,1.3-2.98c0.46-0.27,0.94-0.5,1.41-0.76c5.48-3.01,10.7-6.39,15.11-10.88
		c6.87-7,9.15-15.24,6.66-24.74c-0.16-0.63-0.56-1.51-1.05-1.68c-3.41-1.2-6.88-2.25-10.43-3.38c-0.32,0.85-0.54,1.42-0.74,1.99
		c-1.41,4.09-3.43,7.88-6.46,10.96c-12.52,12.74-27.57,17.88-45.2,14.26c-8.09-1.66-14.26-6.22-17.93-13.84
		c-0.29-0.59-0.81-1.19-1.38-1.51c-3.57-1.98-7.19-3.88-10.93-5.89c-2.82,1.19-5.81,2.45-8.84,3.72c0.67,3.85,2.05,7.03,4.01,9.9
		c7.81,11.43,18.41,18.86,32.02,21.83c1.74,0.38,3.47,0.77,5.22,1.11c3.94,0.76,5.81,3.2,6.42,7.11
		c1.98,12.74,4.31,25.42,6.11,38.18c1.47,10.47,2.58,21,3.47,31.54c0.8,9.57,1.15,19.18,1.56,28.78c0.12,2.91-0.07,5.86-0.42,8.76
		c-0.33,2.78-2.13,4.54-4.92,4.83c-2.27,0.24-4.61,0.24-6.89,0.03c-7.35-0.68-14.77-1.01-22-2.37
		c-14.94-2.82-28.81-8.46-41.01-17.76C298.75,590.28,298.17,589.91,297.32,589.32z M310.35,294.36c-1.16,1.34-2.02,2.21-2.75,3.18
		c-6.77,8.98-3.73,23.03,2.25,29.19c2.2,2.27,5,3.06,8.06,2.59c3.89-0.6,7.23-2.31,9.95-5.24c3.21-3.46,6.47-6.86,9.77-10.23
		c1.12-1.14,2.34-2.2,3.64-3.12c3.92-2.77,8.01-3.15,12.21-0.56c1.21,0.75,2.49,1.4,3.64,2.23c2.37,1.72,4.7,1.68,7.24,0.34
		c4.41-2.32,8.92-4.43,13.31-6.79c2.84-1.52,5.55-1.47,7.99,0.45c2.29,1.81,4.39,3.88,6.37,6.03c2.65,2.88,5.22,5.85,7.59,8.96
		c1.45,1.9,3.08,2.17,5.12,1.56c1.62-0.49,3.22-1.02,4.83-1.53c2.46-0.77,4.88-1.68,7.38-2.29c10-2.42,18.4,3.93,18.85,14.1
		c0.11,2.46-0.52,4.67-2.09,6.43c-2.18,2.44-4.61,4.66-6.98,6.94c-0.62,0.6-1.37,1.06-2,1.53c3.93,4.16,7.98,8.04,11.52,12.33
		c3.57,4.31,5.28,9.63,6.47,15.67c0.47-1,0.68-1.38,0.84-1.78c2.67-6.63,4.55-13.47,5.69-20.52c0.93-5.73,1.37-11.52,0.31-17.26
		c-1.71-9.2-5.87-17.31-11.63-24.6c-1.25-1.58-2.98-2.78-4.47-4.17c-0.83-0.78-1.73-1.53-2.4-2.44c-2.31-3.16-4.51-6.4-6.78-9.59
		c-3.36-4.74-7.64-7.96-13.49-9.3c-6.36-1.46-12.42-3.8-17.1-8.73c-0.91-0.96-2.04-1.73-3.17-2.44c-1.12-0.7-2.33-1.29-3.56-1.8
		c-2.45-1.01-4.75-0.69-6.62,1.26c-1.79,1.86-3.5,3.79-5.17,5.75c-1.9,2.24-3.68,4.58-5.58,6.81c-2.86,3.37-4.26,3.68-8.39,2.29
		c-2.35-0.79-4.76-1.43-7.15-2.12c-2.36-0.67-4.61-0.3-6.69,0.91c-1.53,0.89-3.06,1.85-4.4,3.01c-3.36,2.91-6.65,5.92-9.89,8.95
		c-1.77,1.66-3.65,3.09-5.93,4C321.03,306.82,310.9,304.4,310.35,294.36z M214.12,599.07c-1.41-2.04-1.52-3.82-1.22-5.84
		c0.4-2.7,0.84-5.5,0.58-8.19c-0.81-8.21-5.2-14.43-11.67-19.26c-3.42-2.56-7.34-4-11.62-4.24c-11.34-0.61-21.36,2.65-30.09,10.04
		c-6.62,5.6-8.1,13.2-9.15,21.03c5.05,2.55,5.73,3.96,7.28,14.57c4.43,2.27,7.79,1.08,9.66-3.43c0.24-0.57,0.41-1.17,0.61-1.76
		c1.21-3.63,2.39-7.26,3.64-10.88c0.28-0.82,0.71-1.61,1.17-2.35c0.61-0.97,1.38-1.83,1.96-2.81c1.32-2.24,2.75-4.4,4.99-5.82
		c1.72-1.09,3.54-2.02,5.85-1.26c0.13,0.91,0.55,1.87,0.32,2.64c-0.65,2.16-0.25,4.16,0.22,6.28c0.28,1.26,0.71,2,1.81,2.64
		c4.23,2.45,8.51,4.85,12.58,7.56c3.31,2.21,6.36,4.84,9.48,7.33c0.61,0.49,1.13,1.15,1.56,1.81c1.4,2.16,1.28,3.27-0.52,5.17
		c-5.14,5.43-10.29,10.85-15.44,16.26c-0.48,0.51-1.03,0.94-1.62,1.48c-1.57-0.94-3.07-1.83-4.73-2.82
		c-0.81,2.03-1.54,3.87-2.32,5.83c3.34,0,6.44,0.18,9.52-0.04c4.83-0.34,9.47-1.57,13.74-3.93c5.11-2.82,8.51-6.99,9.64-12.77
		c1.57-8.02,0.56-15.75-3.05-23.1c-0.22-0.45-0.55-0.85-1.02-1.56C215.52,594.23,214.87,596.47,214.12,599.07z M150.48,579.69
		c-0.69-0.59-1.42-1.23-2.17-1.85c-5.37-4.45-10.36-9.29-14.14-15.18c-1.67-2.59-3.89-3.49-6.68-3.56
		c-3.92-0.11-7.53,1.09-10.96,2.9c-11.24,5.94-22.48,11.88-33.72,17.82c-0.39,0.21-0.82,0.36-1.19,0.61
		c-1.97,1.31-2.4,2.73-1.52,4.94c2.27,5.7,4.58,11.38,6.81,17.09c0.49,1.26,1.08,2.04,2.56,2.28c3.26,0.52,6,2.11,8.24,4.56
		c1.2,1.31,2.4,2.63,3.68,3.86c2.01,1.93,4.44,2.81,7.25,2.87c3.1,0.07,5.96-0.73,8.81-1.83c2.89-1.12,5.84-2.08,8.83-3.14
		c0.84,0.93,1.48,1.79,2.26,2.49c2.32,2.06,4.5,4.38,7.1,5.99c5.54,3.44,11.43,3.66,17.27,0.63c3.17-1.64,5.49-4.12,6.61-7.64
		c-0.64-0.49-1.17-0.88-1.71-1.29c-2.31,3.87-4.19,5.34-7.98,6.52c-7.7,2.4-13.67-3.89-13.5-10.41c0.04-1.42,0.53-3.08,1.38-4.2
		c3.02-3.94,5.86-8.13,10.65-10.04C149.1,588.64,149.76,584.35,150.48,579.69z M457.83,649.59c2.49-0.14,4.72-0.56,6.89-0.33
		c3.54,0.36,5.89-1.53,8.18-3.65c1.57-1.46,1.41-3.09-0.47-4.14c-1.61-0.91-3.34-1.8-5.13-2.15c-2.34-0.45-3.26-1.75-3.63-3.9
		c-0.43-2.52-0.49-2.45,2.19-2.98c7.49-1.48,12.58-6.01,15.59-12.83c1.85-4.19,1.53-8.11-1.92-11.75
		c-5.14-5.43-10.85-9.75-18.3-11.24c-3.56-0.71-7.18-0.71-10.82,0.81C452.88,614.83,455.34,632.11,457.83,649.59z M80.9,592.4
		c-0.79-1.99-1.59-3.85-2.25-5.76c-0.44-1.29-1.28-1.75-2.55-1.94c-2.54-0.37-4.72,0.6-6.86,1.71c-18.31,9.48-36.6,18.97-54.9,28.46
		c-0.55,0.29-1.13,0.54-1.64,0.9c-1.17,0.82-1.52,1.8-0.75,2.98c0.91,1.4,2,2.73,3.21,3.88c1.02,0.97,2.4,1.1,3.75,0.54
		c0.65-0.27,1.28-0.61,1.92-0.93c19.11-9.45,38.23-18.9,57.34-28.36C79.04,593.46,79.87,592.97,80.9,592.4z M163.22,613
		c-1.41,2.77-2.43,5.25-3.86,7.45c-1.52,2.34-3.78,4.1-6.37,5.11c-2.39,0.94-4.97,1.37-7.6,2.07c2.27,2.46,4.85,4.27,7.95,5.28
		c2.62,0.85,5.26,0.99,7.76-0.4c2.63-1.47,5.38-2.81,7.78-4.59c4.32-3.21,7.36-7.46,8.76-12.72c0.77-2.87-0.44-4.93-3.26-5.72
		c-1.6-0.45-3.26-0.69-4.79-1.01C166.79,612.05,166.28,612.39,163.22,613z M162.98,637.14c5.34,2.31,10.14,1.82,14.68-0.4
		c6.23-3.06,8.85-8.94,10.85-15.11c0.43-1.33-0.07-2.76-1.45-3.42c-2.17-1.04-4.48-1.53-6.98-1.21
		C178.58,627.08,171.47,632.39,162.98,637.14z M156.32,604.35c-0.36-1.36-0.57-2.79-1.1-4.08c-1-2.4-2.8-3.22-5.19-2.23
		c-5.05,2.09-8.74,5.68-11.12,10.63c-0.51,1.07-0.31,1.97,0.54,2.61c0.84,0.63,1.79,1.18,2.77,1.53c2.93,1.02,5.82,0.44,8.6-0.59
		C154.42,610.88,156.13,608.24,156.32,604.35z M138.36,625.69c-3.13-2.56-6.24-4.79-8.93-7.45c-1.41-1.4-2.85-1.85-4.5-1.55
		c-1.54,0.28-3.05,0.94-4.44,1.68c-1.2,0.64-1.53,2.26-0.83,3.54c0.46,0.84,1.07,1.74,1.85,2.22c2.42,1.46,4.86,2.99,7.48,4
		C132.58,629.51,135.75,628.31,138.36,625.69z M313.07,332.89c-1.99-1.57-3.77-3.01-5.58-4.41c-2.3-1.78-3.82-1.36-4.8,1.45
		c-1.95,5.59-0.77,10.74,2.5,15.99C307.97,341.32,310.56,337.03,313.07,332.89z M178.03,586.6c2.77,0.75,5.18,1.4,7.67,2.07
		c-0.53-2.28-1.02-4.43-1.54-6.69C181.53,582.8,179.6,584.31,178.03,586.6z"/>
	<path d="M381.76,428.95c-0.27-1.21-0.51-1.78-0.5-2.34c0.02-1.24,0.2-2.48,0.23-3.72c0.05-2.06-1.49-3.3-3.45-2.72
		c-0.75,0.22-1.42,0.71-2.11,1.11c-7.28,4.33-14.81,8.08-22.96,10.54c-5.83,1.76-11.58,1.53-17.31-0.31
		c-4.86-1.56-9.38-3.81-13.49-6.86c-1.28-0.95-2.61-1.86-3.94-2.74c-2.42-1.61-3.49-1.11-3.83,1.71c-0.06,0.49-0.22,0.96-0.44,1.92
		c-0.69-0.86-1.18-1.33-1.49-1.89c-1.39-2.48-2.75-4.98-4.08-7.49c-1.06-2-0.98-3.99,0.53-5.71c1.53-1.73,3.2-3.33,4.85-4.96
		c0.28-0.27,0.73-0.36,1.39-0.67c0.05,0.93,0.13,1.59,0.12,2.25c-0.06,2.71,0.42,3.57,3.03,4.21c4.14,1.02,8.31,1.89,12.48,2.74
		c2.44,0.49,4.9,0.88,7.36,1.2c5.67,0.73,11.15-0.56,16.61-1.76c4.42-0.98,8.78-2.21,13.17-3.36c0.77-0.2,1.54-0.46,2.24-0.82
		c2.32-1.18,2.62-1.96,1.87-4.47c-0.37-1.25-0.73-2.51-1.22-4.16c0.89,0.24,1.54,0.22,1.93,0.54c4.21,3.43,8.37,6.9,12.54,10.37
		c1.13,0.94,1.59,2.21,1.23,3.59c-1.06,4.04-2.2,8.05-3.37,12.06C383.02,427.64,382.54,427.98,381.76,428.95z M340.92,427.35
		c3.51-0.2,6.44-0.43,9.37-0.51c2.87-0.08,5.67-0.51,8.33-1.6c5.27-2.15,10.53-4.32,15.78-6.5c0.57-0.24,1.14-0.53,1.61-0.92
		c0.92-0.75,2.41-1.26,2.02-2.81c-0.37-1.5-1.65-2.29-3.06-2.72c-0.66-0.2-1.42-0.22-2.11-0.12c-1.31,0.18-2.63,0.44-3.91,0.78
		c-3.78,1.01-7.51,2.18-11.31,3.11c-6.25,1.52-12.6,2.67-19.02,1.68c-6.76-1.04-13.44-2.51-20.16-3.78
		c-0.78-0.15-1.58-0.36-2.35-0.3c-1.56,0.11-2.16,1.04-1.81,2.58c0.33,1.43,1.32,2.2,2.64,2.76c5.08,2.15,10.13,4.36,15.19,6.55
		C335.12,426.84,338.3,427.14,340.92,427.35z"/>
	<path d="M353.08,360.2c0.69,1.22,0.27,2.32-0.23,3.36c-1.83,3.85-3.58,7.74-5.62,11.48c-1.95,3.59-4.15,7.05-6.36,10.49
		c-1.38,2.15-1.32,4.13,0.09,6.2c1.05,1.54,2.08,3.11,3.03,4.71c0.4,0.67,0.67,1.44,0.84,2.2c0.2,0.91-0.24,1.43-1.19,1.73
		c-3.48,1.1-5.33,0.46-7.15-2.67c-1.48-2.53-2.95-5.08-4.36-7.65c-1.18-2.14-1.07-2.92,0.58-4.78c1.71-1.93,3.43-3.86,5.2-5.73
		c4.87-5.15,8.5-11.15,12.02-17.24C350.62,361.09,351.22,359.67,353.08,360.2z"/>
	<path d="M367.47,345.39c-1.3-2.09-2.29-4.06-2.43-6.98c0.91,0.84,1.38,1.33,1.89,1.75c1.43,1.18,2.12,1.1,3.17-0.48
		c1.69-2.54,3.6-4.87,6.2-6.52c2.51-1.6,5.17-2.78,8.29-2.14c2.39,0.49,4.2,1.85,5.69,3.7c1.63,2.03,2.94,4.24,3.42,6.84
		c0.21,1.12,0.39,2.29-0.93,3.36c-0.45-0.53-0.92-0.99-1.27-1.52c-2.7-4.06-8.17-5.88-12.63-3.94c-2.84,1.24-5.53,2.84-8.28,4.28
		C369.57,344.27,368.56,344.81,367.47,345.39z"/>
	<path d="M384.51,369.02c-0.48,2.09-0.87,4.17-1.46,6.2c-0.26,0.91-0.83,1.78-1.44,2.53c-2.03,2.5-4.78,2.23-6.14-0.69
		c-1.98-4.24-1.5-8.45,0.53-12.56c0.2-0.4,0.44-0.77,0.7-1.13c2.17-2.91,5.12-2.65,6.56,0.71
		C383.92,365.59,384.1,367.3,384.51,369.02z"/>
	<path d="M328.11,365.22c-0.25,3.1-0.96,5.91-2.81,8.34c-2.26,2.97-5.16,2.68-6.5-0.83c-1.78-4.68-1.27-9.3,1.62-13.44
		c1.96-2.81,4.78-2.52,6.22,0.62C327.4,361.56,327.64,363.44,328.11,365.22z"/>
	<path d="M332.75,437.15c4.43-0.19,8.66-0.45,12.89-0.53c1.61-0.03,2.68,1.05,2.79,2.33c0.11,1.26-0.85,2.53-2.3,2.87
		c-5.06,1.18-9.46-0.07-13.17-3.7C332.86,438.02,332.88,437.79,332.75,437.15z"/>
	<path d="M429.11,386.62c-0.6-0.54-1.25-0.97-1.69-1.55c-2.43-3.19-5.15-6.07-8.54-8.27c-0.44-0.29-0.98-0.64-1.13-1.08
		c-0.2-0.59-0.26-1.37-0.02-1.92c0.31-0.7,1.06-0.87,1.81-0.45c0.61,0.35,1.25,0.67,1.84,1.05c3.64,2.33,5.86,5.83,7.84,9.52
		C429.63,384.68,430.02,385.52,429.11,386.62z"/>
	<path d="M331.15,345.45c-3.8-3.29-5.83-3.67-10.87-2.32c0.46-0.4,0.87-0.86,1.37-1.19c2.6-1.73,5.6-2.1,8.59-2.12
		c1.9-0.01,3.49,1.08,4.86,2.81C334.04,343.93,332.93,345.06,331.15,345.45z"/>
	<path d="M424.25,390.64c-0.3,0.3-0.77,1.14-1.44,1.37c-0.8,0.27-1.54-0.33-1.67-1.27c-0.25-1.71-1.38-2.81-2.55-3.91
		c-0.45-0.42-1.02-0.83-1.21-1.36c-0.17-0.5-0.07-1.24,0.21-1.7c0.19-0.33,0.93-0.58,1.33-0.49
		C420.96,383.74,424.25,388.05,424.25,390.64z"/>
	<path d="M126.14,566.74c3.05,0,5.56,1.26,7.6,3.38c4.02,4.17,6.43,9.17,6.85,14.96c0.28,3.85-1.28,7.09-4.15,9.71
		c-0.9,0.82-1.59,1.88-2.47,2.72c-1.08,1.03-2.14,2.18-3.43,2.9c-4.58,2.55-9.23,4.98-13.89,7.38c-3.32,1.71-5.76,1.27-7.9-1.83
		c-3.94-5.71-7.49-11.69-9.93-18.2c-1.91-5.09-0.35-8.8,4.44-11.39c4.14-2.24,8.23-4.62,12.52-6.54
		C119.05,568.35,122.42,566.87,126.14,566.74z"/>
</g>
<g id="IM1">
	<path d="M803.55,860.17c-3.5-1.21-7.13-2.16-10.47-3.72c-3.45-1.6-6.8-3.53-9.88-5.77c-7.81-5.68-11-10.92-13.46-21.16
		c-0.65-0.25-1.37-0.59-2.12-0.81c-5.18-1.47-9.19-4.58-12.37-8.82c-5.97-7.96-10.25-16.84-14.17-25.93
		c-4.52-10.48-7.62-21.44-11.18-32.25c-5.45-16.55-10.48-33.25-17.05-49.42c-0.83-2.04-1.72-4.06-3.13-6.11
		c-0.23,1.13-0.48,2.25-0.67,3.39c-2.28,13.48-3.04,27.07-2.67,40.7c0.46,17.08,1.32,34.15,1.98,51.23
		c0.13,3.37,0.28,6.76,0.15,10.13c-0.11,2.73-0.53,3.04-3.13,4.12c-0.18,1.87-0.39,3.8-0.55,5.74c-0.43,5.05-2.77,8.79-7.54,10.72
		c-2.54,1.03-5.15,1.95-7.8,2.66c-2.18,0.58-4.22,0.21-5.62-1.94c-0.62-0.95-1.5-1.73-2.34-2.66c-1.08,0.57-2.05,1-2.94,1.56
		c-9.66,6.07-20.36,9.18-31.46,11.15c-0.78,0.14-1.6,0.08-2.4,0.06c-8.45-0.22-16.9-0.5-25.35-0.65c-3-0.05-5.55-1.17-7.89-2.86
		c-2.5-1.8-3.03-3.94-1.84-6.8c1.13-2.71,3.13-4.74,5.29-6.61c4.8-4.16,10.11-7.57,15.76-10.45c3.64-1.86,7.37-3.54,11.36-5.45
		c-0.69-3.77-1.3-7.7-2.15-11.58c-3.14-14.33-6.53-28.62-9.51-42.98c-3.55-17.08-6.06-34.33-7.43-51.74
		c-1.14-14.58-1.23-29.16-0.56-43.76c0.05-1.06,0.01-2.12,0.01-3.41c-0.97,0-1.91-0.05-2.84,0.01c-3.98,0.26-7.81-0.36-11.42-2.08
		c-6.68-3.18-8.43-10.27-4.03-16.26c0.36-0.5,0.76-0.97,1.29-1.64c-0.84-0.59-1.59-1.16-2.38-1.67c-7.41-4.76-10.59-11.5-9.42-20.25
		c0.17-1.27,0.14-2.31-0.94-3.35c-14.49-13.87-24.36-30.73-31.45-49.32c-1.71-4.48-3.03-9.1-4.54-13.65
		c-1.44-4.34-0.33-8.45,1.18-12.48c8.23-22,22.14-39.84,40.16-54.63c20.69-16.98,44.07-28.96,69.39-37.33
		c0.84-0.28,1.68-0.56,2.74-0.92c-0.32-0.51-0.52-0.96-0.84-1.3c-4.68-5-9.39-9.97-14.05-14.99c-0.6-0.65-1.15-0.99-2.04-0.92
		c-6.53,0.53-11.24-2.63-15.03-7.54c-2.47-3.2-4.32-6.7-5.1-10.75c-0.74-3.87,0-7.46,1.95-10.78c0.57-0.97,1.78-1.56,2.66-2.3
		c-7.4-10.07-10.85-22.02-13.68-34.09c-2.02-8.59-2.46-17.44-0.93-26.26c0.18-1.05,0.43-2.1,0.81-3.09
		c3.03-7.96,7-15.38,12.51-21.91c2.2-2.61,4.75-4.77,7.88-6.27c1.07-0.51,2.07-1.43,2.76-2.4c1.58-2.25,2.94-4.66,4.42-6.99
		c1.58-2.47,3.14-4.95,4.82-7.36c1.16-1.65,2.78-2.63,4.82-3.09c4.33-0.99,8.62-2.17,12.94-3.21c1.51-0.36,2.81-0.96,3.93-2.08
		c1.32-1.32,2.72-2.57,4.19-3.72c1.6-1.26,3.22-2.55,5.01-3.52c5.71-3.09,10.96-2.3,15.61,2.23c1.91,1.86,3.84,3.73,5.55,5.77
		c2.67,3.18,6.16,4.4,10.11,4.64c3.37,0.21,6.75,0.35,10.13,0.48c4.01,0.15,7.42,1.68,10.26,4.47c3.18,3.12,6.27,6.31,9.45,9.43
		c2.98,2.93,7.87,3.71,11.62,1.93c2.6-1.24,3.47-3.03,2.63-5.87c-0.48-1.61-1.2-3.15-1.83-4.72c-0.35-0.89-0.73-1.77-1.13-2.73
		c4.86-0.16,14.16,6.69,17.09,12.59c2.48,4.97,4.19,11.01-0.12,21.09c0.89,1.53,1.88,3.01,2.65,4.6c2.86,5.94,2.98,12.03,0.57,18.12
		c-1.11,2.8-2.54,5.47-3.93,8.42c7.8,16.4,11.59,33.75,8.75,52.13c-2.81,18.21-10.06,34.21-24.34,46.94
		c0.99,0.34,1.68,0.62,2.4,0.83c10.7,3.18,21.59,5.27,32.76,5.71c14.79,0.59,28.58-3.01,41.41-10.25c4.25-2.4,8.25-5.25,12.27-8.02
		c2.87-1.98,5.3-4.42,7.36-7.28c2.75-3.8,6.43-6.61,10.7-9.18c-1.7-2.17-3.57-3.97-5.6-5.66c-2.08-1.72-4.61-2.15-7.24-2.47
		c0-1.4,0-2.53,0-3.88c-0.8-0.04-1.66-0.11-2.52-0.13c-7.47-0.19-14.94-0.39-22.41-0.56c-2.64-0.06-5.1-0.67-7.27-2.24
		c-2.5-1.81-3.87-4.29-4.66-7.24c-1.8-6.72-2.75-13.59-3.71-20.46c-1.13-8.11-2.34-16.2-3.42-24.31c-0.17-1.27-0.1-2.68,0.3-3.88
		c1.83-5.58,3.87-11.08,5.71-16.66c0.76-2.3,2.15-3.28,4.52-3.85c3.97-0.95,6.71,0.67,9.19,3.33c2.19,2.34,4.36,4.7,6.44,7.13
		c0.89,1.04,1.86,1.45,3.22,1.44c4.98-0.05,9.97,0.06,14.95,0c1.85-0.02,3.52,0.24,4.99,1.42c1.96,1.58,4.2,1.96,6.7,1.96
		c24.82-0.01,49.65,0.07,74.47,0.13c1.5,0,3,0,4.9,0c-0.2-1.72-0.36-3.17-0.55-4.62c-0.4-3-0.33-3.16,2.55-3.76
		c2.54-0.52,4.89-1.34,7.14-2.74c3.36-2.1,6.92-2.01,10.31,0.22c1.09,0.72,1.77,1.62,1.9,3.02c0.23,2.46,0.65,4.91,1.01,7.55
		c3.66,0.19,7.2,0.44,10.74,0.5c0.62,0.01,1.48-0.63,1.85-1.21c1.1-1.72,2.61-2.87,4.35-3.82c1.33-0.72,2.63-1.49,3.89-2.33
		c3.08-2.05,6.27-3.67,10.14-3.43c1.93,0.12,3.57-0.9,5.25-1.73c2.21-1.1,4.28-2.53,6.88-2.75c2.91-0.24,4.3,0.26,5.21,2.97
		c0.86,2.59,1.18,5.35,1.73,8.04c0.16,0.77,0.26,1.55,0.38,2.24c5.2,1.71,3.9,0.69,4.92,5.82c0.9,4.53,1.55,9.12,2.34,13.68
		c0.13,0.77,0.37,1.52,0.59,2.41c2.56,0.13,5.04,0.32,7.52,0.38c2.88,0.07,5.47,0.81,7.4,3.06c0.83,0.96,1.84,0.94,2.9,0.98
		c7.65,0.27,15.29,0.55,22.94,0.8c6.58,0.22,13.16,0.4,19.74,0.61c5.21,0.17,9.25,3.86,9.8,9.06c0.18,1.67,0.18,3.39,0.05,5.06
		c-0.28,3.59-3,5.95-6.61,5.84c-14.58-0.45-29.17-0.91-43.75-1.41c-1.67-0.06-3.05,0.04-4.22,1.54c-1.08,1.37-2.75,1.87-4.55,1.82
		c-2.12-0.05-4.24-0.01-6.72-0.01c0.44,2.81,0.85,5.4,1.26,8c0.23,1.49,0.48,2.99,0.7,4.48c0.27,1.87,0.89,3.53,1.97,5.15
		c3.22,4.83,1.82,10.32-3.26,13.22c-3.25,1.85-6.53,3.62-9.84,5.36c-4.34,2.27-8.32,1.46-11.45-2.27c-0.86-1.02-1.73-2.05-2.45-3.16
		c-0.81-1.24-1.84-1.73-3.32-1.79c-10.58-0.4-21.16-0.87-31.73-1.31c-0.6-0.02-1.2,0.05-2.06,0.1c0.46,3.32,0.65,6.52,1.36,9.6
		c1.63,7.05-0.43,12.4-6.65,16.18c-1.67,1.01-3.2,2.25-4.76,3.43c-2.57,1.94-5.39,3.08-8.66,2.88c-0.43-0.03-0.87,0.06-1.32,0.09
		c1.6,6.99,1.57,7.18-2.92,15.47c0.31,0.44,0.62,0.97,1.02,1.42c2.37,2.64,2.7,5.73,1.89,9c-1.35,5.43-4.69,9.5-9.01,12.87
		c-1.05,0.82-2.18,1.54-3.35,2.36c-0.03,0.41-0.17,0.86-0.07,1.26c0.48,1.91,0.21,3.42-1.59,4.63c-0.48,0.32-0.55,1.61-0.45,2.4
		c0.86,6.44,1.8,12.86,2.72,19.29c1.71,11.98,3.43,23.95,5.14,35.93c0.94,6.61,1.87,13.21,2.77,19.82c0.34,2.46,0.26,2.59-1.92,3.78
		c-3.75,2.05-7.52,4.05-11.27,6.09c-1.13,0.61-2.24,0.87-3.56,0.64c-7.18-1.27-14.37-2.44-21.56-3.65c-0.61-0.1-1.23-0.18-1.84-0.31
		c-2.26-0.48-2.43-0.63-2.74-2.9c-1.95-14.19-3.9-28.38-5.84-42.57c-1.11-8.11-2.2-16.22-3.31-24.33c-0.11-0.77-0.33-1.53-0.52-2.39
		c-32.89,17.68-67.09,20.64-102.66,10.11c-1.9,3.09-5.92,37.2-6.64,51.82c-0.86,17.43-0.7,34.82,1.2,52.6
		c1.24-1.06,2.21-1.88,3.47-2.94c0.28,2.58,0.22,4.73-1.58,6.36c-1.14,1.03-1.27,2.09-1.09,3.55c2.52,20.14,6.01,40.1,9.97,60
		c4.9,24.63,11.97,48.69,18.58,72.88c2.81,10.29,5.16,20.7,7.56,31.1c0.61,2.66,0.75,5.46,0.87,8.21c0.17,4.09-0.7,7.96-3.13,11.39
		c0.1,0.27,0.15,0.55,0.3,0.74c4.28,5.44,5.56,11.63,4.45,18.36c-0.98,5.96-3.06,11.51-6.55,16.47c-2.33,3.31-5.28,5.76-9.39,6.54
		c-0.23,0.04-0.43,0.27-0.64,0.41C807.11,860.17,805.33,860.17,803.55,860.17z M708.87,466.07c0.04-0.21,0.08-0.42,0.12-0.63
		c0.42-0.02,0.85-0.07,1.27-0.06c4.36,0.13,8.74,0.25,13.01-0.79c18.32-4.46,33.22-14.03,43.17-30.28
		c10.57-17.27,14.67-36.08,12.08-56.26c-2.05-15.98-8.22-30.28-17.37-43.41c-0.7-1-1.47-1.58-2.74-1.81
		c-3.2-0.57-6.11-1.99-8.61-4.04c-1.64-1.34-2.99-3.04-4.47-4.57c-3.08-3.2-6.12-6.45-9.27-9.6c-2.32-2.32-5.13-2.74-8.11-1.48
		c-1.55,0.65-3.09,1.41-4.46,2.38c-3.15,2.23-6.59,2.63-10.18,1.73c-2.4-0.6-4.77-1.44-7.04-2.43c-2.91-1.28-5.84-1.38-8.87-0.77
		c-3.77,0.76-6.99,2.61-9.73,5.25c-1.34,1.29-2.52,2.75-3.74,4.17c-2,2.34-4.36,3.37-7.55,2.81c-5.25-0.92-10.55-1.57-15.83-2.29
		c-3.31-0.45-6.32,0.39-8.35,3.1c-3.67,4.9-4.3,11.23,1.63,15.79c1.26,0.97,2.69,1.72,4.06,2.54c2.7,1.61,2.78,2.63,0.31,4.42
		c-0.29,0.21-0.59,0.4-0.87,0.62c-2.84,2.29-5.86,4.38-8.47,6.9c-5.88,5.69-9.66,12.49-9.99,20.89c-0.02,0.54,0.13,1.08,0.2,1.63
		c0.68-0.71,0.96-1.44,1.3-2.13c1.66-3.34,3.21-6.75,5.04-10c2.69-4.78,6.44-8.73,10.42-12.43c0.85-0.79,2.1-1.2,3.24-1.6
		c0.31-0.11,1.05,0.34,1.25,0.72c0.19,0.36,0.03,1.01-0.17,1.44c-0.17,0.38-0.62,0.62-0.93,0.94c-2.38,2.4-4.77,4.79-7.14,7.2
		c-5.67,5.77-9.1,12.88-12.14,20.23c-0.48,1.17-0.42,2.23,0.29,3.28c0.18-0.14,0.36-0.21,0.42-0.34c0.33-0.73,0.64-1.46,0.95-2.2
		c2.66-6.41,6.31-12.17,11.36-16.94c1.53-1.45,3.31-2.69,5.12-3.8c1.18-0.72,2.24,0.06,1.91,1.4c-0.23,0.94-0.92,1.89-1.65,2.57
		c-2.93,2.72-6.28,5.01-8.46,8.46c-2.66,4.21-5.25,8.46-7.9,12.68c-0.88,1.4-0.9,2.76-0.11,4.17c1.22-0.35,2.3-0.65,4.07-1.16
		c-0.64,1.17-0.9,1.86-1.34,2.42c-0.7,0.91-1.59,1.69-2.26,2.63c-1.98,2.78-2.98,5.84-2.39,9.3c1.69,9.77,8.71,15.21,18.74,14.48
		c0.92-0.07,1.54,0.15,2.01,0.93c0.37,0.61,0.81,1.17,1.22,1.76c7.83,11.13,17.15,20.65,29.2,27.26c0.64,0.35,1.17,0.92,1.75,1.39
		c-0.09,0.21-0.19,0.43-0.28,0.64c-5.11,1.53-9.41-1.22-14.29-3.34c0.39,1.33,0.58,2.35,0.97,3.28c1.48,3.54,3.94,6.34,6.95,8.64
		c6.91,5.3,14.65,8.73,23.32,9.83c3.81,0.48,7.65,0.4,11.32-1c0.57-0.22,1.05-0.65,1.86-1.16
		C717.81,468.26,712.95,468.66,708.87,466.07z M670.93,448.84c-3.39,1.14-6.68,2.18-9.9,3.39c-0.59,0.22-1.15,1.1-1.33,1.77
		c-1.08,4.01-1.33,8.12-0.48,12.16c1.91,9.02,7.47,15.37,15.21,19.98c2.44,1.45,5.02,2.68,7.53,4.02c2.31,1.23,2.43,1.44,2.06,3.95
		c-0.09,0.61-0.29,1.21-0.42,1.82c-3.51,15.52-7.19,31-10.48,46.57c-2.51,11.92-4.36,23.96-5.13,36.15
		c-0.36,5.67-1.04,11.33-1.63,16.99c-0.13,1.23-0.4,2.47-0.84,3.62c-0.83,2.22-2.19,2.84-4.42,2.08c-1.34-0.46-2.65-1.05-3.89-1.73
		c-7.59-4.12-15.07-8.42-21.61-14.14c-0.78-0.68-1.65-1.27-2.66-2.03c-0.27,1.06-0.52,1.81-0.64,2.58
		c-1.31,8.88-2.52,17.78-3.94,26.64c-0.34,2.1,0.22,3.5,1.58,4.98c6.33,6.92,13.79,12.32,22.08,16.59
		c19,9.8,39.41,14.04,60.56,15.29c7.56,0.45,15.11,0.11,22.63-0.87c11.35-1.48,22.35-4.21,32.75-9.09
		c4.93-2.31,9.55-5.14,13.85-8.49c1.1-0.86,1.62-1.76,1.39-3.17c-0.24-1.4-0.4-2.82-0.45-4.24c-0.38-10.49-0.73-20.98-1.09-31.48
		c-0.03-0.85-0.08-1.71-0.13-2.91c-0.91,0.63-1.55,1.05-2.17,1.5c-13.11,9.75-27.85,15.68-43.88,18.32
		c-6.48,1.07-13.06,1.54-19.6,2.1c-2.09,0.18-4.27-0.03-6.33-0.43c-2.76-0.54-4.54-2.4-5.18-5.16c-0.4-1.72-0.8-3.51-0.79-5.26
		c0.04-4.79,0.08-9.6,0.5-14.37c1.38-15.77,2.8-31.53,4.45-47.27c0.97-9.19,2.27-18.35,3.71-27.48c0.72-4.55,2.08-9,3.15-13.5
		c0.7-2.96,2.48-4.75,5.47-5.53c3.35-0.88,6.62-2.06,9.96-3c8.98-2.53,16.43-7.55,22.92-14.09c4.13-4.17,7.26-8.99,8.83-14.71
		c0.2-0.74,0.28-1.52,0.44-2.41c-2.65-0.85-5.11-1.58-7.53-2.43c-1.2-0.42-2.14-0.25-3.24,0.4c-2.76,1.62-5.57,3.15-8.45,4.55
		c-1.2,0.58-1.98,1.32-2.56,2.51c-2.46,5.08-6.38,8.69-11.39,11.2c-5.3,2.66-11,3.59-16.82,3.43c-12-0.33-22.55-4.61-31.59-12.5
		c-4.58-4-7.98-8.82-9.83-14.67C671.44,449.96,671.2,449.49,670.93,448.84z M635.35,375.69c0.16-0.02,0.33-0.05,0.49-0.07
		c0.17-0.57,0.36-1.14,0.5-1.72c1.64-7.1,4.83-13.34,10.15-18.41c2-1.9,4.02-3.78,6.01-5.69c0.48-0.46,0.89-0.99,1.39-1.56
		c-0.9-0.64-1.69-1.08-2.32-1.69c-2.35-2.29-4.74-4.54-6.91-6.99c-1.37-1.54-2.09-3.49-2.02-5.65c0.1-3.09,0.87-5.97,2.49-8.61
		c3.14-5.11,9.44-7.62,15.27-6.1c1.46,0.38,2.91,0.79,4.37,1.21c2.82,0.8,5.65,1.57,8.45,2.44c2.55,0.8,4.59,0.48,6.28-1.86
		c1.93-2.66,4.03-5.22,6.24-7.65c2.14-2.36,4.4-4.65,6.83-6.7c2.55-2.16,5.4-2.25,8.42-0.59c4.36,2.4,8.85,4.55,13.25,6.89
		c2.34,1.25,4.5,1.28,6.73-0.29c1.45-1.02,3.05-1.83,4.59-2.71c3.35-1.91,6.78-2.13,10.09-0.04c1.94,1.23,3.85,2.59,5.48,4.19
		c3.36,3.31,6.55,6.78,9.75,10.25c2.25,2.43,4.99,3.97,8.15,4.79c4.44,1.16,8.06-0.1,10.8-3.8c3.41-4.61,4.84-9.83,4.86-15.51
		c0.02-4.79-1.38-9.11-4.34-12.89c-0.61-0.78-1.17-1.71-2.02-1.86c-0.57,1.85-0.79,3.69-1.66,5.16c-1.35,2.28-3.61,3.68-6.15,4.42
		c-5.18,1.51-9.86,0.53-13.88-3.12c-2.77-2.51-5.4-5.17-8.22-7.62c-2.07-1.8-4.27-3.49-6.54-5.04c-2.47-1.69-5.24-2.12-8.15-1.23
		c-2.38,0.73-4.76,1.43-7.13,2.19c-3.64,1.17-5.08,0.8-7.46-2.1c-1.7-2.06-3.3-4.2-5.04-6.22c-1.97-2.29-4.02-4.51-6.09-6.71
		c-1.97-2.09-4.39-2.38-6.82-1.08c-2.33,1.25-4.78,2.53-6.65,4.34c-4.66,4.51-10.3,7.03-16.43,8.34
		c-5.97,1.27-10.34,4.49-13.79,9.27c-1.82,2.52-3.6,5.08-5.37,7.64c-1.42,2.05-2.84,4.04-5.05,5.4c-1.11,0.68-2.05,1.73-2.88,2.76
		c-5.31,6.59-9.23,13.94-11.39,22.12c-0.74,2.8-0.95,5.78-1.1,8.69c-0.4,8.19,1.26,16.1,3.61,23.88
		C633.1,369.37,634.27,372.51,635.35,375.69z M628.07,597.29c-3.4-1.17-7.89-1.42-11.31-0.63c-7.7,1.78-13.54,6.34-18.61,12.21
		c-2.3,2.66-2.65,5.46-1.86,8.66c1.8,7.34,9.2,14.03,16.69,15.06c0.6,0.08,1.19,0.18,2.09,0.32c-0.11,1.05-0.17,1.99-0.31,2.91
		c-0.29,1.92-1.04,3.23-3.31,3.47c-1.54,0.16-3.09,0.84-4.49,1.57c-2.03,1.06-2.56,2.83-1.25,4.69c0.88,1.24,2.2,2.35,3.56,3.04
		c4.29,2.16,8.94,1.57,13.47,1.58C624.52,632.41,626.29,614.94,628.07,597.29z M872.84,440.45c0.8,0.75,1.3,1.22,1.81,1.68
		c1.83,1.68,3.6,3.45,5.53,5c2.23,1.8,4.76,3.16,7.66,3.52c4.43,0.55,8.71-1.33,8.6-7.16c-0.04-2.44-0.46-4.78-1.54-6.97
		c-5.28-10.7-19.2-16.83-30.94-7.45c-4.51,3.6-8,8.06-10.96,12.95c-1.09,1.8-1.54,3.86-1.17,5.91c1.81,9.89,6.55,17.76,15.82,22.38
		c0.59,0.29,1.25,0.43,1.65,0.56c1.18-7.62,2.35-15.07,3.47-22.52c0.1-0.66,0.12-1.53-0.23-2.01
		C871.12,444.41,871.91,442.69,872.84,440.45z M944.61,579.44c-1.9-13.41-3.83-26.76-5.68-40.12c-1.85-13.3-4.04-26.56-5.53-39.96
		c-4.43,2.77-9.01,5.62-13.49,8.42c4.02,26.21,8.01,52.15,12.05,78.48C936.35,583.89,940.38,581.72,944.61,579.44z M939.76,454.49
		c-0.02,0.07-0.03,0.14-0.05,0.21c-0.97,0.06-1.96,0.05-2.92,0.18c-8.73,1.16-16.2,5.01-22.75,10.77c-0.85,0.75-1.6,1.68-2.21,2.65
		c-1.78,2.84-1.37,5.15,1.2,7.26c2.79,2.3,6.12,2.87,9.54,2.44c6.97-0.88,13.44-3.3,19.23-7.28c1.72-1.18,3.21-2.8,4.54-4.43
		c1.44-1.75,1.97-3.9,1.94-6.23c-0.02-2.27-1.07-3.8-3.1-4.46C943.45,455.03,941.58,454.84,939.76,454.49z M917.98,442.51
		c0.97-0.06,1.96-0.02,2.92-0.19c6.54-1.15,12.68-3.41,18.15-7.21c1.58-1.1,2.96-2.55,4.2-4.03c1.46-1.73,2.16-3.86,2.17-6.16
		c0.01-2.48-1.01-4.02-3.35-4.86c-0.9-0.33-1.89-0.53-2.85-0.59c-11.29-0.75-20.51,3.89-28.63,11.22c-1.01,0.92-1.75,2.23-2.35,3.49
		c-0.9,1.87-0.48,3.6,1.02,5.1C911.68,441.68,914.62,442.62,917.98,442.51z M893.71,507.29c-0.23-1.48-0.39-2.51-0.57-3.61
		c-6.36-1.35-12.61-2.69-18.86-4.01c-2.38-0.5-2.51-0.53-2.85-2.81c-0.51-3.43-0.96-6.86-1.27-10.31c-0.3-3.27-0.39-6.55-0.56-9.63
		c-8.51-3.12-13.73-9.44-17.66-17.17c1.66,11.97,4.9,23.36,10.41,34.04c2.21,4.28,4.87,8.27,8.36,11.66
		c4.68,4.54,10.1,6.61,16.54,4.68C889.42,509.47,891.44,508.3,893.71,507.29z M920.46,495.96c8.48-0.81,16.26-3.52,22.9-8.99
		c1.4-1.15,2.42-2.81,3.41-4.37c1.04-1.63,1.12-3.54,0.91-5.43c-0.19-1.65-1.26-2.66-2.66-3.43c-1.43-0.79-2.13,0.38-2.99,1.04
		c-4.86,3.75-10.31,6.25-16.22,7.77c-3.31,0.85-6.64,1.06-10.01,0.23c-0.58-0.14-1.5,0-1.89,0.39c-1.12,1.12-2.21,2.33-3,3.7
		c-1.28,2.22-0.87,4.23,0.97,6.02C914.27,495.2,917.17,496.05,920.46,495.96z M935.15,441.9c0.04,0.18,0.08,0.35,0.12,0.53
		c4.34,0.76,8.65,1.7,13.01,2.22c6.93,0.83,12.01-4.63,11-11.58c-0.32-2.2-0.56-4.42-0.95-6.6c-0.52-2.87-0.76-5.82-2.2-8.52
		c-2.95,0-5.84,0-8.95,0c1.62,3.41,1.75,6.72,0.49,10.02c-1.76,4.6-4.64,8.38-8.63,11.28C937.77,440.17,936.45,441.02,935.15,441.9z
		 M765.4,332.91c2.56,4.2,5.2,8.55,8.03,13.19c1.64-3.07,2.8-5.84,3.16-8.85c0.3-2.48,0.09-4.98-0.9-7.32
		c-1.12-2.65-2.43-3.01-4.69-1.32C769.17,329.99,767.37,331.39,765.4,332.91z M1017.04,423.65c0.4-0.12,0.58-0.15,0.74-0.23
		c3.73-1.86,7.49-3.66,11.17-5.61c1.32-0.7,1.31-2.02,0.27-3.1c-0.86-0.9-1.72-0.65-2.65-0.17c-3.14,1.64-6.3,3.25-9.44,4.92
		c-0.53,0.28-1.16,0.69-1.35,1.2c-0.23,0.59-0.22,1.41,0.02,2C1015.99,423.12,1016.68,423.38,1017.04,423.65z M964.24,338.55
		c-1.88-3-5.93-4.08-8.67-0.98C960.19,339.46,962.28,339.69,964.24,338.55z M920.11,504.89c2.49-1.58,4.68-2.96,6.86-4.35
		c-0.07-0.12-0.14-0.23-0.22-0.35c-2.39,0.41-4.78,0.82-7.29,1.25C919.66,502.51,919.84,503.45,920.11,504.89z M830.43,344.78
		c0.59-1.51,0.69-2.55-0.89-3.49C829.08,342.71,828.86,343.75,830.43,344.78z M819.77,349.16c0.79-1.35,0.73-2.3-0.56-3.25
		C818.28,347.25,818.42,348.19,819.77,349.16z M823.74,334.41c-0.31,0.07-0.62,0.15-0.93,0.22c-0.03,0.95-0.63,2.08,1.55,2.79
		C824.1,336.16,823.92,335.28,823.74,334.41z"/>
	<path d="M709.21,396.56c-0.29,1.68-0.49,2.94-0.72,4.2c-0.5,2.67,0.31,4.16,2.92,4.7c8.09,1.65,16.19,3.29,24.5,3.4
		c3.03,0.04,6.02-0.18,8.96-1.05c5.1-1.52,10.23-2.94,15.34-4.41c0.6-0.17,1.19-0.38,1.74-0.66c1.76-0.9,2.15-1.68,1.91-3.65
		c-0.1-0.77-0.22-1.54-0.39-2.7c0.85,0.39,1.45,0.52,1.86,0.87c1.7,1.43,3.35,2.92,5.01,4.39c1.27,1.12,1.75,2.63,1.16,4.11
		c-1.35,3.37-2.94,6.65-4.45,9.95c-0.05,0.11-0.31,0.14-0.78,0.32c-0.23-0.83-0.41-1.64-0.67-2.43c-0.43-1.32-1.24-1.68-2.44-1.01
		c-0.69,0.38-1.3,0.93-1.92,1.43c-3.79,3.09-7.56,6.2-11.98,8.39c-4.82,2.39-9.77,4.34-15.29,3.94c-5.08-0.37-10.01-1.59-14.74-3.43
		c-4.46-1.74-8.85-3.69-13.21-5.66c-2.89-1.3-2.84-1.4-5.36,0.83c-0.27,2.08,1.01,4.23,0.23,6.42c-1.38-0.09-1.67-0.97-1.97-1.78
		c-1.18-3.16-2.31-6.34-3.48-9.51c-0.68-1.83-0.51-3.52,0.9-4.92c3.66-3.63,7.35-7.23,11.05-10.82
		C707.75,397.14,708.3,397.01,709.21,396.56z M731.2,421.18c6.9-0.34,12.26-0.65,17.15-3.02c5.03-2.44,9.93-5.14,14.85-7.8
		c0.73-0.4,1.42-1.09,1.84-1.81c0.53-0.91,0.9-2.02,0.05-2.99c-0.79-0.9-1.79-0.53-2.72-0.23c-2.2,0.7-4.38,1.46-6.58,2.14
		c-8.77,2.73-17.65,5-26.94,3.86c-5.71-0.71-11.37-1.89-17.06-2.78c-1.65-0.26-3.36-0.39-5.02-0.28c-1.68,0.11-3.54,1.93-3.49,3.2
		c0.07,1.72,1.38,2.32,2.79,2.78c5.57,1.81,11.09,3.79,16.71,5.39C726.01,420.55,729.39,420.86,731.2,421.18z"/>
	<path d="M697.23,363.52c-0.92-1.27-2-2.77-3.1-4.25c-0.76-1.03-1.85-1.4-3.06-1.25c-1.98,0.25-3.94,0.62-6.34,1.01
		c2.17-2.63,4.37-4.69,7.33-5.53c1.14-0.32,2.74-0.06,3.79,0.53c2.22,1.26,4.23,2.9,6.32,4.4c0.5,0.36,0.96,0.79,1.45,1.18
		c2.95,2.39,3.14,2.41,6.58,0.57c0.13-0.07,0.34-0.01,0.7-0.01c0.71,1.37,0.16,2.59-0.94,3.37c-1.58,1.12-3.33,2-5.05,2.88
		c-0.77,0.39-1.67,0.54-2.8,0.89c0.55,1.2,1.06,2.29,1.55,3.38c1.17,2.62,1.37,5.31,0.53,8.05c-0.92,3.02-3.29,3.73-5.73,1.76
		c-3.46-2.79-5.34-9.48-3.67-13.63C695.26,365.72,696.28,364.8,697.23,363.52z"/>
	<path d="M737.75,394.51c-3.87-0.07-4.38-0.97-2.54-4.5c0.86-1.66,1.74-3.31,2.61-4.96c0.97-1.84,0.84-3.54-0.45-5.22
		c-2.12-2.75-4.3-5.46-6.2-8.36c-2.49-3.78-4.77-7.7-7.06-11.61c-0.48-0.82-0.78-1.81-0.9-2.76c-0.14-1.11,0.82-1.63,1.75-1
		c0.5,0.34,0.91,0.84,1.29,1.33c0.6,0.77,1.18,1.56,1.71,2.39c4.17,6.5,9.5,11.96,15.17,17.14c0.79,0.72,1.57,1.44,2.33,2.2
		c1.13,1.13,1.38,2.49,0.73,3.93c-1.39,3.08-2.79,6.16-4.29,9.19C740.98,394.1,739.97,394.55,737.75,394.51z"/>
	<path d="M747.85,356.1c-2.47-0.14-5.3,1.17-6.98-2.17c0.68-0.07,1.08-0.18,1.48-0.15c1.67,0.14,2.66-0.71,3.3-2.16
		c0.72-1.63,1.44-3.26,2.21-4.86c0.5-1.04,1.06-2.05,1.67-3.03c0.81-1.31,1.9-2.02,3.56-1.78c1.83,0.26,3.68,0.35,5.64,0.94
		c-0.37,0.23-0.71,0.54-1.1,0.69c-0.83,0.3-1.72,0.45-2.54,0.79c-1.31,0.55-2.16,1.49-2.26,3.02c-0.08,1.14-0.3,2.28-0.46,3.47
		c4.59,3.11,6.29,7.54,5.96,12.88c-0.17,2.67-1.15,4.33-2.82,4.67c-2.19,0.44-3.5-0.99-4.62-2.51c-1.74-2.34-2.46-5.1-2.83-7.95
		C747.96,357.36,747.91,356.76,747.85,356.1z"/>
	<path d="M749.52,429.79c-3.63,3.67-7.24,5.96-12.12,5.25c-0.52-0.08-1.07-0.15-1.55-0.36c-1.19-0.52-1.73-1.57-1.71-2.78
		c0.02-1.25,1-1.81,2.1-2.09c0.42-0.11,0.88-0.14,1.32-0.15c3.11-0.08,6.22-0.16,9.33-0.19
		C747.62,429.45,748.35,429.63,749.52,429.79z"/>
	<path d="M648.78,386.22c0.11-0.58,0.13-1.21,0.36-1.74c1.98-4.46,4.74-8.28,9.09-10.74c0.86-0.49,1.78-1.06,2.55,0.06
		c0.77,1.12,0.2,2-0.69,2.75c-0.2,0.17-0.41,0.34-0.63,0.48c-3.48,2.09-6.1,5.07-8.53,8.25c-0.43,0.56-1.05,0.97-1.58,1.45
		C649.16,386.56,648.97,386.39,648.78,386.22z"/>
	<path d="M654.1,390.18c0.47-1.16,0.67-2.28,1.3-3.06c1.05-1.3,2.34-2.41,3.59-3.53c0.6-0.54,1.32-0.54,1.89,0.12
		c0.57,0.66,0.89,1.46,0.15,2.14c-1.66,1.53-2.93,3.29-3.86,5.37c-0.2,0.45-1.31,0.93-1.71,0.75
		C654.89,391.7,654.58,390.84,654.1,390.18z"/>
	<path d="M931.72,515.27c-0.19,1.61-1.03,2.64-2.31,3.16c-0.6,0.25-1.6,0.18-2.14-0.17c-2.13-1.37-2.55-4.84-0.95-6.8
		c1.13-1.39,2.85-1.49,3.77-0.03C930.82,512.6,931.19,513.99,931.72,515.27z"/>
	<path d="M938.45,564.1c-0.15,0.89-0.27,1.41-0.33,1.94c-0.13,1.15-0.62,2.04-1.79,2.37c-1.33,0.38-2.23-0.36-2.91-1.35
		c-1.07-1.55-1.36-3.26-0.56-5.03c0.87-1.94,3.23-2.25,4.48-0.51C937.93,562.35,938.17,563.43,938.45,564.1z"/>
	<path d="M927.78,530.88c0.06-0.44-0.04-1.02,0.2-1.29c0.73-0.82,1.48-1.9,2.42-2.17c0.92-0.26,1.9,0.5,2.54,1.54
		c0.95,1.53,0.83,3.04,0.35,4.59c-0.63,2.02-2.75,2.57-4.12,0.94c-0.8-0.95-1.15-2.28-1.7-3.44
		C927.57,530.99,927.67,530.93,927.78,530.88z"/>
	<path d="M936.1,547.79c-0.01,2.19-0.79,3.43-2.22,3.93c-0.45,0.16-1.09,0.19-1.5-0.01c-2.68-1.31-2.95-6.13-0.92-7.24
		c1.27-0.69,2.71-0.72,3.46,0.52C935.55,546,935.87,547.22,936.1,547.79z"/>
</g>
<g id="Blanc_IM1" class="st0">
	<path class="st2" d="M731.2,421.18c-1.81-0.32-5.19-0.62-8.4-1.54c-5.63-1.6-11.15-3.58-16.71-5.39c-1.41-0.46-2.72-1.05-2.79-2.78
		c-0.05-1.27,1.8-3.09,3.49-3.2c1.66-0.11,3.37,0.03,5.02,0.28c5.69,0.89,11.35,2.07,17.06,2.78c9.29,1.15,18.16-1.13,26.94-3.86
		c2.2-0.68,4.38-1.44,6.58-2.14c0.93-0.3,1.93-0.67,2.72,0.23c0.85,0.96,0.49,2.08-0.05,2.99c-0.42,0.72-1.11,1.41-1.84,1.81
		c-4.92,2.66-9.82,5.36-14.85,7.8C743.46,420.52,738.1,420.84,731.2,421.18z"/>
	<path class="st2" d="M708.87,466.07c4.08,2.59,8.94,2.18,13.89,3.33c-0.81,0.51-1.3,0.94-1.86,1.16c-3.67,1.4-7.51,1.48-11.32,1
		c-8.66-1.1-16.41-4.53-23.32-9.83c-3-2.31-5.47-5.1-6.95-8.64c-0.39-0.93-0.59-1.95-0.97-3.28c4.88,2.12,9.18,4.87,14.29,3.34
		c0.09-0.21,0.19-0.43,0.28-0.64c-0.58-0.47-1.1-1.04-1.75-1.39c-12.05-6.61-21.37-16.13-29.2-27.26c-0.41-0.58-0.84-1.15-1.22-1.76
		c-0.48-0.77-1.1-0.99-2.01-0.93c-10.04,0.73-17.06-4.72-18.74-14.48c-0.6-3.46,0.41-6.52,2.39-9.3c0.67-0.94,1.56-1.71,2.26-2.63
		c0.43-0.56,0.7-1.25,1.34-2.42c-1.77,0.5-2.85,0.81-4.07,1.16c-0.79-1.41-0.77-2.76,0.11-4.17c2.65-4.22,5.24-8.47,7.9-12.68
		c2.18-3.45,5.54-5.74,8.46-8.46c0.73-0.68,1.42-1.63,1.65-2.57c0.33-1.34-0.73-2.13-1.91-1.4c-1.81,1.11-3.58,2.35-5.12,3.8
		c-5.05,4.78-8.7,10.54-11.36,16.94c-0.31,0.74-0.62,1.48-0.95,2.2c-0.06,0.13-0.24,0.2-0.42,0.34c-0.71-1.05-0.78-2.11-0.29-3.28
		c3.04-7.35,6.47-14.47,12.14-20.23c2.37-2.41,4.76-4.8,7.14-7.2c0.31-0.32,0.76-0.56,0.93-0.94c0.2-0.43,0.36-1.08,0.17-1.44
		c-0.19-0.38-0.93-0.83-1.25-0.72c-1.13,0.4-2.38,0.81-3.24,1.6c-3.98,3.7-7.73,7.65-10.42,12.43c-1.83,3.25-3.38,6.65-5.04,10
		c-0.34,0.69-0.62,1.42-1.3,2.13c-0.07-0.54-0.22-1.09-0.2-1.63c0.32-8.4,4.11-15.2,9.99-20.89c2.61-2.52,5.63-4.62,8.47-6.9
		c0.28-0.22,0.58-0.41,0.87-0.62c2.46-1.79,2.38-2.81-0.31-4.42c-1.37-0.82-2.8-1.57-4.06-2.54c-5.92-4.56-5.3-10.88-1.63-15.79
		c2.03-2.71,5.03-3.55,8.35-3.1c5.28,0.72,10.58,1.37,15.83,2.29c3.19,0.56,5.54-0.47,7.55-2.81c1.21-1.42,2.4-2.87,3.74-4.17
		c2.74-2.65,5.95-4.49,9.73-5.25c3.03-0.61,5.96-0.51,8.87,0.77c2.27,1,4.64,1.83,7.04,2.43c3.59,0.9,7.03,0.5,10.18-1.73
		c1.36-0.97,2.91-1.72,4.46-2.38c2.98-1.26,5.79-0.84,8.11,1.48c3.14,3.15,6.18,6.4,9.27,9.6c1.48,1.54,2.83,3.23,4.47,4.57
		c2.5,2.05,5.41,3.47,8.61,4.04c1.28,0.23,2.04,0.81,2.74,1.81c9.15,13.13,15.32,27.43,17.37,43.41c2.59,20.18-1.51,39-12.08,56.26
		c-9.95,16.25-24.85,25.82-43.17,30.28c-4.27,1.04-8.65,0.92-13.01,0.79c-0.42-0.01-0.85,0.04-1.27,0.06
		C708.95,465.66,708.91,465.87,708.87,466.07z M709.21,396.56c-0.91,0.45-1.46,0.58-1.81,0.91c-3.71,3.59-7.4,7.19-11.05,10.82
		c-1.41,1.4-1.58,3.09-0.9,4.92c1.17,3.17,2.3,6.35,3.48,9.51c0.3,0.81,0.59,1.69,1.97,1.78c0.78-2.19-0.5-4.34-0.23-6.42
		c2.51-2.23,2.47-2.14,5.36-0.83c4.37,1.97,8.75,3.93,13.21,5.66c4.73,1.84,9.66,3.06,14.74,3.43c5.51,0.4,10.46-1.55,15.29-3.94
		c4.42-2.19,8.19-5.3,11.98-8.39c0.62-0.5,1.23-1.05,1.92-1.43c1.2-0.67,2.01-0.31,2.44,1.01c0.26,0.79,0.44,1.6,0.67,2.43
		c0.47-0.19,0.73-0.21,0.78-0.32c1.51-3.3,3.1-6.58,4.45-9.95c0.59-1.48,0.11-2.99-1.16-4.11c-1.67-1.47-3.31-2.96-5.01-4.39
		c-0.41-0.35-1.01-0.48-1.86-0.87c0.17,1.16,0.3,1.93,0.39,2.7c0.24,1.97-0.15,2.75-1.91,3.65c-0.55,0.28-1.15,0.49-1.74,0.66
		c-5.11,1.48-10.24,2.9-15.34,4.41c-2.94,0.87-5.93,1.09-8.96,1.05c-8.31-0.11-16.41-1.75-24.5-3.4c-2.61-0.53-3.42-2.03-2.92-4.7
		C708.73,399.5,708.93,398.24,709.21,396.56z M697.23,363.52c-0.95,1.28-1.98,2.2-2.44,3.35c-1.67,4.15,0.21,10.84,3.67,13.63
		c2.44,1.97,4.81,1.26,5.73-1.76c0.83-2.74,0.64-5.44-0.53-8.05c-0.49-1.09-1-2.18-1.55-3.38c1.13-0.35,2.03-0.5,2.8-0.89
		c1.73-0.88,3.48-1.76,5.05-2.88c1.1-0.78,1.66-2,0.94-3.37c-0.36,0-0.57-0.06-0.7,0.01c-3.44,1.83-3.64,1.82-6.58-0.57
		c-0.48-0.39-0.94-0.82-1.45-1.18c-2.09-1.5-4.09-3.14-6.32-4.4c-1.05-0.59-2.65-0.86-3.79-0.53c-2.96,0.84-5.16,2.9-7.33,5.53
		c2.4-0.39,4.36-0.75,6.34-1.01c1.2-0.15,2.3,0.22,3.06,1.25C695.23,360.76,696.31,362.25,697.23,363.52z M737.75,394.51
		c2.22,0.04,3.23-0.41,4.14-2.25c1.5-3.03,2.89-6.11,4.29-9.19c0.65-1.44,0.4-2.79-0.73-3.93c-0.75-0.76-1.54-1.48-2.33-2.2
		c-5.66-5.17-10.99-10.64-15.17-17.14c-0.53-0.82-1.11-1.62-1.71-2.39c-0.38-0.48-0.79-0.99-1.29-1.33c-0.93-0.63-1.89-0.11-1.75,1
		c0.12,0.95,0.41,1.94,0.9,2.76c2.29,3.91,4.57,7.83,7.06,11.61c1.9,2.89,4.09,5.61,6.2,8.36c1.29,1.68,1.42,3.39,0.45,5.22
		c-0.87,1.65-1.75,3.3-2.61,4.96C733.37,393.54,733.88,394.44,737.75,394.51z M747.85,356.1c0.07,0.66,0.11,1.26,0.19,1.86
		c0.37,2.85,1.1,5.6,2.83,7.95c1.12,1.52,2.44,2.95,4.62,2.51c1.67-0.34,2.65-2,2.82-4.67c0.34-5.34-1.36-9.77-5.96-12.88
		c0.16-1.19,0.38-2.33,0.46-3.47c0.11-1.53,0.95-2.47,2.26-3.02c0.81-0.34,1.71-0.49,2.54-0.79c0.4-0.15,0.74-0.45,1.1-0.69
		c-1.96-0.59-3.81-0.68-5.64-0.94c-1.66-0.24-2.75,0.47-3.56,1.78c-0.6,0.98-1.17,2-1.67,3.03c-0.77,1.6-1.49,3.23-2.21,4.86
		c-0.64,1.45-1.63,2.29-3.3,2.16c-0.39-0.03-0.8,0.08-1.48,0.15C742.55,357.26,745.37,355.96,747.85,356.1z M749.52,429.79
		c-1.17-0.15-1.9-0.34-2.63-0.33c-3.11,0.03-6.22,0.12-9.33,0.19c-0.44,0.01-0.89,0.05-1.32,0.15c-1.1,0.28-2.08,0.84-2.1,2.09
		c-0.02,1.2,0.52,2.26,1.71,2.78c0.48,0.21,1.02,0.28,1.55,0.36C742.28,435.75,745.89,433.46,749.52,429.79z M648.78,386.22
		c0.19,0.17,0.38,0.34,0.57,0.52c0.53-0.48,1.15-0.89,1.58-1.45c2.43-3.18,5.05-6.16,8.53-8.25c0.23-0.14,0.43-0.31,0.63-0.48
		c0.89-0.75,1.46-1.64,0.69-2.75c-0.77-1.12-1.69-0.55-2.55-0.06c-4.35,2.46-7.11,6.28-9.09,10.74
		C648.9,385.01,648.89,385.64,648.78,386.22z M654.1,390.18c0.47,0.67,0.78,1.52,1.35,1.77c0.4,0.18,1.51-0.3,1.71-0.75
		c0.93-2.07,2.2-3.83,3.86-5.37c0.74-0.68,0.42-1.47-0.15-2.14c-0.57-0.66-1.29-0.66-1.89-0.12c-1.25,1.13-2.54,2.23-3.59,3.53
		C654.77,387.89,654.57,389.02,654.1,390.18z"/>
	<path class="st2" d="M670.93,448.84c0.27,0.66,0.51,1.12,0.67,1.62c1.85,5.85,5.25,10.67,9.83,14.67
		c9.05,7.89,19.59,12.17,31.59,12.5c5.82,0.16,11.52-0.77,16.82-3.43c5.01-2.51,8.93-6.13,11.39-11.2c0.58-1.19,1.36-1.92,2.56-2.51
		c2.87-1.4,5.69-2.93,8.45-4.55c1.1-0.65,2.04-0.82,3.24-0.4c2.42,0.85,4.88,1.58,7.53,2.43c-0.16,0.89-0.24,1.67-0.44,2.41
		c-1.57,5.73-4.7,10.55-8.83,14.71c-6.49,6.54-13.94,11.55-22.92,14.09c-3.34,0.94-6.61,2.12-9.96,3c-2.99,0.78-4.77,2.57-5.47,5.53
		c-1.06,4.5-2.43,8.94-3.15,13.5c-1.44,9.13-2.74,18.29-3.71,27.48c-1.66,15.74-3.07,31.51-4.45,47.27
		c-0.42,4.77-0.46,9.58-0.5,14.37c-0.01,1.75,0.39,3.53,0.79,5.26c0.64,2.76,2.41,4.62,5.18,5.16c2.07,0.4,4.24,0.61,6.33,0.43
		c6.55-0.56,13.13-1.03,19.6-2.1c16.04-2.64,30.77-8.57,43.88-18.32c0.61-0.46,1.25-0.87,2.17-1.5c0.05,1.2,0.1,2.05,0.13,2.91
		c0.36,10.49,0.7,20.99,1.09,31.48c0.05,1.42,0.22,2.84,0.45,4.24c0.24,1.41-0.28,2.31-1.39,3.17c-4.3,3.35-8.92,6.18-13.85,8.49
		c-10.4,4.88-21.4,7.61-32.75,9.09c-7.52,0.98-15.07,1.32-22.63,0.87c-21.15-1.25-41.57-5.49-60.56-15.29
		c-8.29-4.28-15.75-9.67-22.08-16.59c-1.36-1.48-1.91-2.89-1.58-4.98c1.42-8.86,2.64-17.76,3.94-26.64
		c0.11-0.77,0.37-1.51,0.64-2.58c1,0.76,1.87,1.35,2.66,2.03c6.55,5.72,14.02,10.02,21.61,14.14c1.25,0.68,2.55,1.27,3.89,1.73
		c2.23,0.77,3.58,0.14,4.42-2.08c0.43-1.15,0.71-2.4,0.84-3.62c0.6-5.66,1.27-11.31,1.63-16.99c0.77-12.19,2.61-24.23,5.13-36.15
		c3.28-15.57,6.96-31.05,10.48-46.57c0.14-0.61,0.33-1.2,0.42-1.82c0.37-2.51,0.25-2.72-2.06-3.95c-2.51-1.34-5.09-2.56-7.53-4.02
		c-7.74-4.61-13.3-10.96-15.21-19.98c-0.86-4.05-0.61-8.16,0.48-12.16c0.18-0.68,0.74-1.55,1.33-1.77
		C664.25,451.01,667.54,449.98,670.93,448.84z"/>
	<path class="st2" d="M635.35,375.69c-1.08-3.18-2.25-6.33-3.22-9.54c-2.35-7.78-4.01-15.69-3.61-23.88
		c0.14-2.91,0.36-5.89,1.1-8.69c2.15-8.19,6.08-15.54,11.39-22.12c0.83-1.03,1.77-2.07,2.88-2.76c2.2-1.36,3.63-3.35,5.05-5.4
		c1.77-2.56,3.55-5.12,5.37-7.64c3.45-4.78,7.83-8.01,13.79-9.27c6.13-1.3,11.77-3.82,16.43-8.34c1.87-1.81,4.32-3.09,6.65-4.34
		c2.43-1.3,4.85-1.01,6.82,1.08c2.07,2.2,4.12,4.42,6.09,6.71c1.74,2.02,3.35,4.16,5.04,6.22c2.39,2.9,3.82,3.27,7.46,2.1
		c2.37-0.76,4.75-1.46,7.13-2.19c2.91-0.89,5.68-0.46,8.15,1.23c2.27,1.55,4.47,3.23,6.54,5.04c2.82,2.45,5.45,5.11,8.22,7.62
		c4.02,3.65,8.71,4.63,13.88,3.12c2.54-0.74,4.8-2.14,6.15-4.42c0.86-1.46,1.09-3.3,1.66-5.16c0.85,0.15,1.41,1.08,2.02,1.86
		c2.96,3.78,4.35,8.1,4.34,12.89c-0.02,5.67-1.45,10.9-4.86,15.51c-2.74,3.7-6.36,4.96-10.8,3.8c-3.16-0.83-5.9-2.36-8.15-4.79
		c-3.2-3.46-6.39-6.94-9.75-10.25c-1.63-1.6-3.54-2.97-5.48-4.19c-3.31-2.09-6.73-1.87-10.09,0.04c-1.54,0.88-3.14,1.69-4.59,2.71
		c-2.23,1.57-4.38,1.54-6.73,0.29c-4.4-2.33-8.89-4.49-13.25-6.89c-3.02-1.66-5.87-1.57-8.42,0.59c-2.43,2.06-4.69,4.34-6.83,6.7
		c-2.21,2.43-4.31,4.99-6.24,7.65c-1.7,2.34-3.73,2.66-6.28,1.86c-2.8-0.88-5.63-1.64-8.45-2.44c-1.45-0.41-2.91-0.82-4.37-1.21
		c-5.83-1.53-12.13,0.99-15.27,6.1c-1.62,2.64-2.39,5.52-2.49,8.61c-0.07,2.16,0.66,4.11,2.02,5.65c2.17,2.45,4.57,4.7,6.91,6.99
		c0.63,0.61,1.43,1.05,2.32,1.69c-0.5,0.56-0.91,1.1-1.39,1.56c-1.99,1.91-4.01,3.79-6.01,5.69c-5.32,5.07-8.5,11.31-10.15,18.41
		c-0.13,0.58-0.33,1.15-0.5,1.72C635.68,375.64,635.51,375.67,635.35,375.69z"/>
	<path class="st2" d="M628.07,597.29c-1.78,17.65-3.55,35.12-5.34,52.87c-4.53-0.01-9.18,0.58-13.47-1.58
		c-1.37-0.69-2.69-1.79-3.56-3.04c-1.31-1.86-0.78-3.62,1.25-4.69c1.4-0.73,2.95-1.41,4.49-1.57c2.28-0.23,3.02-1.55,3.31-3.47
		c0.14-0.92,0.2-1.86,0.31-2.91c-0.9-0.14-1.49-0.24-2.09-0.32c-7.49-1.03-14.89-7.72-16.69-15.06c-0.79-3.21-0.44-6,1.86-8.66
		c5.07-5.86,10.91-10.43,18.61-12.21C620.18,595.86,624.67,596.12,628.07,597.29z"/>
	<path class="st2" d="M872.84,440.45c-0.93,2.24-1.72,3.96-0.3,5.9c0.35,0.48,0.33,1.35,0.23,2.01c-1.12,7.45-2.29,14.9-3.47,22.52
		c-0.39-0.13-1.06-0.27-1.65-0.56c-9.27-4.63-14.01-12.49-15.82-22.38c-0.38-2.05,0.08-4.11,1.17-5.91
		c2.96-4.89,6.45-9.35,10.96-12.95c11.74-9.38,25.67-3.25,30.94,7.45c1.08,2.18,1.49,4.53,1.54,6.97c0.1,5.83-4.18,7.72-8.6,7.16
		c-2.9-0.36-5.43-1.72-7.66-3.52c-1.93-1.56-3.69-3.33-5.53-5C874.15,441.67,873.64,441.2,872.84,440.45z"/>
	<path class="st2" d="M944.61,579.44c-4.23,2.28-8.27,4.45-12.65,6.82c-4.04-26.33-8.03-52.27-12.05-78.48
		c4.48-2.8,9.06-5.65,13.49-8.42c1.5,13.4,3.68,26.66,5.53,39.96C940.79,552.68,942.71,566.03,944.61,579.44z M931.72,515.27
		c-0.53-1.29-0.9-2.67-1.63-3.83c-0.92-1.46-2.64-1.36-3.77,0.03c-1.6,1.96-1.18,5.43,0.95,6.8c0.54,0.35,1.54,0.41,2.14,0.17
		C930.69,517.91,931.52,516.88,931.72,515.27z M938.45,564.1c-0.27-0.67-0.51-1.75-1.11-2.57c-1.25-1.74-3.61-1.43-4.48,0.51
		c-0.8,1.77-0.51,3.47,0.56,5.03c0.68,0.99,1.58,1.73,2.91,1.35c1.17-0.33,1.66-1.22,1.79-2.37
		C938.18,565.51,938.29,564.99,938.45,564.1z M927.78,530.88c-0.1,0.06-0.21,0.11-0.31,0.17c0.55,1.16,0.9,2.49,1.7,3.44
		c1.38,1.63,3.5,1.08,4.12-0.94c0.48-1.56,0.6-3.06-0.35-4.59c-0.64-1.03-1.62-1.8-2.54-1.54c-0.95,0.27-1.7,1.35-2.42,2.17
		C927.74,529.86,927.84,530.44,927.78,530.88z M936.1,547.79c-0.23-0.57-0.55-1.78-1.17-2.81c-0.76-1.24-2.2-1.21-3.46-0.52
		c-2.03,1.11-1.77,5.93,0.92,7.24c0.41,0.2,1.05,0.17,1.5,0.01C935.31,551.21,936.09,549.98,936.1,547.79z"/>
	<path class="st2" d="M939.76,454.49c1.81,0.36,3.69,0.54,5.43,1.11c2.03,0.67,3.08,2.19,3.1,4.46c0.02,2.32-0.5,4.47-1.94,6.23
		c-1.34,1.63-2.82,3.25-4.54,4.43c-5.8,3.98-12.26,6.4-19.23,7.28c-3.42,0.43-6.74-0.14-9.54-2.44c-2.57-2.12-2.98-4.42-1.2-7.26
		c0.61-0.97,1.35-1.89,2.21-2.65c6.55-5.76,14.02-9.61,22.75-10.77c0.97-0.13,1.95-0.12,2.92-0.18
		C939.73,454.63,939.75,454.56,939.76,454.49z"/>
	<path class="st2" d="M917.98,442.51c-3.36,0.12-6.29-0.83-8.72-3.24c-1.5-1.49-1.92-3.22-1.02-5.1c0.6-1.26,1.34-2.58,2.35-3.49
		c8.12-7.33,17.34-11.97,28.63-11.22c0.96,0.06,1.94,0.27,2.85,0.59c2.34,0.84,3.36,2.39,3.35,4.86c-0.01,2.3-0.71,4.42-2.17,6.16
		c-1.24,1.48-2.63,2.93-4.2,4.03c-5.47,3.8-11.6,6.06-18.15,7.21C919.94,442.48,918.95,442.45,917.98,442.51z"/>
	<path class="st2" d="M893.71,507.29c-2.27,1.01-4.29,2.18-6.46,2.83c-6.44,1.93-11.87-0.14-16.54-4.68
		c-3.49-3.38-6.15-7.37-8.36-11.66c-5.5-10.68-8.75-22.07-10.41-34.04c3.93,7.73,9.16,14.05,17.66,17.17
		c0.17,3.08,0.26,6.37,0.56,9.63c0.31,3.45,0.76,6.89,1.27,10.31c0.34,2.28,0.47,2.3,2.85,2.81c6.25,1.33,12.49,2.66,18.86,4.01
		C893.32,504.78,893.48,505.81,893.71,507.29z"/>
	<path class="st2" d="M920.46,495.96c-3.29,0.09-6.19-0.76-8.57-3.07c-1.84-1.79-2.25-3.79-0.97-6.02c0.78-1.36,1.88-2.57,3-3.7
		c0.39-0.39,1.31-0.53,1.89-0.39c3.37,0.83,6.7,0.63,10.01-0.23c5.91-1.52,11.36-4.02,16.22-7.77c0.85-0.66,1.56-1.83,2.99-1.04
		c1.4,0.77,2.47,1.78,2.66,3.43c0.22,1.88,0.13,3.8-0.91,5.43c-0.99,1.56-2.01,3.22-3.41,4.37
		C936.72,492.44,928.94,495.15,920.46,495.96z"/>
	<path class="st2" d="M935.15,441.9c1.3-0.88,2.62-1.73,3.89-2.65c3.99-2.9,6.88-6.68,8.63-11.28c1.26-3.3,1.13-6.61-0.49-10.02
		c3.11,0,5.99,0,8.95,0c1.44,2.71,1.68,5.66,2.2,8.52c0.39,2.19,0.63,4.4,0.95,6.6c1.01,6.95-4.06,12.41-11,11.58
		c-4.36-0.52-8.68-1.47-13.01-2.22C935.23,442.25,935.19,442.07,935.15,441.9z"/>
	<path class="st2" d="M765.4,332.91c1.97-1.51,3.78-2.92,5.6-4.3c2.25-1.69,3.57-1.34,4.69,1.32c0.99,2.34,1.2,4.84,0.9,7.32
		c-0.37,3.01-1.53,5.78-3.16,8.85C770.6,341.46,767.96,337.11,765.4,332.91z"/>
	<path class="st2" d="M1017.04,423.65c-0.35-0.26-1.05-0.52-1.24-0.99c-0.24-0.59-0.25-1.41-0.02-2c0.2-0.5,0.82-0.92,1.35-1.2
		c3.13-1.67,6.29-3.28,9.44-4.92c0.93-0.49,1.79-0.73,2.65,0.17c1.04,1.09,1.05,2.41-0.27,3.1c-3.68,1.95-7.44,3.75-11.17,5.61
		C1017.62,423.5,1017.44,423.53,1017.04,423.65z"/>
	<path class="st2" d="M964.24,338.55c-1.97,1.15-4.05,0.91-8.67-0.98C958.32,334.46,962.37,335.55,964.24,338.55z"/>
	<path class="st2" d="M920.11,504.89c-0.27-1.45-0.45-2.38-0.65-3.44c2.52-0.43,4.91-0.84,7.29-1.25c0.07,0.12,0.14,0.23,0.22,0.35
		C924.79,501.93,922.61,503.31,920.11,504.89z"/>
	<path class="st2" d="M830.43,344.78c-1.57-1.03-1.35-2.06-0.89-3.49C831.12,342.22,831.02,343.27,830.43,344.78z"/>
	<path class="st2" d="M819.77,349.16c-1.35-0.98-1.49-1.91-0.56-3.25C820.5,346.87,820.56,347.81,819.77,349.16z"/>
	<path class="st2" d="M823.74,334.41c0.18,0.88,0.36,1.76,0.62,3.01c-2.18-0.71-1.58-1.83-1.55-2.79
		C823.12,334.55,823.43,334.48,823.74,334.41z"/>
</g>
</svg>
