<?xml version="1.0" encoding="utf-8"?>
<!-- Generator: Adobe Illustrator 24.2.1, SVG Export Plug-In . SVG Version: 6.00 Build 0)  -->
<svg version="1.1" xmlns="http://www.w3.org/2000/svg" xmlns:xlink="http://www.w3.org/1999/xlink" x="0px" y="0px"
	 viewBox="0 0 500 500" style="enable-background:new 0 0 500 500;" xml:space="preserve">
<style type="text/css">
	.st0{display:none;}
	.st1{display:inline;fill:#4D4D4D;}
	.st2{display:inline;fill:#FFFFFF;}
</style>
<g id="Calque_3" class="st0">
	<rect x="-22.89" y="22" class="st1" width="569.78" height="449.33"/>
</g>
<g id="Calque_1">
	<path d="M485.58,187.02c-11.99,0.35-23.98,0.6-36.06,1.05c-0.11,0.57-0.21,1.07-0.29,1.58c-0.18,1.11-0.59,2.12-1.3,3.01
		c-0.47,0.59-1.02,0.89-1.79,0.92c-0.99,0.03-1.98,0.15-2.96,0.25c-0.34,0.03-0.68,0.12-1.04,0.19c-0.13,0.64,0,1.07,0.6,1.29
		c0.6,0.22,1.2,0.45,1.8,0.67c1.49,0.55,2.13,1.72,2.3,3.21c0.2,1.76-0.41,3.24-1.69,4.4c-0.81,0.74-1.77,1.31-2.69,1.93
		c-0.43,0.29-0.94,0.47-1.39,0.73c-0.7,0.41-1.41,0.82-1.84,1.68c0.26,0.35,0.54,0.71,0.81,1.08c1.23,1.7,1.19,3.55-0.23,5.11
		c-0.66,0.72-1.5,1.29-2.3,1.85c-0.77,0.54-1.51,1.08-1.96,2.04c0.26,0.36,0.52,0.74,0.79,1.1c1.14,1.54,1.18,3.13,0.18,4.73
		c-1.29,2.05-3.11,3.47-5.38,4.25c-1.27,0.44-2.47,0.99-3.64,1.65c-3.26,1.83-6.67,3.33-10.3,4.27c-2.96,0.76-5.95,1.07-9.01,0.64
		c-3.72-0.53-6.89-2.07-9.38-4.92c-0.19-0.22-0.4-0.42-0.6-0.62c-0.04-0.04-0.11-0.04-0.26-0.1c-0.69,0.42-1.43,0.86-2.17,1.31
		c-5.56,3.38-11.45,6.03-17.75,7.65c-5.62,1.44-11.33,2.15-17.15,1.52c-6.51-0.7-12.27-3.11-17.16-7.51
		c-0.34-0.31-0.7-0.58-1.02-0.85c-0.58,0.15-0.59,0.63-0.72,0.98c-1.9,4.95-3.79,9.91-5.67,14.86c-1.9,5.01-3.8,10.03-5.7,15.04
		c-0.19,0.49-0.38,0.98-0.52,1.48c-0.49,1.68-1.03,3.34-1.86,4.89c-0.46,0.86-0.56,1.71-0.38,2.68c0.7,3.72,1.33,7.46,1.99,11.19
		c0.96,5.39,1.95,10.78,2.86,16.18c0.63,3.73,1.25,7.48,1.7,11.23c0.51,4.28,0.89,8.58,1.23,12.88c0.36,4.53,0.62,9.07,0.88,13.61
		c0.21,3.73,0.36,7.46,0.53,11.18c0.09,1.86,0.17,3.73,0.26,5.59c0.01,0.29,0.06,0.57,0.11,0.96c0.56,0.16,1.11,0.32,1.66,0.46
		c3.1,0.82,6.18,1.71,9.06,3.14c1.41,0.7,2.77,1.49,4.1,2.32c0.59,0.36,1.11,0.86,1.57,1.38c1.51,1.73,1.35,3.71-0.37,5.24
		c-1.02,0.91-2.27,1.41-3.54,1.85c-2.07,0.72-4.24,0.72-6.37,0.97c-0.58,0.07-1.17,0.06-1.74,0.14c-5.53,0.77-10.92-0.06-16.26-1.45
		c-0.9-0.23-1.76-0.62-2.62-0.95c-0.65-0.25-1.28-0.59-2.15-0.42c-0.28,0.39-0.64,0.84-0.94,1.33c-0.41,0.66-1.01,0.94-1.75,0.99
		c-0.29,0.02-0.59,0.05-0.87,0c-1.43-0.28-2.86-0.54-4.27-0.89c-1.54-0.38-2.52-1.4-2.97-2.91c-0.22-0.72-0.42-1.45-0.61-2.19
		c-0.14-0.56-0.24-1.14-0.36-1.69c-0.59-0.45-1.26-0.31-1.88-0.4c-0.66-0.1-1.09-0.43-1.22-1.07c-0.12-0.57-0.2-1.15-0.24-1.73
		c-0.06-0.99-0.09-1.98-0.11-2.97c-0.08-4.56-0.75-9.06-1.62-13.52c-2.11-10.77-5.97-20.93-10.79-30.75
		c-0.41-0.84-0.82-1.67-1.25-2.5c-0.1-0.19-0.27-0.34-0.51-0.65c-0.8,1.37-1.55,2.6-2.25,3.86c-4.2,7.54-8.04,15.26-11.56,23.14
		c-3.09,6.93-5.53,14.1-7.42,21.45c-0.62,2.43-1.4,4.82-1.72,7.31c-0.21,1.67-1.13,2.75-2.75,3.25c-0.88,0.27-1.74,0.6-2.73,0.95
		c0.3,1.47,0.76,2.84,1.11,4.24c0.71,2.88,1.49,5.75,2.11,8.66c0.4,1.88,0.62,3.8,0.84,5.71c0.19,1.66-0.04,3.26-1.1,4.65
		c-0.1,0.13-0.15,0.31-0.25,0.54c0.16,0.27,0.34,0.57,0.52,0.86c1.78,2.94,2.25,6.08,1.47,9.42c-0.46,1.95-1.17,3.78-2.35,5.42
		c-1.76,2.46-4.12,3.51-7.13,3.06c-3.18-0.48-6-1.82-8.66-3.57c-2.74-1.8-4.87-4.16-6.28-7.13c-0.42-0.89-0.73-1.84-1.05-2.77
		c-0.18-0.53-0.47-0.88-1.04-1.06c-3.17-1.01-5.35-3.21-6.99-6.01c-2.7-4.58-5.07-9.32-6.97-14.28c-2.12-5.55-3.86-11.24-5.62-16.91
		c-1.88-6.07-3.85-12.11-6.21-18.01c-0.36-0.9-0.69-1.83-1.34-2.8c-0.18,0.56-0.35,0.93-0.42,1.31c-0.82,4.3-1.37,8.64-1.51,13.01
		c-0.11,3.32-0.19,6.64-0.18,9.97c0.01,2.45,0.2,4.89,0.31,7.34c0.28,6.29,0.56,12.58,0.83,18.88c0.01,0.28-0.06,0.57-0.1,0.94
		c-0.48,0.17-0.95,0.33-1.52,0.53c0,0.62,0.04,1.2-0.01,1.77c-0.08,0.99-0.17,1.97-0.32,2.95c-0.17,1.05-0.79,1.8-1.73,2.28
		c-1.68,0.85-3.47,1.33-5.34,1.55c-0.49,0.06-0.92-0.03-1.33-0.32c-0.52-0.37-1.05-0.73-1.66-1.15c-1,0.02-1.94,0.54-2.82,1.04
		c-4.21,2.43-8.78,3.73-13.52,4.51c-2.82,0.47-5.66,0.73-8.53,0.67c-1.76-0.04-3.49-0.25-5.17-0.75c-0.83-0.24-1.63-0.62-2.39-1.03
		c-0.89-0.49-1.51-1.27-1.89-2.22c-0.59-1.51-0.34-2.67,0.86-3.8c2.09-1.97,4.39-3.67,6.92-5.02c2.11-1.12,4.3-2.08,6.45-3.1
		c0.36-0.17,0.73-0.33,1.19-0.54c-0.06-0.47-0.09-0.93-0.19-1.37c-1.54-6.82-3.13-13.63-4.6-20.46c-0.75-3.47-1.29-6.99-1.91-10.49
		c-0.4-2.24-0.78-4.48-1.17-6.71c-0.67-3.79-0.98-7.63-1.32-11.46c-0.12-1.33-0.22-2.67-0.34-4c-0.58-0.51-1.29-0.6-1.96-0.74
		c-1.62-0.34-3.09-1-4.49-1.87c-3.45-2.12-6.6-4.59-9.26-7.66c-2-2.31-3.66-4.83-4.6-7.77c-0.09-0.27-0.24-0.52-0.43-0.89
		c-0.31,0.39-0.58,0.67-0.78,1c-1.73,2.77-3.43,5.55-5.19,8.3c-1.18,1.84-1.78,3.78-1.47,5.97c0.07,0.52,0.11,1.04,0.14,1.57
		c0.02,0.46,0.04,0.94-0.01,1.4c-0.22,2-1.16,3.03-3.16,3.42c-1.54,0.3-3.1,0.52-4.65,0.81c-1.2,0.23-2.39,0.5-3.58,0.79
		c-1.15,0.28-2.17,0.85-3.11,1.54c-0.66,0.48-1.32,0.97-1.96,1.46c-0.9,0.69-1.93,1.15-3.04,1.25c-3.25,0.28-6.49,0.78-9.76,0.49
		c-1.87-0.17-3.68-0.63-5.36-1.49c-0.41-0.21-0.82-0.45-1.17-0.75c-1.33-1.12-1.81-2.52-1.3-4.22c0.39-1.32,1.11-2.43,2.08-3.39
		c2.01-2.01,4.37-3.49,7.01-4.51c3.1-1.21,6.29-2.1,9.63-2.43c0.63-0.06,1.26-0.23,1.89-0.35c0.72-0.13,1.08-0.57,1.2-1.3
		c0.54-3.1,1.11-6.19,1.69-9.29c0.79-4.24,1.59-8.47,2.38-12.71c0.37-2.01,0.75-4.01,1.07-6.02c0.1-0.62,0.16-1.3,0.02-1.9
		c-0.78-3.38-0.38-6.73,0.23-10.07c0.5-2.75,1.02-5.5,1.5-8.26c0.11-0.63,0.11-1.28,0.13-1.92c0.13-4.61,0.17-9.22,0.41-13.81
		c0.23-4.42,0.55-8.85,1.05-13.25c0.72-6.34,2.21-12.5,4.86-18.34c1.13-2.51,2.68-4.77,4.12-7.1c0.61-0.99,1.23-1.98,1.88-2.95
		c2.29-3.42,2.49-7.05,1.12-10.85c-0.66-1.83-1.65-3.47-2.9-4.95c-0.37-0.43-0.82-0.88-1.33-1.08c-3.91-1.54-6.48-4.45-8.37-8.07
		c-0.4-0.77-0.75-1.57-1.17-2.44c-0.91,0.23-1.8,0.44-2.69,0.69c-3.48,0.95-6.96,1.94-10.44,2.87c-4.24,1.13-8.58,1.72-12.96,1.8
		c-3.93,0.07-7.76-0.67-11.52-1.83c-5.55-1.72-10.74-4.21-15.68-7.22c-2.49-1.51-4.88-3.18-7.32-4.77
		c-0.34-0.22-0.68-0.43-0.97-0.61c-0.2,0.05-0.31,0.06-0.41,0.11c-3.07,1.58-6.1,1.16-9.08-0.23c-2.39-1.12-4.5-2.69-6.54-4.34
		c-0.32-0.26-0.62-0.52-1.01-0.85c-0.81,0-1.68-0.01-2.55,0c-1.37,0.02-2.67-0.28-3.89-0.86c-1.47-0.7-2.19-2-2.08-3.53
		c0.06-0.82,0.55-1.38,1.1-1.97c-0.3-0.48-0.78-0.55-1.17-0.72c-0.66-0.29-1.23-0.7-1.62-1.29c-0.68-1.02-1.02-2.1-0.38-3.28
		c0.08-0.15,0.11-0.32,0.18-0.55c-0.89-0.83-1.9-1.51-2.98-2.07c-1.11-0.58-2.01-1.38-2.68-2.44c-0.68-1.08-0.64-2.21-0.21-3.35
		c0.28-0.74,0.82-1.26,1.59-1.51c0.44-0.14,0.89-0.28,1.32-0.45c0.31-0.12,0.47-0.39,0.36-0.69c-0.07-0.17-0.31-0.35-0.5-0.38
		c-1.03-0.17-2.07-0.29-3.17-0.44c-1.31-0.96-1.55-2.48-1.82-4.03c-0.34-0.05-0.61-0.13-0.89-0.14c-3.2-0.14-6.41-0.25-9.61-0.4
		c-3.49-0.16-6.99-0.35-10.48-0.51c-1.75-0.08-3.49-0.19-5.24-0.19c-1.25-0.01-1.91-0.59-2.28-1.74c-0.68-2.11-0.77-4.24-0.21-6.37
		c0.14-0.55,0.38-1.15,0.75-1.55c0.52-0.55,1.02-1.06,1.32-1.78c0.22-0.53,0.75-0.76,1.31-0.69c0.63,0.08,1.26,0.23,1.85,0.45
		c0.83,0.32,1.66,0.5,2.54,0.56c3.78,0.23,7.56,0.5,11.34,0.76c5,0.35,10,0.72,14.99,1.08c2.56,0.18,5.12,0.36,7.68,0.54
		c0.35,0.02,0.7,0.03,1.05,0.09c0.97,0.17,1.98,0.26,2.6,1.14c0.4-0.18,0.7-0.32,1.1-0.5c0.52,1,0.99,1.92,1.45,2.81
		c0.57,0.16,0.75-0.29,1.01-0.57c0.45-0.47,0.94-0.88,1.57-1.07c0.53-0.17,1.09,0.05,1.37,0.51c0.35,0.57,0.29,1.13-0.19,1.58
		c-0.08,0.08-0.17,0.17-0.27,0.22c-1.05,0.54-1.4,1.5-1.54,2.56c0.29,0.67,0.88,0.95,1.47,1.19c0.81,0.33,1.63,0.62,2.44,0.96
		c0.37,0.15,0.94,0.28,1.05,0.57c0.36,0.95,1.15,0.84,1.88,0.95c1.23,0.18,2.38,0.64,3.43,1.26c1.51,0.88,3,1.81,4.37,2.88
		c2.9,2.26,4.39,5.37,5.03,8.93c0.13,0.74,0.2,1.49,0.32,2.32c0.87,0.15,1.72,0.32,2.57,0.43c6.03,0.78,11.92,2.12,17.64,4.2
		c3.67,1.34,7.22,2.96,10.61,4.92c0.45,0.26,0.91,0.5,1.45,0.79c0.42-0.45,0.82-0.86,1.19-1.29c4.93-5.62,10.63-10.28,17.26-13.77
		c4.73-2.49,9.69-4.32,14.98-5.11c2.3-0.34,4.63-0.5,6.97-0.33c2.04,0.15,4.06,0.31,6.05,0.82c0.27,0.07,0.55,0.05,0.88,0.08
		c0.02-0.81-0.19-1.31-0.94-1.55c-3.94-1.23-6.66-3.94-8.79-7.35c-2.12-3.4-3.48-7.11-4.5-10.95c-0.8-2.99-1.33-6.04-1.66-9.11
		c-0.34-3.18-0.67-6.39-0.32-9.6c0.11-0.99-0.14-1.78-0.66-2.61c-1.38-2.17-2.44-4.5-3.14-6.99c-2.55-9.05,0.24-19.27,8.8-25.42
		c2.14-1.54,4.43-2.83,6.88-3.77c3.7-1.41,7.42-2.78,11.18-4.03c2.09-0.69,4.27-1.16,6.43-1.61c3.7-0.76,7.42-0.63,11.13,0
		c5.45,0.92,10.39,2.99,14.69,6.5c2.94,2.4,5.19,5.35,6.75,8.8c2.08,4.6,3.35,9.43,3.92,14.45c0.03,0.29,0.08,0.58,0.13,0.86
		c0.01,0.04,0.07,0.07,0.12,0.12c0.42,0.13,0.61-0.25,0.87-0.44c0.95-0.67,1.84-1.44,2.84-2.02c0.84-0.49,1.78-0.87,2.72-1.15
		c1.94-0.59,3.68-0.08,5.21,1.21c1.09,0.92,1.84,2.09,2.46,3.36c1.56,3.2,2.22,6.62,2.41,10.14c0.2,3.7-0.3,7.33-1.3,10.89
		c-0.17,0.61-0.33,1.23-0.51,1.92c0.33,0.32,0.64,0.66,0.99,0.95c0.89,0.75,1.83,1.45,2.69,2.24c0.76,0.7,1.63,1.07,2.62,1.29
		c1.93,0.43,3.85,0.94,5.78,1.34c0.98,0.2,1.76,0.65,2.32,1.43c0.78,1.09,1.49,2.22,2.21,3.35c0.75,1.18,1.46,2.38,2.22,3.56
		c0.41,0.64,0.92,1.2,1.65,1.51c1.83,0.77,3.18,2.16,4.37,3.68c2.46,3.15,4.33,6.63,5.62,10.41c0.55,1.62,0.75,3.3,0.75,5
		c0.01,1.63-0.12,3.26-0.2,4.89c-0.03,0.58-0.08,1.15-0.12,1.66c0.51,0.51,1.06,0.33,1.56,0.34c2.97,0.06,5.95,0.04,8.91,0.16
		c3.32,0.14,6.63,0.38,9.95,0.6c2.09,0.14,4.18,0.33,6.27,0.49c0.23,0.02,0.46-0.02,0.79-0.04c-0.52-1.68-1.56-3.02-2.22-4.57
		c-0.46-0.1-0.85-0.18-1.24-0.27c-1.78-0.39-3.24-1.3-4.34-2.74c-1.41-1.84-2.28-3.92-2.56-6.23c-0.28-2.25,0.25-4.28,1.75-6.03
		c0.22-0.26,0.42-0.55,0.66-0.86c-0.2-0.38-0.37-0.74-0.58-1.09c-2.78-4.78-4.65-9.91-5.7-15.33c-0.78-4.02-1.21-8.07-1.01-12.17
		c0.16-3.28,0.76-6.47,1.75-9.6c1-3.16,3.05-5.45,5.8-7.19c2.79-1.76,5.85-2.88,9.01-3.73c5.86-1.58,11.81-2.72,17.83-3.48
		c7.59-0.95,15.22-1.23,22.86-0.42c2.84,0.3,5.65,0.82,8.44,1.39c0.96,0.2,1.89,0.6,2.79,1.01c2.08,0.94,3.51,2.51,4.16,4.69
		c0.45,1.5,0.79,3.04,1.06,4.59c0.79,4.47,1.59,8.95,2.25,13.44c0.61,4.15,1.11,8.32,1.33,12.52c0.13,2.56,0.33,5.12,0.5,7.68
		c0.15,2.27,0.1,4.54-0.08,6.82c-0.09,1.1-0.13,2.21-0.08,3.32c0.32,7.58-1.35,14.7-4.97,21.35c-0.61,1.12-1.34,2.19-2.01,3.28
		c-0.18,0.29-0.35,0.59-0.57,0.95c0.36,0.12,0.62,0.25,0.9,0.3c4.38,0.87,8.25,2.83,11.77,5.51c3.5,2.66,6.54,5.79,9.2,9.29
		c1.27,1.68,2.35,3.47,3.17,5.42c0.11,0.26,0.26,0.49,0.42,0.8c0.26-0.19,0.46-0.31,0.62-0.47c1.99-1.97,4.41-3.24,7.02-4.14
		c2.81-0.96,5.72-1.57,8.68-1.94c6.45-0.82,12.91-0.86,19.37-0.24c0.86,0.08,1.71,0.28,2.87,0.48c3.87-2.22,8.32-2.9,13.08-1.97
		c0.09-0.37,0.21-0.64,0.21-0.92c0.02-0.98,0.59-1.43,1.45-1.72c1.21-0.41,2.41-0.88,3.6-1.33c0.77-0.29,1.51-0.63,2.06-1.39
		c0.08-1.31-0.31-2.44-1.51-3.25c-0.52-0.35-0.94-0.85-1.39-1.27c0.06-0.33,0.07-0.56,0.14-0.78c0.36-1.14,1.2-1.61,2.27-1.15
		c0.57,0.25,1.07,0.68,1.55,1.1c0.43,0.38,0.77,0.85,1.25,1.39c0.24-0.36,0.44-0.62,0.59-0.9c0.47-0.87,0.91-1.76,1.39-2.62
		c0.29-0.51,0.57-0.52,1.11-0.11c0.14,0.1,0.27,0.21,0.47,0.37c1.11-1.37,2.7-1.49,4.27-1.61c2.56-0.19,5.12-0.34,7.68-0.47
		c3.03-0.16,6.06-0.25,9.08-0.41c5.12-0.27,10.24-0.59,15.36-0.86c3.72-0.2,7.45-0.39,11.18-0.55c1.93-0.09,3.84-0.21,5.64-1.01
		c0.65-0.29,1.34-0.39,2.05-0.33c0.67,0.06,1.24,0.32,1.55,0.97c0.22,0.46,0.34,1,0.65,1.4c0.31,0.4,0.8,0.67,1.25,1.03
		c0.19,0.27,0.06,0.08,0.18,0.26c0.1,0.13,0.09,0.12,0.15,0.22c0.26,0.66,0.26,0.99,0.41,1.72
		C487.91,180.13,487.22,183.96,485.58,187.02 M310.15,209.49c-0.42,0.77-0.29,1.49-0.29,2.17c-0.01,8.34,0,16.68-0.01,25.02
		c0,1.22-0.13,2.44-0.2,3.66c-0.06,1.04-0.2,2.09-0.19,3.13c0.01,1.12-0.09,2.2-0.37,3.28c-0.3,1.18-0.51,2.39-0.7,3.6
		c-0.74,4.73-1.81,9.38-3.21,13.95c-0.89,2.9-1.96,5.73-3.17,8.51c-0.2,0.45-0.56,0.89-0.31,1.49c0.24,0.02,0.47,0.08,0.69,0.07
		c1.51-0.09,3.02-0.17,4.53-0.29c4.02-0.33,7.96-1.07,11.77-2.43c2.03-0.73,4.02-1.55,5.82-2.77c1.18-0.8,2.06-1.82,2.63-3.18
		c0.95-2.26,1.83-4.54,2.62-6.85c0.25-0.72,0.48-1.44,0.75-2.14c2.27-5.99,4.54-11.99,6.82-17.98c1.35-3.54,2.71-7.07,4.07-10.6
		c0.14-0.36,0.35-0.7,0.5-1c0.18,0,0.25-0.02,0.28,0c0.14,0.1,0.35,0.19,0.38,0.32c0.3,1.22,1.2,1.95,2.11,2.69
		c4.86,3.97,10.5,5.98,16.69,6.43c3.67,0.27,7.33,0.05,10.97-0.58c8.21-1.42,15.76-4.52,22.83-8.86c0.33-0.2,0.62-0.49,0.96-0.77
		c-0.42-0.92-0.81-1.76-1.18-2.61c-2.61-6.02-4.12-12.23-3.46-18.85c0.39-3.93,1.7-7.48,4.31-10.49c0.21-0.25,0.4-0.52,0.75-0.96
		c-0.61-0.03-1-0.06-1.38-0.06c-2.62,0-5.25,0.04-7.87-0.01c-3.81-0.07-7.56,0.34-11.28,1.1c-2.98,0.61-5.87,1.52-8.51,3.07
		c-2.7,1.58-4.78,3.7-5.71,6.79c-0.09,0.3-0.31,0.56-0.5,0.91c-0.66-0.4-0.87-0.94-0.99-1.5c-0.09-0.44-0.17-0.95-0.05-1.36
		c0.26-0.89,0.57-1.79,1.03-2.59c0.6-1.04,0.49-2,0-3c-0.2-0.42-0.46-0.81-0.71-1.21c-3.31-5.38-7.82-9.51-13.15-12.82
		c-2.8-1.74-5.83-2.91-9.05-3.57c-0.5-0.1-1.01-0.24-1.58,0.03c0,0.43-0.03,0.82,0.01,1.22c0.1,1.1,0.28,2.2,0.32,3.3
		c0.14,4.36-0.83,8.47-3.14,12.18c-5.11,8.18-12.57,12.56-22.13,13.43C311.24,209.42,310.67,209.45,310.15,209.49z M247.33,179.15
		c0-0.34,0.05-0.68-0.01-1c-0.17-0.97-0.3-1.96-0.58-2.91c-0.85-2.86-2.48-5.26-4.68-7.25c-1.25-1.13-2.62-2.14-3.93-3.19
		c-0.32-0.26-0.66-0.48-0.96-0.76c-0.38-0.36-0.36-0.88,0.07-1.21c0.41-0.32,0.87-0.58,1.32-0.84c0.98-0.55,1.85-1.22,2.53-2.12
		c1.6-2.14,1-5.81-1.2-7.33c-0.79-0.54-1.65-0.87-2.62-0.81c-0.46,0.03-0.93,0.07-1.39,0.14c-2.42,0.37-4.84,0.74-7.25,1.11
		c-1.38,0.21-2.52-0.21-3.42-1.29c-0.33-0.4-0.64-0.83-0.99-1.22c-1.08-1.24-2.31-2.31-3.83-2.98c-1.35-0.61-2.74-0.88-4.25-0.57
		c-1.2,0.24-2.37,0.52-3.52,0.97c-0.81,0.32-1.68,0.47-2.52,0.7c-1.38,0.39-2.65,0.03-3.88-0.56c-0.42-0.2-0.79-0.49-1.21-0.7
		c-0.67-0.34-1.34-0.71-2.05-0.95c-1.24-0.42-2.42-0.26-3.4,0.69c-0.5,0.48-1.02,0.95-1.5,1.46c-1.4,1.48-2.83,2.94-4.17,4.48
		c-1.4,1.61-3.16,2.61-5.16,3.09c-0.97,0.23-1.51,0.72-2.01,1.47c-3.96,5.93-6.77,12.33-7.96,19.41c-0.97,5.78-0.7,11.48,0.69,17.16
		c0.58,2.39,1.46,4.66,2.3,6.96c0.62,1.71,1.35,3.35,2.35,4.87c3.43,5.24,8,9.21,13.53,12.11c1.91,1,3.9,1.86,5.97,2.46
		c2.7,0.78,5.45,1.21,8.28,0.89c0.31-0.04,0.73-0.18,0.81,0.42c-0.79,0.64-1.76,0.82-2.73,0.97c-0.98,0.15-1.97,0.24-2.95,0.39
		c-0.23,0.03-0.44,0.2-0.77,0.37c1.12,0.72,2.2,0.87,3.32,0.94c3.53,0.22,6.82-0.66,9.96-2.18c2.1-1.02,4.1-2.22,5.75-3.91
		c1.04-1.06,1.85-2.25,2.36-3.64c0.1-0.26,0.25-0.54-0.1-0.78c-1.06,0.43-2.1,0.98-3.21,1.29c-1.07,0.29-2.22,0.72-3.34,0.11
		c0.04-0.63,0.48-0.85,0.85-1.1c0.63-0.42,1.3-0.77,1.94-1.19c4.5-2.94,8.19-6.7,11.35-11.03c0.58-0.8,1.16-1.6,1.75-2.42
		c0.4,0.05,0.74,0.11,1.08,0.13c3.02,0.17,5.5-0.88,7.21-3.43c0.54-0.81,0.97-1.74,1.28-2.66c0.73-2.13,0.39-4.14-1-5.94
		c-0.39-0.51-0.85-0.96-1.27-1.44c-0.19-0.23-0.33-0.48,0.02-0.74c0.53,0.13,1.07,0.26,1.62,0.4c0.25-1.31,0.28-1.33-0.15-2.06
		c-1.07-1.8-2.13-3.61-3.27-5.37c-0.89-1.37-1.93-2.63-3.24-3.64c-0.6-0.46-1.17-0.97-1.7-1.51c-0.27-0.28-0.46-0.66-0.57-1.04
		c-0.14-0.53,0.34-0.95,0.83-0.76c0.32,0.12,0.65,0.27,0.92,0.48c0.65,0.5,1.29,1.01,1.88,1.56c2.11,1.98,3.67,4.36,4.89,6.97
		c0.36,0.77,0.71,1.54,1.09,2.34c0.41-0.39,0.55-0.74,0.36-1.17c-0.25-0.59-0.49-1.18-0.75-1.77c-1.41-3.16-3.03-6.17-5.5-8.66
		c-1.11-1.12-2.2-2.25-3.3-3.37c-0.2-0.21-0.42-0.41-0.59-0.64c-0.24-0.32,0.03-0.91,0.44-0.94c0.28-0.02,0.6,0,0.84,0.12
		c0.41,0.22,0.8,0.49,1.13,0.81c2.5,2.47,4.76,5.12,6.29,8.33c0.45,0.95,0.87,1.91,1.31,2.86
		C246.83,178.76,246.86,179.09,247.33,179.15z M301.73,188.03c0.03-0.12,0.06-0.24,0.09-0.37c0.84,0.16,1.7,0.29,2.53,0.5
		c1.71,0.45,3.45,0.6,5.2,0.44c1.45-0.14,2.89-0.31,4.32-0.56c8.04-1.4,14.58-5.33,19.63-11.72c5.76-7.29,8.68-15.62,8.98-24.87
		c0.11-3.44-0.06-6.87-0.53-10.29c-0.32-2.31-0.59-4.63-0.79-6.95c-0.26-2.91-0.86-5.76-1.53-8.59c-0.31-1.29-0.88-2.53-1.42-3.75
		c-0.47-1.07-1.19-2.01-2.05-2.81c-1.46-1.35-2-1.2-3.22-0.34c-1.11,0.78-2.36,1.23-3.62,1.7c-1.87,0.7-3.83,0.94-5.79,1.22
		c-2.65,0.37-5.23,0.01-7.78-0.62c-2.68-0.66-5.13-1.89-7.5-3.28c-1.12-0.66-2.3-1.12-3.54-1.44c-0.43-0.11-0.92-0.14-1.36-0.09
		c-2.98,0.33-5.81,1.22-8.55,2.36c-0.95,0.4-1.86,0.98-2.68,1.62c-1.82,1.43-2.9,3.31-3.19,5.63c-0.09,0.69-0.16,1.39-0.22,2.09
		c-0.13,1.53-0.53,2.97-1.39,4.27c-0.51,0.78-0.97,1.59-1.45,2.39c-1,1.68-1.56,3.48-1.72,5.44c-0.22,2.88,0.14,5.7,0.81,8.49
		c0.6,2.5,1.43,4.93,2.55,7.24c0.53,1.09,0.67,2.22,0.63,3.39c-0.01,0.19-0.16,0.38-0.32,0.73c-0.69-1.07-1.28-2-1.89-2.92
		c-1.28-1.95-2.58-3.9-4.31-5.48c-0.68-0.62-1.45-1.18-2.26-1.61c-1.06-0.56-1.53-0.42-2.31,0.44c-2.54,2.83-1.72,6.66,0,8.47
		c0.6,0.63,1.25,1.23,1.81,1.9c0.67,0.81,1.54,1.21,2.53,1.43c0.68,0.15,1.35,0.3,2.07,0.46c0.42,1.09,0.86,2.1,1.2,3.15
		c1.14,3.47,2.75,6.67,5.23,9.4c1.26,1.39,2.66,2.61,4.2,3.68c0.52,0.36,1.09,0.69,1.13,1.43c-0.1,0.08-0.19,0.2-0.28,0.19
		c-0.35-0.01-0.7-0.01-1.03-0.1c-1.78-0.45-3.16-1.65-4.76-2.71c-0.19,0.72-0.07,1.27,0.09,1.81c0.55,1.89,1.54,3.51,2.85,4.96
		c2.1,2.32,4.6,4.12,7.44,5.42c2.2,1,4.5,1.59,6.94,1.4c0.19-0.01,0.38-0.14,0.77-0.29C305.28,189.84,303.27,189.38,301.73,188.03z
		 M232,210.12c-0.12,0.45-0.24,0.77-0.27,1.1c-0.38,3.56-1.84,6.59-4.37,9.11c-2.9,2.9-6.34,4.9-10.25,6.14
		c-2.77,0.88-5.61,1.03-8.47,0.84c-5.16-0.33-9.32-2.36-11.83-7.12c-0.25-0.48-0.59-0.81-1.09-1.07c-1.5-0.78-2.95-1.64-4.43-2.45
		c-0.24-0.13-0.51-0.2-0.84-0.33c-0.69,1.78-1.14,3.53-1.34,5.31c-0.23,2.09-0.22,4.19,0.75,6.17c1.11,2.27,2.75,4.03,4.93,5.29
		c1.52,0.87,3.03,1.75,4.6,2.52c1.42,0.7,1.68,2.01,1.51,3.22c-0.08,0.58-0.24,1.14-0.39,1.7c-2.11,8.06-3.97,16.18-5.44,24.38
		c-0.48,2.7-0.9,5.4-1.16,8.13c-0.34,3.54-0.71,7.07-1.07,10.61c-0.12,1.21-0.28,2.42-0.43,3.75c-0.4,0.07-0.79,0.24-1.16,0.19
		c-0.51-0.06-1.03-0.23-1.5-0.45c-1.31-0.62-2.63-1.25-3.9-1.96c-2.5-1.4-4.71-3.22-6.94-5c-0.34-0.27-0.61-0.7-1.27-0.64
		c-0.72,4.89-1.44,9.77-2.15,14.66c-0.07,0.51-0.06,1.04-0.08,1.61c0.7,0.72,1.36,1.45,2.09,2.12c3.17,2.92,6.85,5.03,10.77,6.74
		c4.4,1.92,8.98,3.25,13.67,4.22c2.97,0.62,5.97,1.08,9,1.19c3.66,0.14,7.33,0.2,11-0.2c5.98-0.65,11.88-1.66,17.61-3.52
		c2.83-0.92,5.57-2.06,8.21-3.62c-0.06-0.7-0.12-1.39-0.19-2.08c-0.28-2.96-0.6-5.91-0.84-8.87c-0.17-2.03-0.24-4.07-0.37-6.11
		c-0.02-0.27,0.05-0.6-0.39-0.79c-0.24,0.15-0.53,0.32-0.82,0.49c-1.15,0.68-2.27,1.45-3.47,2.03c-6.07,2.95-12.52,4.33-19.23,4.6
		c-1.69,0.07-3.37,0.18-5.06,0.24c-1.11,0.04-2.22,0.06-3.32,0.03c-1.7-0.05-2.85-0.91-3.41-2.52c-0.15-0.44-0.29-0.89-0.39-1.34
		c-0.36-1.49-0.37-3-0.23-4.52c0.07-0.81,0.15-1.63,0.18-2.44c0.23-5.24,0.48-10.48,1.09-15.7c0.43-3.65,0.75-7.31,1.28-10.94
		c0.79-5.36,1.74-10.69,2.58-16.04c0.19-1.2,0.83-1.88,1.97-2.15c0.34-0.08,0.68-0.18,1.02-0.23c3.75-0.56,7.17-2,10.44-3.84
		c2.72-1.53,5.07-3.52,6.98-6c3.15-4.07,4.17-8.64,3.26-13.67c-0.06-0.33-0.25-0.64-0.36-0.89
		C236.44,211.05,234.31,210.68,232,210.12z M160.62,157.33c-1.41-0.28-2.65-0.58-3.92-0.76c-6.18-0.89-12.2-0.13-18.06,1.96
		c-9.08,3.23-16.77,8.55-23.28,15.62c-0.31,0.34-0.58,0.71-0.86,1.04c0.04,0.92,0.67,1.73,0.1,2.76c-1.77-0.96-3.44-2.13-5.24-3.02
		c-1.88-0.93-3.76-1.85-5.69-2.67c-1.88-0.79-3.8-1.49-5.73-2.12c-1.99-0.65-4.01-1.21-6.05-1.71c-1.98-0.49-3.97-0.93-5.98-1.23
		c-2.06-0.3-4.12-0.71-6.18-0.74c-0.39,0.58-0.55,1.08-0.4,1.71c0.12,0.5,0.18,1.04,0.13,1.56c-0.27,3.13-1.04,6.08-3.01,8.62
		c-0.14,0.17-0.22,0.38-0.37,0.65c0.41,0.32,0.75,0.63,1.13,0.87c2.27,1.43,4.5,2.91,6.83,4.25c4.61,2.64,9.44,4.81,14.55,6.32
		c2.42,0.71,4.85,1.15,7.4,0.9c1.85-0.18,3.73-0.16,5.59-0.23c2.39-0.09,4.77-0.18,7.16-0.3c0.46-0.02,0.92-0.13,1.37-0.25
		c4.55-1.23,9.11-2.46,13.65-3.71c0.37-0.1,0.71-0.33,1.12-0.53c-0.12-0.64-0.2-1.21-0.33-1.78c-0.13-0.58,0.04-1.01,0.5-1.38
		c1.41-1.12,2.81-2.27,4.22-3.4c2.14-1.7,3.69-3.87,4.94-6.27c0.92-1.76,1.8-3.53,2.72-5.28c0.11-0.22,0.37-0.35,0.6-0.56
		c0.92,1.22,1.11,2.36,0.38,3.65c-1.23,2.18-2.31,4.45-3.61,6.59c-1.93,3.17-4.36,5.9-7.62,7.81c-0.19,0.11-0.35,0.29-0.6,0.5
		c0.14,0.44,0.23,0.89,0.42,1.3c0.6,1.33,1.25,2.63,1.84,3.96c0.39,0.87,0.93,1.63,1.61,2.26c1.06,0.99,2.11,2.03,3.49,2.57
		c1.09,0.42,2.21,0.75,3.31,1.12c0.56,0.19,1.09,0.26,1.7,0.14c1.31-0.26,2.66-0.36,3.97-0.61c0.95-0.18,1.31,0.23,1.55,0.98
		c0.09,0.28,0.14,0.57,0.18,0.85c0.08,0.65-0.1,0.96-0.74,1.19c-1.27,0.46-2.56,0.79-3.92,0.78c-0.31,0-0.62,0.13-1.01,0.21
		c0.36,0.7,0.66,1.26,0.95,1.83c0.71,1.41,1.33,2.85,1.71,4.39c0.77,3.17,0.97,6.34-0.18,9.47c-0.36,0.97-0.89,1.89-1.41,2.8
		c-0.75,1.3-1.57,2.57-2.3,3.75c0.77,3.4,3.56,6.73,6.97,8.55c2.76,1.48,5.73,2.27,8.81,2.67c0.16,0.02,0.34-0.05,0.57-0.09
		c0.24-1.14,0.44-2.27,0.3-3.44c-0.29-2.49-0.54-4.98-0.84-7.46c-0.24-1.97-0.44-3.95-0.81-5.89c-0.92-4.8-1.94-9.59-2.9-14.38
		c-0.57-2.86-0.97-5.75-1.11-8.66c-0.16-3.43-0.17-6.87,0.21-10.3c0.41-3.66,0.99-7.27,1.89-10.83c0.21-0.83,0.41-1.67,0.63-2.55
		c-0.58-0.26-1.05-0.47-1.52-0.69c-1.11-0.53-1.84-1.41-2.3-2.53c-0.65-1.57-0.44-3.08,0.33-4.55c0.6-1.15,1.46-2.11,2.39-2.99
		c0.38-0.35,0.76-0.7,1.16-1.08C160.9,158.41,160.77,157.91,160.62,157.33z M308.18,237.53c0.55-4.85,0.58-9.46,0.64-14.05
		c0.09-6.51-0.23-12.84-0.61-14.01c-0.76-0.1-1.56-0.25-2.36-0.31c-3.95-0.3-7.65-1.47-11.2-3.15c-6.24-2.95-11.02-7.53-14.74-13.28
		c-2.6-4.03-4.24-8.41-4.73-13.2c-0.21-2.04-0.19-4.07,0.05-6.11c0.08-0.73,0.34-1.48-0.04-2.26c-0.23-0.05-0.45-0.13-0.67-0.14
		c-3.55-0.17-7.09-0.39-10.64-0.47c-2.68-0.06-5.36,0.06-8.04,0.12c-0.39,0.01-0.78,0.15-1.13,0.22c-0.68,2.02-1.32,3.95-1.99,5.87
		c-1.18,3.41-2.32,6.83-4.65,9.68c1.14,0.85,1.5,1.33,1.93,2.63c0.58,1.78,0.54,3.57-0.06,5.33c-0.77,2.25-2.07,4.17-3.85,5.74
		c-1.49,1.32-3.23,2.05-5.26,2.01c-0.4-0.01-0.8,0.05-1.12,0.07c-1.63,1.87-3.18,3.66-4.82,5.55c0.54,0.22,0.95,0.4,1.37,0.55
		c3.66,1.26,7.06,3.03,10.25,5.21c3.18,2.18,6.14,4.63,8.88,7.34c0.82,0.81,1.7,1.33,2.85,1.56c2,0.39,4,0.8,5.95,1.38
		c3.4,1.01,6.77,2.13,10.13,3.27c1.31,0.44,2.5,0.47,3.66-0.32c1.36-0.94,2.91-1.44,4.45-2c1.11-0.4,2.22-0.64,3.42-0.46
		c0.69,0.1,1.4,0.05,2.09,0.06c2.04,0.03,4.08,0.08,6.12,0.08c0.99,0,1.81,0.36,2.57,0.95c1.18,0.91,2.01,2.09,2.66,3.42
		c0.67,1.37,1.07,2.83,1.41,4.31c0.12,0.55,0.12,1.16,0.61,1.58c1.3-0.24,2.55-0.3,3.81,0.16
		C306.4,235.29,306.94,236.57,308.18,237.53z M146.81,105.93c-0.15,0.32-0.3,0.58-0.38,0.85c-0.84,2.79-1.47,5.63-1.8,8.54
		c-0.48,4.26-0.35,8.5,0.35,12.72c0.63,3.86,1.51,7.65,3.13,11.24c1.18,2.63,2.69,5.03,4.76,7.06c1.96,1.92,4.24,3.2,6.99,3.68
		c2.35,0.42,4.64,0.11,6.93-0.33c2.76-0.53,5.38-1.5,7.91-2.72c1.19-0.58,2.43-1.11,3.46-1.97c0.03-0.46,0.04-0.86,0.08-1.27
		c0.19-1.88,0.63-3.69,1.75-5.25c1.79-2.48,4.23-4.13,7.03-5.29c0.23-0.1,0.54-0.01,0.85-0.01c0.02,0.77-0.43,1.27-0.66,1.85
		c-0.29,0.76-0.67,1.5-0.88,2.28c-0.26,0.96,0.12,1.51,1.21,1.96c-0.02-0.79,0.13-1.49,0.61-2.13c0.65-0.86,0.85-1.88,0.88-2.96
		c0.06-1.84-0.36-3.57-0.98-5.29c-0.75-2.08-0.69-2.14,1.03-3.03c0.21-0.11,0.4-0.25,0.59-0.38c2.19-1.54,3.93-3.46,5.01-5.93
		c0.77-1.76,1.05-3.58,0.62-5.46c-0.61-2.6-2.61-3.61-5.03-2.56c-0.48,0.21-0.95,0.46-1.37,0.77c-0.7,0.52-1.36,1.1-2.04,1.64
		c-0.3,0.24-0.62,0.47-1.04,0.78c-0.21-0.41-0.43-0.69-0.5-1c-0.2-0.91-0.41-1.82-0.51-2.75c-0.31-3.04-1.46-5.74-3.2-8.21
		c-1.82-2.59-4.17-4.55-7.17-5.64c-1.75-0.64-3.52-1.22-5.27-1.85c-1.81-0.65-3.63-1.27-5.4-2c-1.73-0.71-3.37-1.6-4.64-3.04
		c-0.22-0.25-0.53-0.43-0.88-0.7c-2.72,1.84-4.85,4.2-6.74,6.8c-1.92,2.65-3.23,5.23-3.49,6.87c0.71,0.58,1.44,1.26,2.24,1.82
		c0.76,0.54,1.57,1.02,2.4,1.42c0.87,0.42,1.8,0.71,2.76,1.08c-0.32,1.25-1.03,2.02-2.05,2.51c0,0.51-0.02,0.97,0,1.44
		c0.05,1.14-0.23,2.21-0.77,3.19c-0.3,0.55-0.7,1.09-1.17,1.5c-0.97,0.86-2.15,0.69-2.84-0.4c-0.27-0.43-0.48-0.95-0.54-1.45
		c-0.27-2.1,0.02-4.07,1.62-5.66c0.07-0.06,0.05-0.21,0.1-0.41C148.89,107.43,148.01,106.52,146.81,105.93z M268.67,238.44
		c3.16,5.64,5.63,11.47,7.54,17.54c1.92,6.13,3.03,12.42,3.83,18.8c0.43,0.1,0.76,0.23,1.1,0.24c2.53,0.12,4.99-0.21,7.36-1.15
		c1.49-0.59,2.78-1.47,3.83-2.67c0.18-0.2,0.44-0.4,0.29-0.85c-0.22-0.03-0.49-0.09-0.76-0.1c-1.05,0-2.1,0.04-3.15,0.02
		c-1.16-0.03-2.32-0.12-3.49-0.2c-0.37-0.02-0.67-0.2-0.82-0.56c-0.29-0.69-0.63-1.38-0.37-2.24c0.33-0.04,0.67-0.12,1.01-0.13
		c0.99-0.01,1.98-0.02,2.97,0.04c1.48,0.09,2.92-0.13,4.33-0.5c2.63-0.68,4.8-2.07,6.28-4.41c1-1.58,1.64-3.29,1.82-5.25
		c-0.33-0.03-0.56-0.1-0.77-0.06c-0.97,0.19-1.95,0.34-2.89,0.63c-2.3,0.72-4.65,1.06-7.04,1.17c-0.29,0.01-0.6,0.06-0.87-0.03
		c-0.25-0.08-0.58-0.26-0.67-0.48c-0.23-0.59-0.37-1.21-0.47-1.84c-0.03-0.17,0.17-0.42,0.33-0.55c0.17-0.13,0.42-0.19,0.65-0.22
		c2.36-0.39,4.71-0.82,7.07-1.13c3.63-0.48,6.59-2.18,9.1-4.77c1.19-1.23,2.08-2.71,2.51-4.35c0.35-1.34,0.48-2.75,0.57-4.14
		c0.11-1.66-0.82-2.91-2.41-3.44c-2.28-0.75-4.26-0.18-5.91,1.5c-1.35,1.37-2.08,3.07-2.25,5c-0.03,0.37,0.15,0.84-0.33,1.09
		c-0.56-0.12-0.63-0.63-0.81-1.03c-0.41-0.92-1.09-1.52-2.02-1.8c-0.83-0.25-1.69-0.46-2.55-0.54c-0.98-0.09-1.98,0-2.97,0.01
		c-0.4,0-0.79,0-1.12,0c-0.64-1.16-0.72-1.31-0.71-1.87c0-0.28,0.01-0.65,0.18-0.83c0.86-0.93,1.69-1.9,2.75-2.51
		c1.07,0.44,0.82,1.55,1.28,2.2c0.23,0.08,0.39,0.16,0.56,0.2c1.57,0.35,2.97,1.01,4.1,2.19c0.09,0.09,0.31,0.06,0.52,0.09
		c0.18-1.26,0.52-2.46,1.22-3.47c0.68-0.99,1.55-1.86,2.42-2.88c-0.26-1.81-0.69-3.66-1.74-5.33c-0.77-1.23-1.79-2.11-3.15-2.64
		c-1.83-0.71-3.71-0.94-5.66-0.79c-2.47,0.18-4.79,0.93-7.07,1.84c-3.04,1.2-6,2.54-8.49,4.75c-1.66,1.47-3.23,3.03-4.66,4.72
		C268.99,237.88,268.89,238.09,268.67,238.44z M183.59,137.52c-1.54,1.38-2.46,2.91-2.86,4.7c-0.56,2.51-0.44,4.97,0.89,7.28
		c0.43,0.76,0.77,1.57,1.15,2.35c0.99,2.01,2.27,2.76,4.48,2.56c1.88-0.17,3.46-0.98,4.75-2.34c1.12-1.19,2.19-2.42,3.33-3.59
		c0.98-1,1.97-2,3.05-2.87c2.06-1.66,4.28-2,6.63-0.56c0.7,0.43,1.41,0.83,2.09,1.27c0.8,0.52,1.64,0.57,2.5,0.21
		c0.59-0.25,1.17-0.53,1.74-0.82c1.76-0.9,3.52-1.81,5.27-2.73c1.62-0.86,3.16-0.75,4.54,0.45c0.92,0.8,1.8,1.66,2.61,2.57
		c1.12,1.27,2.15,2.61,3.22,3.92c1.73,2.11,1.72,1.76,4.02,1.15c1.91-0.51,3.81-1.06,5.71-1.64c0.75-0.23,1.49-0.28,2.25-0.19
		c4.11,0.49,5.94,3.17,6.46,6.5c0.25,1.59-0.2,2.99-1.23,4.22c-0.97,1.18-2.05,2.23-3.28,3.13c-0.31,0.22-0.76,0.36-0.75,0.92
		c1.19,1.15,2.4,2.32,3.6,3.5c2.21,2.17,3.68,4.78,4.49,7.77c0.15,0.54,0.34,1.07,0.6,1.85c0.3-0.6,0.51-0.93,0.64-1.29
		c1.52-4.12,2.6-8.34,2.88-12.73c0.13-1.92,0.08-3.84-0.36-5.74c-0.96-4.16-2.86-7.87-5.42-11.25c-0.56-0.74-1.23-1.42-1.97-1.96
		c-0.77-0.57-1.37-1.24-1.91-2c-1.21-1.71-2.42-3.43-3.69-5.09c-1.47-1.9-3.35-3.12-5.77-3.65c-2.27-0.5-4.5-1.24-6.42-2.64
		c-0.61-0.44-1.19-0.93-1.78-1.41c-1.08-0.89-2.17-1.77-3.5-2.27c-1.38-0.51-2.64-0.4-3.68,0.74c-0.82,0.9-1.62,1.83-2.41,2.77
		c-1.01,1.21-2.01,2.42-2.99,3.65c-0.79,0.99-1.75,1.25-2.95,0.87c-1.17-0.37-2.36-0.63-3.53-1.01c-1.93-0.62-3.68-0.32-5.25,0.95
		c-1.18,0.95-2.36,1.9-3.49,2.9c-1.01,0.89-1.94,1.85-2.93,2.76c-1.39,1.27-3.03,1.95-4.92,1.95
		C186.26,142.67,184.14,140.87,183.59,137.52z M335.32,178.77c-0.5,0.44-0.81,0.67-1.08,0.96c-4.34,4.56-9.59,7.54-15.7,8.98
		c-0.78,0.18-1.36,0.51-1.87,1.14c-1.62,2.03-3.73,3.36-6.27,3.86c-4.22,0.84-8.34,0.51-12.27-1.41c-3.52-1.72-6.39-4.2-8.89-7.2
		c-2.27-2.72-3.43-5.78-3.35-9.31c0.01-0.64,0.07-1.28,0.05-1.92c-0.03-0.97-0.89-2.03-1.74-2.12c-1.97-0.2-3.95-0.37-5.92-0.51
		c-0.32-0.02-0.65,0.11-0.96,0.17c-0.13,0.54-0.26,0.99-0.36,1.45c-0.5,2.41-0.72,4.85-0.34,7.29c0.31,2.02,0.82,4,1.6,5.89
		c1.35,3.3,2.89,6.5,5.41,9.11c0.85,0.88,1.65,1.81,2.55,2.64c1.16,1.06,2.34,2.11,3.6,3.04c3.25,2.37,6.93,3.82,10.84,4.64
		c1.93,0.4,3.9,0.67,5.86,0.92c4.24,0.55,8.37,0.03,12.36-1.49c4.39-1.66,8.11-4.33,11.33-7.69c2.98-3.1,4.98-6.74,5.58-11.05
		C336.09,183.79,336.06,181.42,335.32,178.77z M178.05,200.54c-0.19-0.6-0.32-1.09-0.5-1.57c-1.12-3.02-1.87-6.15-2.14-9.35
		c-0.32-3.83-0.38-7.69,0.27-11.51c0.56-3.28,1.35-6.51,2.73-9.56c0.41-0.9,0.76-1.83,1.17-2.73c0.34-0.75,0.23-1.34-0.53-1.8
		c-0.65,0.53-1.28,1.04-1.91,1.56c-1.85,1.53-3.84,2.85-6.02,3.86c-2.08,0.96-4.23,1.65-6.58,1.51c-0.51-0.03-1.03,0.04-1.57,0.07
		c-0.12,0.33-0.23,0.6-0.32,0.87c-1.22,3.78-2.06,7.66-2.52,11.59c-0.91,7.76-0.54,15.47,1.15,23.12c0.83,3.75,1.55,7.53,2.17,11.33
		c0.67,4.08,1.16,8.19,1.71,12.29c0.1,0.73,0.13,1.46,0.2,2.18c0.6,0.02,0.61-0.44,0.75-0.7c1.39-2.63,2.91-5.18,4.62-7.62
		c3.54-5.06,7.65-9.55,12.78-13.04c0.19-0.13,0.35-0.29,0.52-0.44c-1.61-2.46-3.2-4.88-4.81-7.32c-0.95,0.04-1.94,0.19-2.91,0.11
		c-3.37-0.29-6.44-1.52-9.31-3.28c-0.9-0.56-0.98-0.92-0.7-2.22c1.87,0.76,3.71,1.61,5.63,2.24
		C173.88,200.76,175.9,200.94,178.05,200.54z M406.32,201.12c0.19,0.49,0.27,0.71,0.35,0.92c0.52,1.3,1.01,2.6,1.57,3.88
		c0.45,1.02,1.09,1.92,1.9,2.7c0.57,0.54,1.23,0.86,2.04,0.84c0.87-0.02,1.75,0.02,2.62-0.02c1.7-0.07,2.42-0.72,2.54-2.46
		c0.19-2.67,0.51-5.34,0.37-8.03c-0.09-1.75-0.18-3.51-0.7-5.18c-0.64-2.08-1.25-2.36-3.09-2.5c-0.81-0.06-1.64-0.03-2.44-0.17
		c-3.18-0.56-6.12,0.33-9.04,1.38c-0.26,0.09-0.61,0.28-0.67,0.49c-0.24,0.85-1,1.09-1.62,1.49c-4.15,2.63-6.51,6.43-7.21,11.25
		c-0.96,6.58,0.48,12.74,3.54,18.56c0.13,0.24,0.33,0.6,0.53,0.63c0.69,0.09,0.95,0.61,1.29,1.07c1.46,1.95,3.29,3.47,5.43,4.59
		c0.97,0.51,2.03,0.89,3.08,1.18c1.12,0.3,2.29,0.42,3.43,0.62c1.5,0.27,2.98,0.42,4.51,0.2c4.03-0.57,7.77-1.97,11.34-3.87
		c0.09-0.05,0.13-0.18,0.2-0.28c-0.4-0.43-0.96-0.31-1.46-0.41c-1.6-0.31-3.31-0.25-4.75-1.06c-1.47-0.82-2.94-0.98-4.53-0.67
		c-0.46,0.09-0.93,0.1-1.39,0.15c-1.51,0.14-3.01,0.3-4.52,0.42c-1.46,0.11-2.16-0.28-2.73-1.65c-0.29-0.69-0.47-1.44-0.6-2.18
		c-0.12-0.68-0.14-1.39-0.15-2.09c-0.08-3.74,0.12-7.46,1.01-11.11c0.2-0.83,0.1-1.58-0.3-2.36c-0.58-1.14-1.05-2.34-1.53-3.52
		c-0.21-0.53-0.47-1.07-0.33-1.82C405.37,201.86,405.76,201.56,406.32,201.12z M259.66,333.7c0.96,0.55,1.52,0.21,2.06-0.32
		c1.46-1.42,2.92-2.85,4.41-4.24c0.82-0.77,1.49-1.62,2.01-2.62c0.97-1.86,1.98-3.7,2.99-5.54c0.14-0.26,0.22-0.7,0.73-0.54
		c0.2,0.78-0.03,1.49-0.29,2.21c-0.68,1.92-1.47,3.8-2.38,5.63c-0.19,0.38-0.53,0.78-0.25,1.32c1.02-0.1,1.99-0.27,2.65-1.11
		c0.87-1.1,1.69-2.22,2.11-3.59c1.2-3.84,2.38-7.68,3.63-11.5c0.81-2.47,0.33-4.9,0.04-7.57c-0.38,0.32-0.6,0.48-0.8,0.66
		c-0.65,0.58-1.26,1.22-1.95,1.75c-2.94,2.26-6.29,3.47-9.97,3.85c-2.99,0.31-5.8-0.14-8.36-1.8c-0.08-0.05-0.22-0.01-0.63-0.01
		c-0.04,0.06-0.17,0.33-0.36,0.55c-1.3,1.46-2.79,2.63-4.7,3.21c-0.67,0.2-1.31,0.5-1.96,0.74c-0.98,0.36-1.98,0.7-2.95,1.09
		c-0.44,0.18-0.8,0.5-0.86,1.02c-0.07,0.55,0.3,0.86,0.71,1.1c0.35,0.2,0.72,0.38,1.11,0.51c1.41,0.49,2.86,0.5,4.31,0.27
		c0.98-0.15,1.95-0.36,2.93-0.45c1.08-0.1,2.18-0.31,3.23-0.11c0.31,0.62,0.04,1.09-0.14,1.57c-1.37,3.72-2.75,7.43-4.11,11.15
		c-0.58,1.59-1.11,3.19-1.68,4.78c-0.24,0.67-0.34,1.36-0.23,2.06c0.06,0.41,0.46,0.76,0.86,0.7c0.39-0.06,0.82-0.15,1.14-0.37
		c0.57-0.4,1.1-0.86,1.58-1.36c1.8-1.85,3.22-3.98,4.39-6.28c1.56-3.06,3.16-6.11,4.75-9.15c0.15-0.29,0.24-0.69,0.72-0.62
		c0.24,1.25,0.24,1.29-0.07,2.36c-0.5,1.74-1.23,3.39-2.03,5.01C261.42,329.92,260.58,331.76,259.66,333.7z M448.28,186.62
		c0.59-0.04,1.05-0.09,1.51-0.1c3.96-0.13,7.91-0.24,11.87-0.38c5.06-0.18,10.12-0.39,15.18-0.58c0.93-0.04,1.87,0,2.79-0.07
		c0.97-0.08,1.96-0.03,2.92-0.32c-0.21-1.4-0.53-2.71-0.56-4.03c-0.03-1.31,0.23-2.62,0.38-4.02c-0.44-0.05-0.78-0.13-1.11-0.12
		c-2.91,0.11-5.82,0.22-8.72,0.37c-5.17,0.26-10.34,0.55-15.51,0.8c-2.85,0.14-5.7,0.29-8.55,0.36c-1.1,0.03-1.75,0.55-2.16,1.46
		c-0.23,0.52-0.45,1.1-0.47,1.66c-0.06,2.21-0.06,4.42-0.04,6.63c0,0.51,0.14,1.04,0.28,1.54c0.2,0.71,0.51,1.04,0.83,0.96
		c0.49-0.12,0.57-0.55,0.66-0.94C447.81,188.83,448.02,187.81,448.28,186.62z M154.05,294.97c-0.13,0.44-0.27,0.75-0.32,1.08
		c-0.5,3.71-0.59,7.43-0.36,11.16c0.23,3.79,1.34,7.32,3.51,10.47c3.12,4.52,7.33,7.78,12.11,10.33c1,0.54,2.11,0.91,3.39,0.96
		c0.12-0.89,0.06-1.7,0.01-2.5c-0.05-0.79,0.21-1.63-0.4-2.48c-0.52,0-1.1-0.02-1.67,0c-1.5,0.05-2.87-0.36-4.18-1.05
		c-1.73-0.91-3.17-2.16-4.4-3.66c-2.16-2.63-3.79-5.58-5.04-8.74c-0.19-0.48-0.33-1-0.45-1.5c-0.07-0.28-0.08-0.58-0.05-0.87
		c0.05-0.67,0.67-1.25,1.4-1.35c0.44-0.06,0.85,0.26,1.14,0.9c0.07,0.16,0.12,0.33,0.18,0.49c0.32,0.81,0.62,1.63,0.95,2.44
		c0.88,2.16,1.88,4.26,3.25,6.16c1.03,1.43,2.24,2.68,3.75,3.61c1.33,0.82,2.81,1.08,4.33,1.21c0.17,0.01,0.34-0.05,0.51-0.1
		c0.38-0.1,0.6-0.43,0.51-0.79c-0.08-0.34-0.19-0.68-0.35-0.98c-0.52-0.98-1.04-1.95-1.62-2.9c-1.27-2.09-2.58-4.16-3.86-6.24
		c-0.33-0.54-0.62-1.1-0.94-1.68c0.26-0.27,0.43-0.51,0.65-0.69c0.72-0.58,1.03-1.38,1.26-2.24c0.4-1.5-0.05-2.89-0.62-4.23
		c-0.13-0.31-0.6-0.53-0.95-0.68c-0.86-0.35-1.75-0.65-2.63-0.93c-2.98-0.96-5.64-2.46-8.06-4.44
		C154.8,295.5,154.47,295.28,154.05,294.97z M160.69,153.17c-0.2,0.78,0.11,1.37,0.3,1.97c0.52,1.67,1.03,3.34,1.56,5
		c0.24,0.77,0.03,1.32-0.61,1.82c-0.87,0.68-1.68,1.45-2.47,2.22c-0.41,0.4-0.78,0.87-1.09,1.36c-0.46,0.74-0.29,1.39,0.48,1.74
		c0.57,0.26,1.2,0.46,1.83,0.54c3.93,0.56,7.65-0.08,11.12-2.07c1.88-1.07,3.62-2.34,5.23-3.78c0.29-0.26,0.54-0.58,0.85-0.92
		c-1.65-4.08-0.77-7.79,1.57-11.22c-0.35-0.98-0.35-0.98-0.8-1.42c-1.94,0.87-3.83,1.77-5.76,2.59c-1.94,0.81-3.96,1.35-6.02,1.76
		C164.84,153.17,162.75,153.15,160.69,153.17z M71.26,156.19c0.89,0.7,1.2,1.39,0.98,2.27c-0.3,1.18-0.52,2.41-1.02,3.51
		c-0.49,1.08-0.55,2.09-0.32,3.21c0.6,2.92,0.73,5.89,0.57,8.86c-0.03,0.46-0.08,0.93-0.2,1.38c-0.48,1.84-1.06,2.29-2.97,2.18
		c-1.62-0.1-3.24-0.29-4.86-0.44c-0.2-0.02-0.48-0.19-0.54,0.2c1.86,1.17,3.32,1.58,4.51,1.81c2.68,0.52,5.07-0.02,7.06-2.02
		c1.74-1.75,2.8-3.84,3.27-6.24c0.02-0.1-0.06-0.21-0.1-0.33c-0.37,0.09-0.74,0.18-1.05,0.26c-0.12-0.11-0.17-0.14-0.2-0.19
		c-0.88-1.36-0.89-1.42,0.13-2.53c0.85-0.92,1.43-1.98,1.71-3.2c0.57-2.53,0.25-4.96-0.8-7.32c-1.22-2.74-3.39-4.52-5.93-5.95
		c-1.08-0.6-2.23-1.01-3.43-1.25c-2.23-0.45-3.94,0.71-4.32,2.93c-0.13,0.74-0.19,1.5-0.19,2.25c0.02,1.98,0.09,3.96,0.16,5.94
		c0.01,0.4,0.1,0.79,0.15,1.13c2.18,0.98,3.61,0.69,5.04-1.01c0.83-0.99,1.4-2.14,1.77-3.38C70.86,157.64,71.02,157.02,71.26,156.19
		z M13.37,144.87c0.71,0.1,1.16,0.19,1.62,0.22c3.26,0.17,6.52,0.33,9.78,0.48c4.31,0.2,8.61,0.38,12.92,0.58
		c0.64,0.03,1.28,0.04,1.91,0.35c0.17,0.74,0.3,1.49,0.51,2.21c0.11,0.36,0.19,0.82,0.75,0.86c0.61-0.41,0.65-1.1,0.69-1.71
		c0.09-1.74,0.1-3.49,0.08-5.24c0-0.45-0.17-0.93-0.37-1.34c-0.32-0.66-0.81-1.08-1.63-1.11c-1.45-0.05-2.91-0.2-4.36-0.28
		c-5.29-0.31-10.59-0.61-15.88-0.91c-0.35-0.02-0.7-0.06-1.05-0.08c-1.16-0.06-2.33-0.14-3.49-0.17c-0.33-0.01-0.65,0.09-1.03,0.15
		C13.78,140.88,14.1,142.81,13.37,144.87z M422.19,179.82c-0.08,0.23-0.16,0.35-0.14,0.44c0.06,0.22,0.15,0.43,0.26,0.63
		c0.31,0.56,0.69,1.08,0.93,1.67c0.44,1.08,0.26,1.75-0.6,2.49c-0.35,0.3-0.74,0.59-1.15,0.78c-0.9,0.41-1.82,0.76-2.73,1.13
		c-0.46,0.19-1.14,0.12-1.23,0.78c-0.1,0.8,0.67,0.85,1.15,1.08c1.66,0.79,2.8,2.03,3.52,3.71c0.51,1.19,0.82,2.42,0.96,3.7
		c0.06,0.57,0.18,1.13,0.29,1.87c2.45-1.84,5.27-2.43,7.96-3.45c-0.23-0.79-0.67-1.34-0.99-1.94c-1.1-2.09-1.95-4.26-1.75-6.67
		c0.2-2.33,0.57-4.64,1.71-6.72c0.52-0.95,0.3-1.63-0.38-2.39c-1,0.43-1.25,1.54-1.98,2.08c-0.48,0-0.88,0-1.26,0
		c-0.79,0.85-1.07,2.12-2.21,2.59C423.61,181.13,423.27,180.07,422.19,179.82z M435.72,195.71c0,0.01,0,0.02,0,0.02
		c-0.58,0.03-1.16,0.04-1.74,0.09c-2.09,0.2-4.14,0.58-6.08,1.42c-1.08,0.47-2.06,1.09-2.81,2.02c-1.17,1.46-0.98,3.3,0.46,4.48
		c0.36,0.29,0.76,0.54,1.17,0.75c2.47,1.23,5.1,1.53,7.81,1.34c0.37-0.03,0.8-0.23,1.06-0.49c1.45-1.45,2.67-3.07,3.29-5.07
		c0.37-1.2,0.42-2.4,0.03-3.6c-0.2-0.61-0.59-0.98-1.28-0.97C437,195.72,436.36,195.71,435.72,195.71z M428.96,216.06
		c2.79,0.04,4.04-0.13,5.87-0.79c1.27-0.46,2.46-1.08,3.39-2.07c1.31-1.39,1.12-2.94-0.49-3.96c-0.63-0.4-1.33-0.75-2.04-0.95
		c-3.93-1.11-7.7-0.69-11.26,1.35c-0.59,0.34-1.14,0.82-1.59,1.34c-0.95,1.13-0.81,2.39,0.27,3.4c0.65,0.61,1.45,0.95,2.27,1.25
		C426.68,216.09,428.01,216.06,428.96,216.06z M445.34,179.04c-3.74,0.13-7.17,0.26-10.6,0.38c-0.41,0.01-0.82,0.02-1.22,0.07
		c-0.52,0.06-1.03,0.15-1.59,0.24c-1.47,2.42-1.66,5.08-1.49,7.77c0.11,1.8,0.56,3.55,1.72,5.04c0.48,0,0.88,0.01,1.29,0
		c2.91-0.11,5.81-0.23,8.72-0.33c0.76-0.03,1.52-0.01,2.27-0.07c0.32-0.03,0.62-0.2,1.05-0.35c-0.32-0.61-0.59-1.1-0.89-1.67
		c-2.1,0.07-4.13,0.13-6.17,0.21c-0.99,0.04-1.98,0.12-2.96,0.16c-0.62,0.02-1.16-0.2-1.48-0.76c-0.58-1.02-0.11-2.8,1.48-2.8
		c2.15,0,4.3-0.17,6.45-0.28c0.57-0.03,1.14-0.09,1.65-0.13c0.36-1.04,0.36-1.04-0.03-1.95c-0.31,0-0.66-0.01-1,0
		c-2.1,0.04-4.19,0.08-6.29,0.12c-0.47,0.01-0.93,0.01-1.4-0.01c-0.53-0.02-0.88-0.35-1.02-0.82c-0.11-0.38-0.14-0.81-0.1-1.2
		c0.1-0.83,0.52-1.24,1.34-1.36c0.46-0.07,0.93-0.09,1.39-0.11c1.92-0.08,3.84-0.16,5.76-0.23c0.81-0.03,1.63-0.03,2.46-0.41
		C444.87,180.15,445.04,179.74,445.34,179.04z M425.88,225.87c0.81-0.1,2.33-0.21,3.81-0.49c1.43-0.27,2.81-0.75,4.03-1.58
		c0.43-0.29,0.84-0.63,1.17-1.02c0.73-0.87,0.71-1.85-0.03-2.69c-0.3-0.34-0.66-0.69-1.06-0.88c-2.24-1.09-4.63-1.57-7.11-1.23
		c-1.49,0.2-2.95,0.63-4.41,1.03c-1.15,0.31-2.09,0.99-2.9,1.86c-0.45,0.49-0.7,1.06-0.85,1.69c-0.13,0.55-0.01,1.03,0.34,1.47
		c0.57,0.7,1.3,1.15,2.16,1.4C422.39,225.83,423.78,225.91,425.88,225.87z M302.2,255.51c-0.15,1.48-0.22,2.94-0.46,4.37
		c-0.59,3.55-2.2,6.48-5.35,8.42c-0.29,0.18-0.56,0.4-0.86,0.62c0.07,1.93-0.9,3.46-1.84,5c1.08,0.54,2.55,0.64,4.99,0.36
		c2.62-3.91,6.98-17.11,7.35-21.78C304.71,253.53,303.45,254.52,302.2,255.51z M58.52,155.19c0.09-0.43,0.16-0.82,0.26-1.2
		c0.21-0.78,0.41-1.57,0.67-2.34c0.47-1.38,1.37-2.41,2.65-3.11c0.26-0.14,0.54-0.23,0.76-0.41c0.15-0.13,0.26-0.36,0.28-0.56
		c0.01-0.11-0.19-0.28-0.34-0.34c-0.8-0.33-1.65-0.57-2.42-0.98c-1.93-1.02-2.03-2.02-1.07-3.49c0.2-0.3,0.62-0.59,0.32-1.1
		c-0.78,0.03-0.97,0.97-1.69,1.12c-0.99-0.21-1.04-1.31-1.79-1.93c-0.71,0.16-1.23-0.2-1.62-0.87c-0.16-0.28-0.46-0.48-0.69-0.72
		c-0.63,0.57-0.68,1.13-0.33,1.79c0.61,1.15,0.79,2.41,1.02,3.68c0.45,2.49-0.05,4.73-1.45,6.81c-0.21,0.32-0.35,0.69-0.56,1.09
		C54.54,153.48,56.44,154.3,58.52,155.19z M48.88,153.5c-1.96-0.05-2.34,0.33-2.31,2.12c0.01,0.4-0.02,0.86,0.15,1.2
		c0.59,1.19,1.24,2.36,1.91,3.51c0.42,0.72,1.06,0.98,1.92,0.83c1.37-0.24,2.76-0.38,4.14-0.57c0.4-0.06,0.81-0.13,1.19-0.26
		c1.38-0.45,2.14-1.64,1.88-2.93c-0.16-0.79-0.67-1.38-1.31-1.78c-0.78-0.48-1.62-0.91-2.49-1.23
		C52.26,153.79,50.46,153.57,48.88,153.5z M52.22,141.4c-1.62-0.32-7.89-0.7-9.63-0.58c-0.08,0.01-0.15,0.15-0.23,0.23
		c-0.04,0.46,0.18,0.78,0.62,0.9c0.33,0.09,0.69,0.1,1.04,0.12c1.45,0.08,2.91,0.14,4.36,0.23c0.58,0.04,1.17,0.1,1.73,0.24
		c0.25,0.06,0.52,0.29,0.64,0.52c0.53,1.04-0.06,2.07-1.22,2.04c-1.63-0.04-3.26-0.18-4.89-0.26c-0.45-0.02-0.9,0.02-1.42,0.03
		c0,0.51,0,0.89,0,1.26c0.15,0.07,0.24,0.16,0.35,0.17c1.51,0.13,3.02,0.24,4.52,0.36c0.52,0.04,1.05,0.05,1.56,0.14
		c0.81,0.14,1.19,0.68,1.11,1.49c-0.08,0.79-0.55,1.22-1.42,1.21c-0.7-0.01-1.39-0.1-2.09-0.14c-1.57-0.08-3.13-0.14-4.77-0.22
		c-0.22,0.47-0.41,0.86-0.66,1.38c3.46,0.36,6.77,0.36,10.09,0.6c1.16-1.44,1.48-3.11,1.5-4.79
		C53.45,144.61,53.33,142.84,52.22,141.4z M260.21,225.83c1.41,1.87,2.56,3.4,3.72,4.92c1.18,1.55,2.09,3.3,3.41,4.89
		c0.99-1.08,1.86-2.09,2.79-3.04c0.93-0.95,1.91-1.84,2.98-2.86c-0.52-0.27-0.9-0.54-1.32-0.67
		C268.09,227.92,264.38,226.79,260.21,225.83z M168.69,309.42c1.45,2.8,2.84,4.81,3.75,5.41c0.06-0.97,0.1-1.88,0.16-2.79
		c0.18-2.84,0.37-5.67,0.56-8.51c0.04-0.59-0.01-1.15-0.47-1.67c-1.05-0.09-2.14-0.08-3.27,0.15c0.16,1.3,0.35,2.55,0.46,3.81
		C170,307.15,169.47,308.31,168.69,309.42z M247.59,278.4c-0.35,3.47,0.2,15.87,0.76,18.09c0.34-0.1,0.4-0.38,0.47-0.65
		c0.44-1.56,0.89-3.12,1.33-4.69c0.36-1.28,0.69-2.57,1.04-3.85c-0.45-1.26-0.88-2.52-1.36-3.76
		C249.21,281.92,248.6,280.29,247.59,278.4z M63.19,169.87c-0.73-0.6-1.53-0.74-2.34-0.75c-1.28-0.01-2.56,0.07-3.83,0.02
		c-1.68-0.07-3.2,0.51-4.73,1.03c-0.7,0.24-1.17,0.74-1.48,1.39c-0.17,0.35-0.07,0.69,0.25,0.93c0.54,0.39,1.15,0.53,1.81,0.48
		c1.85-0.13,3.71-0.21,5.56-0.42c1.28-0.14,2.47-0.65,3.58-1.31C62.49,170.96,62.97,170.62,63.19,169.87z M60.78,163.42
		c-0.43-0.18-0.78-0.37-1.16-0.47c-0.39-0.11-0.8-0.18-1.2-0.17c-1.62,0.01-3.25,0.05-4.87,0.09c-0.28,0.01-0.57,0.1-0.84,0.19
		c-0.94,0.3-1.88,0.61-2.8,0.93c-0.38,0.13-0.76,0.29-1.11,0.49c-0.4,0.22-0.48,0.66-0.25,1.05c0.53,0.91,1.34,1.23,2.35,1.14
		c1.68-0.14,3.36-0.23,5.03-0.42c1.34-0.15,2.58-0.65,3.73-1.35C60.14,164.6,60.66,164.28,60.78,163.42z M184.91,156.21
		c-0.96-0.75-1.73-1.35-2.5-1.94c-0.18-0.14-0.37-0.28-0.56-0.4c-0.61-0.38-1.05-0.3-1.5,0.27c-0.43,0.56-0.68,1.19-0.78,1.9
		c-0.28,2.02,0.11,3.91,1.04,5.71c0.11,0.22,0.3,0.4,0.55,0.72C182.46,160.29,183.68,158.26,184.91,156.21z M442.6,196.92
		c0.21,1.39,0.09,2.71-0.46,3.92c-0.54,1.18-1.23,2.29-1.89,3.51c0.7,0.15,1.13-0.2,1.53-0.47c0.77-0.5,1.51-1.06,2.22-1.65
		c0.3-0.25,0.53-0.62,0.71-0.97C445.67,199.44,444.85,197.65,442.6,196.92z M43.84,154.38c-1.39,0.74-1.83,1.23-1.88,2
		c-0.05,0.88,0.35,1.57,0.96,2.16c0.12,0.12,0.27,0.22,0.42,0.32c0.48,0.32,0.97,0.64,1.46,0.96c0.2,0.12,0.41,0.22,0.66-0.08
		C44.47,158.18,43.66,156.51,43.84,154.38z M190.32,139.94c1.02,0.14,1.32,0.1,2.04-0.26c1.1-0.55,2.29-1.74,3.05-3.11
		C193.66,137.73,192.03,138.81,190.32,139.94z"/>
	<path d="M185.77,199.11c-0.27-0.22-0.49-0.33-0.59-0.5c-0.7-1.28-1.37-2.57-2.06-3.85c-0.57-1.06-0.45-2.01,0.38-2.87
		c0.69-0.71,1.36-1.44,2.07-2.13c0.18-0.17,0.47-0.22,0.88-0.41c0,0.46,0.01,0.74,0,1.01c-0.07,1.27,0.17,1.68,1.37,2.03
		c1.28,0.37,2.58,0.72,3.88,0.99c1.59,0.33,3.2,0.63,4.81,0.85c2.39,0.33,4.77,0.16,7.11-0.38c2.78-0.65,5.54-1.36,8.3-2.04
		c0.28-0.07,0.57-0.15,0.83-0.26c0.98-0.43,1.28-1.06,0.98-2.11c-0.19-0.65-0.5-1.28-0.33-2.14c0.34,0.15,0.62,0.22,0.82,0.38
		c1.94,1.58,3.86,3.19,5.8,4.77c0.72,0.59,0.94,1.31,0.71,2.18c-0.48,1.74-0.98,3.47-1.49,5.2c-0.06,0.22-0.19,0.43-0.31,0.62
		c-0.05,0.08-0.21,0.16-0.29,0.14c-0.15-0.04-0.35-0.14-0.39-0.26c-0.09-0.27-0.15-0.56-0.14-0.84c0.02-0.46,0.15-0.92,0.17-1.39
		c0.05-1.1-0.83-1.72-1.87-1.3c-0.48,0.19-0.92,0.49-1.37,0.76c-2.46,1.45-4.99,2.76-7.66,3.78c-1.68,0.64-3.39,1.24-5.19,1.47
		c-2.87,0.36-5.54-0.31-8.14-1.45c-2.04-0.89-3.85-2.17-5.67-3.42c-0.38-0.26-0.77-0.52-1.19-0.71c-0.4-0.18-0.85,0.04-0.99,0.44
		C186.05,198.1,185.94,198.54,185.77,199.11z M198.83,200.16c1.33-0.08,2.44-0.24,3.54-0.2c2.21,0.08,4.27-0.44,6.28-1.29
		c0.48-0.2,0.99-0.36,1.47-0.57c1.82-0.78,3.64-1.56,5.45-2.38c0.61-0.27,1.09-0.72,1.04-1.47c-0.04-0.54-0.77-1.16-1.49-1.32
		c-0.17-0.04-0.35-0.08-0.52-0.06c-0.63,0.08-1.28,0.13-1.89,0.29c-0.9,0.22-1.78,0.54-2.68,0.78c-2.76,0.75-5.53,1.46-8.39,1.64
		c-1.39,0.09-2.81,0.13-4.18-0.06c-3.17-0.43-6.34-0.91-9.44-1.76c-0.44-0.12-0.92-0.14-1.38-0.12c-0.5,0.02-0.8,0.5-0.69,1
		c0.16,0.74,0.58,1.21,1.3,1.51c2.47,1.03,4.94,2.08,7.39,3.17C196.05,199.95,197.57,199.97,198.83,200.16z"/>
	<path d="M198.92,187.4c-0.91,0.02-1.56-0.32-1.99-1.02c-0.43-0.69-0.83-1.4-1.23-2.1c-0.38-0.66-0.75-1.31-1.11-1.98
		c-0.56-1.07-0.5-1.61,0.29-2.52c1.41-1.62,2.83-3.24,4.27-4.84c1.41-1.57,2.47-3.37,3.48-5.21c0.25-0.46,0.48-0.93,0.78-1.36
		c0.15-0.23,0.41-0.4,0.65-0.55c0.21-0.14,0.68,0.1,0.66,0.35c-0.03,0.45-0.06,0.92-0.21,1.34c-0.8,2.32-1.98,4.46-3.26,6.54
		c-0.67,1.09-1.3,2.21-2.04,3.25c-1.11,1.54-1.1,2.98,0.07,4.47c0.5,0.64,0.9,1.35,1.3,2.06c0.36,0.65,0.15,1.15-0.54,1.34
		C199.64,187.28,199.24,187.34,198.92,187.4z"/>
	<path d="M219.59,171.77c0.01,1.4-0.09,2.45-0.56,3.41c-0.25,0.51-0.57,1.02-0.97,1.43c-0.84,0.85-1.87,0.72-2.47-0.3
		c-0.29-0.49-0.51-1.06-0.62-1.62c-0.32-1.65-0.11-3.25,0.69-4.74c0.42-0.78,0.95-1.55,1.98-1.47c1.14,0.08,1.47,1.03,1.75,1.92
		C219.55,170.94,219.56,171.53,219.59,171.77z"/>
	<path d="M192.53,169.95c-0.04,1.52-0.28,2.66-0.83,3.7c-0.24,0.45-0.58,0.88-0.96,1.22c-0.61,0.55-1.48,0.48-2.03-0.14
		c-0.27-0.3-0.53-0.65-0.64-1.02c-0.64-2.03-0.53-4.01,0.57-5.88c0.43-0.73,0.99-1.35,1.93-1.25c0.96,0.1,1.33,0.87,1.58,1.66
		C192.35,168.9,192.45,169.6,192.53,169.95z"/>
	<path d="M216.9,159.9c0.34-1.21,1.23-1.98,2.05-2.78c0.36-0.35,0.84-0.32,1.28-0.04c0.1,0.06,0.2,0.12,0.28,0.21
		c1.32,1.46,2.76,2.82,3.73,4.57c0.31,0.55,0.52,1.16,0.72,1.77c0.08,0.25,0.01,0.55,0.01,0.8c-0.19,0.07-0.31,0.15-0.39,0.13
		c-0.27-0.09-0.56-0.18-0.79-0.34c-2.15-1.37-4.28-2.76-6.56-3.91C217.13,160.27,217.08,160.14,216.9,159.9z"/>
	<path d="M188.11,159.66c0.23-0.26,0.34-0.49,0.52-0.58c1.57-0.87,3.15-1.71,4.73-2.56c0.15-0.08,0.32-0.14,0.49-0.18
		c0.64-0.17,1.15,0.12,1.3,0.79c0.11,0.51,0.18,1.03,0.18,1.55c-0.01,0.73-0.55,1.29-1.29,1.4c-0.17,0.03-0.35,0.03-0.52,0.02
		c-1.5-0.04-3.01-0.07-4.51-0.13C188.74,159.95,188.48,159.79,188.11,159.66z"/>
	<path d="M199.6,207.3c-1.73,0.11-3.12-0.69-4.42-1.69c-0.1-0.08-0.15-0.32-0.1-0.45c0.05-0.13,0.23-0.25,0.38-0.29
		c0.22-0.06,0.46-0.05,0.69-0.07c1.15-0.08,2.3-0.17,3.45-0.22c0.57-0.03,1.16-0.04,1.72,0.06c0.54,0.09,0.93,0.46,1.01,1.05
		c0.08,0.55-0.27,1.12-0.86,1.36c-0.21,0.09-0.44,0.14-0.67,0.16C200.41,207.27,200,207.28,199.6,207.3z"/>
	<path d="M241.92,183.21c-0.26-0.3-0.58-0.63-0.85-0.99c-0.97-1.31-2.01-2.54-3.38-3.46c-0.29-0.19-0.55-0.42-0.8-0.66
		c-0.45-0.42-0.53-0.87-0.25-1.22c0.24-0.3,0.63-0.35,1.1-0.12c1.07,0.51,1.97,1.25,2.63,2.21c0.75,1.09,1.38,2.27,2.01,3.43
		C242.57,182.71,242.51,183.09,241.92,183.21z"/>
	<path d="M236.7,181.53c0.21,0.02,0.35-0.01,0.43,0.04c1.2,0.74,2.23,1.63,2.51,3.12c0.03,0.16,0.02,0.35-0.02,0.51
		c-0.08,0.35-0.26,0.7-0.66,0.67c-0.24-0.01-0.6-0.19-0.69-0.39c-0.43-1.03-1.02-1.93-1.82-2.71c-0.14-0.14-0.23-0.44-0.18-0.62
		C236.35,181.91,236.58,181.7,236.7,181.53z"/>
	<path d="M303.31,162.45c0.55,0.8,1.09,1.6,1.65,2.41c1.58,0.13,3.12,0.4,4.7,0.21c1.15-0.14,2.33-0.06,3.49-0.09
		c5.18-0.14,10.36-0.29,15.54-0.43c1.34-0.03,2.68-0.05,4.02-0.01c0.82,0.02,1.33-0.35,1.64-1.05c0.26-0.57,0.49-1.17,0.72-1.71
		c0.65-0.07,0.74,0.38,0.9,0.74c0.21,0.49,0.37,1,0.15,1.52c-0.44,1.08-0.89,2.14-1.35,3.24c-0.46,0.06-0.86,0.14-1.25,0.15
		c-8.79,0.22-17.58,0.43-26.37,0.64c-0.29,0.01-0.58-0.01-0.87,0.02c-0.66,0.06-1.12-0.22-1.44-0.77c-0.47-0.8-0.95-1.6-1.42-2.41
		C303,164.18,302.92,163.4,303.31,162.45z"/>
	<path d="M314.99,141.84c-1.74-0.1-3.34-0.2-4.86-0.29c-0.45,0.46-0.23,0.86-0.18,1.24c0.13,1.22-0.21,2.31-0.98,3.24
		c-0.87,1.06-2.11,1.08-2.99,0.05c-0.83-0.97-1.13-2.14-1.03-3.41c0.03-0.45,0.1-0.89,0.16-1.4c-1.83-0.29-3.56-0.34-5.3-0.46
		c-1.97-0.14-3.94-0.24-5.92-0.37c-1.02-0.07-1.13-0.18-1.45-1.18c-0.16-0.49-0.35-0.99-0.06-1.59c0.23-0.04,0.51-0.15,0.78-0.13
		c1.56,0.1,3.13,0.22,4.69,0.34c0.58,0.04,1.16,0.07,1.74,0.1c4.46,0.29,8.93,0.58,13.39,0.87c0.23,0.02,0.46,0.06,0.7,0.05
		c0.69,0,1.08,0.38,1.24,1.01C315.06,140.46,315.19,141.03,314.99,141.84z"/>
	<path d="M321.68,138.13c0.25-0.05,0.42-0.09,0.59-0.1c3.94-0.26,7.88-0.51,11.82-0.76c0.52-0.03,1.04-0.06,1.57-0.06
		c0.98,0,1.16,0.14,1.47,1.12c0.16,0.5,0.33,1,0.03,1.62c-1.56,0.36-3.24,0.34-4.89,0.56c0.08,0.86,0.19,1.6,0.22,2.34
		c0.04,0.96-0.28,1.84-0.84,2.61c-0.9,1.25-2.25,1.3-3.22,0.11c-0.65-0.79-0.97-1.72-0.94-2.74c0.01-0.63,0.07-1.25,0.12-1.95
		c-0.9-0.21-1.77-0.05-2.62-0.02c-0.7,0.03-1.39,0.13-2.08,0.16c-0.76,0.03-1.07-0.18-1.24-0.93
		C321.53,139.49,321.22,138.87,321.68,138.13z"/>
	<path d="M320.92,158.45c-0.32-0.09-0.83-0.2-1.32-0.37c-0.48-0.17-0.67-0.68-0.44-1.14c0.12-0.26,0.3-0.49,0.48-0.72
		c0.57-0.74,1.13-1.48,1.71-2.2c0.7-0.86,0.77-1.8,0.35-2.78c-0.4-0.9-0.83-1.79-1.29-2.67c-1.39-2.69-2.57-5.46-3.4-8.38
		c-0.09-0.33-0.22-0.68-0.2-1.01c0.02-0.25,0.21-0.55,0.42-0.69c0.28-0.19,0.56,0.04,0.73,0.28c0.17,0.23,0.31,0.49,0.43,0.75
		c0.43,0.89,0.9,1.76,1.27,2.68c1.1,2.66,2.76,4.97,4.49,7.24c0.53,0.69,1.06,1.39,1.57,2.09c0.5,0.69,0.54,1.39,0.03,2.1
		c-0.95,1.32-1.89,2.65-2.84,3.97C322.48,158.2,321.87,158.47,320.92,158.45z"/>
	<path d="M315.49,177.65c-0.57-0.46-0.75-1.18-0.84-1.92c-0.03-0.25,0.1-0.57,0.24-0.8c0.15-0.24,0.4-0.42,0.61-0.61
		c1.75-1.52,3.5-3.04,5.25-4.55c0.3-0.26,0.63-0.47,0.99-0.72c0.81,0.65,1.01,1.45,0.92,2.35c-0.02,0.21-0.15,0.45-0.31,0.59
		c-2.18,1.89-4.38,3.77-6.58,5.65C315.73,177.68,315.66,177.65,315.49,177.65z"/>
	<path d="M166.86,111.11c-1.62,0.32-3.12,0.46-4.63,0.31c-1.37-0.14-1.45-0.17-1.74-1.47c-0.09-0.38-0.09-0.78-0.15-1.27
		c0.4-0.11,0.71-0.23,1.04-0.29c0.28-0.05,0.58-0.06,0.87-0.07c4.73-0.14,3.21,0.06,7.25-1.56c1.37-0.55,2.79-0.84,4.22-1.08
		c1.32-0.23,2.55,0.27,3.51,1.19c0.67,0.65,0.68,1.55,0.57,2.58c-1.44-0.57-2.77-1.16-4.27-0.83c-1.37,0.3-2.67,0.79-3.89,1.5
		c1.8,2.26,1.94,4.86,0.39,7.12c-0.26,0.38-0.58,0.74-0.94,1.02c-1.08,0.88-2.23,0.66-2.92-0.58c-0.59-1.05-0.82-2.19-0.48-3.37
		c0.24-0.84,0.57-1.65,0.87-2.47C166.63,111.64,166.72,111.45,166.86,111.11z"/>
	<path d="M165.05,135.09c-1.69,2.16-3.2,4.15-4.77,6.09c-0.66,0.81-1.38,1.58-2.18,2.25c-1,0.85-1.87,0.72-2.73-0.26
		c-0.9-1.02-1.4-2.27-1.89-3.51c-0.36-0.92-0.66-1.86-0.97-2.8c-0.39-1.17-0.87-2.28-1.7-3.21c-0.22-0.25-0.38-0.55-0.67-0.99
		c0.78-0.1,1.39-0.23,2-0.24c0.32,0,0.67,0.16,0.95,0.33c0.34,0.21,0.59,0.58,0.94,0.77c0.28,0.15,0.71,0.29,0.96,0.18
		c2.02-0.85,4.01-0.32,5.99,0.13C162.32,134.13,163.65,134.53,165.05,135.09z M153.08,135.5c0.69,1.27,1.34,2.06,2.1,2.78
		c0.63,0.6,1.32,0.76,2.05,0.31c1.03-0.64,2.03-1.34,3.02-2.03c0.15-0.11,0.2-0.36,0.34-0.61c-0.87-0.21-1.62-0.13-2.35,0.02
		c-0.93,0.19-1.84,0.15-2.76-0.04C154.82,135.79,154.14,135.69,153.08,135.5z"/>
	<path d="M152.7,126.67c1.12-3.86,2.25-7.56,3.5-11.49c0.69,1.07,0.71,1.99,0.6,2.87c-0.23,1.9-0.55,3.79-0.85,5.68
		c-0.1,0.62-0.28,1.23-0.43,1.91c1,0.57,1.94,1.1,2.92,1.66c-0.16,0.86-0.46,1.58-1,2.29C155.79,128.74,154.3,127.77,152.7,126.67z"
		/>
	<path d="M425.49,191.27c-0.7-0.02-1.42-0.83-1.36-1.54c0.06-0.7,0.71-1.35,1.36-1.36c0.97-0.01,1.56,0.59,1.5,1.52
		C426.93,190.69,426.28,191.29,425.49,191.27z"/>
	<path d="M56.91,150.26c-0.53-0.05-0.95-0.65-0.9-1.26c0.05-0.6,0.57-1,1.2-0.93c0.51,0.06,1,0.69,0.95,1.24
		C58.13,149.79,57.44,150.32,56.91,150.26z"/>
</g>
<g id="Blanc" class="st0">
	<path class="st2" d="M198.83,200.16c-1.27-0.18-2.79-0.2-4.21-0.84c-2.45-1.09-4.91-2.14-7.39-3.17c-0.72-0.3-1.14-0.77-1.3-1.51
		c-0.11-0.51,0.19-0.99,0.69-1c0.46-0.01,0.94,0,1.38,0.12c3.1,0.85,6.27,1.33,9.44,1.76c1.37,0.19,2.79,0.14,4.18,0.06
		c2.86-0.18,5.63-0.89,8.39-1.64c0.9-0.24,1.78-0.56,2.68-0.78c0.62-0.15,1.26-0.21,1.89-0.29c0.17-0.02,0.35,0.02,0.52,0.06
		c0.71,0.15,1.45,0.78,1.49,1.32c0.05,0.75-0.43,1.2-1.04,1.47c-1.8,0.82-3.63,1.59-5.45,2.38c-0.48,0.21-0.98,0.36-1.47,0.57
		c-2.01,0.85-4.07,1.37-6.28,1.29C201.27,199.92,200.16,200.07,198.83,200.16z"/>
	<path class="st2" d="M153.08,135.5c1.06,0.18,1.73,0.29,2.4,0.42c0.92,0.19,1.83,0.23,2.76,0.04c0.73-0.15,1.48-0.22,2.35-0.02
		c-0.13,0.25-0.19,0.5-0.34,0.61c-0.99,0.7-1.99,1.4-3.02,2.03c-0.73,0.45-1.42,0.29-2.05-0.31
		C154.42,137.56,153.78,136.77,153.08,135.5z"/>
	<path class="st2" d="M310.15,209.49c0.52-0.04,1.1-0.07,1.67-0.13c9.57-0.86,17.02-5.25,22.13-13.43
		c2.32-3.71,3.29-7.82,3.14-12.18c-0.04-1.1-0.22-2.2-0.32-3.3c-0.03-0.39-0.01-0.79-0.01-1.22c0.56-0.27,1.07-0.14,1.58-0.03
		c3.23,0.66,6.25,1.84,9.05,3.57c5.33,3.3,9.85,7.44,13.15,12.82c0.24,0.4,0.5,0.79,0.71,1.21c0.49,0.99,0.6,1.95,0,3
		c-0.46,0.8-0.76,1.7-1.03,2.59c-0.12,0.41-0.04,0.92,0.05,1.36c0.12,0.56,0.33,1.11,0.99,1.5c0.2-0.34,0.41-0.61,0.5-0.91
		c0.93-3.09,3.01-5.21,5.71-6.79c2.64-1.55,5.53-2.46,8.51-3.07c3.72-0.76,7.47-1.17,11.28-1.1c2.62,0.05,5.25,0,7.87,0.01
		c0.39,0,0.77,0.03,1.38,0.06c-0.34,0.45-0.53,0.72-0.75,0.96c-2.62,3.01-3.92,6.55-4.31,10.49c-0.66,6.62,0.85,12.84,3.46,18.85
		c0.37,0.85,0.77,1.69,1.18,2.61c-0.35,0.28-0.63,0.56-0.96,0.77c-7.07,4.34-14.62,7.43-22.83,8.86c-3.64,0.63-7.3,0.84-10.97,0.58
		c-6.19-0.45-11.83-2.45-16.69-6.43c-0.91-0.75-1.81-1.47-2.11-2.69c-0.03-0.13-0.25-0.22-0.38-0.32c-0.04-0.03-0.11,0-0.28,0
		c-0.15,0.3-0.36,0.64-0.5,1c-1.36,3.53-2.72,7.07-4.07,10.6c-2.28,5.99-4.55,11.98-6.82,17.98c-0.27,0.71-0.5,1.43-0.75,2.14
		c-0.8,2.31-1.67,4.59-2.62,6.85c-0.57,1.35-1.44,2.37-2.63,3.18c-1.8,1.22-3.79,2.05-5.82,2.77c-3.81,1.36-7.75,2.1-11.77,2.43
		c-1.51,0.12-3.02,0.2-4.53,0.29c-0.23,0.01-0.46-0.04-0.69-0.07c-0.25-0.6,0.12-1.04,0.31-1.49c1.21-2.78,2.28-5.61,3.17-8.51
		c1.4-4.57,2.48-9.22,3.21-13.95c0.19-1.21,0.4-2.42,0.7-3.6c0.27-1.09,0.38-2.17,0.37-3.28c-0.01-1.04,0.13-2.09,0.19-3.13
		c0.08-1.22,0.2-2.44,0.2-3.66c0.02-8.34,0.01-16.68,0.01-25.02C309.86,210.98,309.73,210.26,310.15,209.49z"/>
	<path class="st2" d="M247.33,179.15c-0.48-0.05-0.5-0.38-0.62-0.64c-0.44-0.95-0.86-1.91-1.31-2.86c-1.53-3.21-3.78-5.86-6.29-8.33
		c-0.33-0.32-0.72-0.6-1.13-0.81c-0.24-0.13-0.56-0.14-0.84-0.12c-0.41,0.03-0.67,0.62-0.44,0.94c0.17,0.23,0.38,0.43,0.59,0.64
		c1.1,1.13,2.19,2.26,3.3,3.37c2.47,2.48,4.09,5.5,5.5,8.66c0.26,0.59,0.5,1.18,0.75,1.77c0.18,0.43,0.05,0.79-0.36,1.17
		c-0.37-0.8-0.73-1.57-1.09-2.34c-1.22-2.61-2.78-4.99-4.89-6.97c-0.59-0.56-1.23-1.07-1.88-1.56c-0.27-0.21-0.6-0.36-0.92-0.48
		c-0.49-0.18-0.97,0.24-0.83,0.76c0.1,0.37,0.3,0.76,0.57,1.04c0.52,0.54,1.1,1.05,1.7,1.51c1.31,1.01,2.35,2.27,3.24,3.64
		c1.14,1.76,2.2,3.57,3.27,5.37c0.43,0.73,0.4,0.75,0.15,2.06c-0.55-0.14-1.1-0.27-1.62-0.4c-0.35,0.26-0.22,0.52-0.02,0.74
		c0.42,0.49,0.88,0.94,1.27,1.44c1.39,1.8,1.73,3.8,1,5.94c-0.32,0.93-0.74,1.85-1.28,2.66c-1.71,2.55-4.18,3.6-7.21,3.43
		c-0.34-0.02-0.68-0.08-1.08-0.13c-0.59,0.82-1.17,1.62-1.75,2.42c-3.16,4.32-6.86,8.08-11.35,11.03c-0.63,0.41-1.3,0.77-1.94,1.19
		c-0.37,0.25-0.81,0.46-0.85,1.1c1.13,0.61,2.27,0.18,3.34-0.11c1.11-0.3,2.15-0.85,3.21-1.29c0.35,0.24,0.2,0.52,0.1,0.78
		c-0.51,1.39-1.33,2.58-2.36,3.64c-1.66,1.69-3.65,2.89-5.75,3.91c-3.14,1.52-6.43,2.4-9.96,2.18c-1.11-0.07-2.19-0.22-3.32-0.94
		c0.34-0.17,0.55-0.34,0.77-0.37c0.98-0.15,1.97-0.24,2.95-0.39c0.97-0.15,1.95-0.33,2.73-0.97c-0.08-0.59-0.5-0.45-0.81-0.42
		c-2.83,0.33-5.58-0.11-8.28-0.89c-2.07-0.6-4.06-1.45-5.97-2.46c-5.52-2.9-10.09-6.87-13.53-12.11c-0.99-1.52-1.73-3.16-2.35-4.87
		c-0.84-2.3-1.72-4.58-2.3-6.96c-1.39-5.68-1.66-11.38-0.69-17.16c1.19-7.09,4-13.48,7.96-19.41c0.5-0.75,1.04-1.24,2.01-1.47
		c2.01-0.48,3.77-1.48,5.16-3.09c1.34-1.54,2.77-3,4.17-4.48c0.48-0.51,1-0.98,1.5-1.46c0.99-0.95,2.16-1.11,3.4-0.69
		c0.71,0.24,1.38,0.61,2.05,0.95c0.42,0.21,0.79,0.5,1.21,0.7c1.23,0.59,2.5,0.95,3.88,0.56c0.84-0.24,1.71-0.39,2.52-0.7
		c1.15-0.45,2.32-0.73,3.52-0.97c1.51-0.3,2.89-0.03,4.25,0.57c1.52,0.68,2.75,1.74,3.83,2.98c0.34,0.4,0.65,0.82,0.99,1.22
		c0.89,1.08,2.03,1.51,3.42,1.29c2.42-0.37,4.83-0.75,7.25-1.11c0.46-0.07,0.92-0.12,1.39-0.14c0.97-0.06,1.83,0.27,2.62,0.81
		c2.2,1.52,2.8,5.19,1.2,7.33c-0.68,0.9-1.55,1.57-2.53,2.12c-0.45,0.26-0.91,0.52-1.32,0.84c-0.43,0.33-0.46,0.85-0.07,1.21
		c0.29,0.28,0.64,0.5,0.96,0.76c1.32,1.06,2.68,2.06,3.93,3.19c2.2,1.99,3.83,4.39,4.68,7.25c0.28,0.94,0.41,1.93,0.58,2.91
		C247.38,178.46,247.33,178.8,247.33,179.15z M185.77,199.11c0.17-0.57,0.28-1.01,0.43-1.44c0.14-0.4,0.59-0.62,0.99-0.44
		c0.42,0.19,0.81,0.45,1.19,0.71c1.83,1.25,3.63,2.52,5.67,3.42c2.61,1.14,5.28,1.81,8.14,1.45c1.81-0.23,3.51-0.82,5.19-1.47
		c2.67-1.02,5.2-2.33,7.66-3.78c0.45-0.27,0.89-0.57,1.37-0.76c1.04-0.42,1.92,0.21,1.87,1.3c-0.02,0.46-0.14,0.92-0.17,1.39
		c-0.01,0.28,0.04,0.58,0.14,0.84c0.04,0.12,0.24,0.22,0.39,0.26c0.08,0.02,0.23-0.06,0.29-0.14c0.13-0.19,0.25-0.4,0.31-0.62
		c0.51-1.73,1.01-3.46,1.49-5.2c0.24-0.86,0.01-1.59-0.71-2.18c-1.94-1.58-3.86-3.19-5.8-4.77c-0.2-0.16-0.48-0.23-0.82-0.38
		c-0.17,0.86,0.14,1.49,0.33,2.14c0.3,1.04,0,1.68-0.98,2.11c-0.26,0.12-0.55,0.19-0.83,0.26c-2.77,0.69-5.53,1.4-8.3,2.04
		c-2.34,0.55-4.72,0.71-7.11,0.38c-1.61-0.22-3.22-0.51-4.81-0.85c-1.31-0.27-2.6-0.62-3.88-0.99c-1.2-0.35-1.44-0.76-1.37-2.03
		c0.02-0.28,0-0.55,0-1.01c-0.41,0.18-0.7,0.24-0.88,0.41c-0.71,0.69-1.39,1.41-2.07,2.13c-0.83,0.86-0.95,1.82-0.38,2.87
		c0.69,1.28,1.36,2.57,2.06,3.85C185.28,198.79,185.5,198.89,185.77,199.11z M198.92,187.4c0.31-0.06,0.72-0.12,1.11-0.23
		c0.69-0.19,0.91-0.69,0.54-1.34c-0.39-0.71-0.8-1.43-1.3-2.06c-1.17-1.49-1.17-2.93-0.07-4.47c0.75-1.04,1.37-2.16,2.04-3.25
		c1.28-2.08,2.46-4.22,3.26-6.54c0.15-0.42,0.18-0.89,0.21-1.34c0.01-0.26-0.45-0.49-0.66-0.35c-0.24,0.16-0.49,0.33-0.65,0.55
		c-0.29,0.43-0.52,0.9-0.78,1.36c-1.01,1.84-2.07,3.64-3.48,5.21c-1.44,1.6-2.86,3.22-4.27,4.84c-0.8,0.91-0.86,1.46-0.29,2.52
		c0.35,0.67,0.73,1.32,1.11,1.98c0.4,0.71,0.81,1.41,1.23,2.1C197.37,187.08,198.01,187.41,198.92,187.4z M219.59,171.77
		c-0.03-0.23-0.04-0.83-0.21-1.38c-0.28-0.89-0.61-1.84-1.75-1.92c-1.03-0.07-1.56,0.7-1.98,1.47c-0.8,1.49-1.01,3.09-0.69,4.74
		c0.11,0.56,0.33,1.13,0.62,1.62c0.6,1.03,1.64,1.16,2.47,0.3c0.4-0.41,0.72-0.92,0.97-1.43
		C219.5,174.22,219.61,173.17,219.59,171.77z M192.53,169.95c-0.08-0.35-0.18-1.04-0.39-1.7c-0.25-0.79-0.62-1.56-1.58-1.66
		c-0.94-0.1-1.5,0.52-1.93,1.25c-1.1,1.87-1.2,3.85-0.57,5.88c0.12,0.37,0.38,0.72,0.64,1.02c0.55,0.61,1.42,0.68,2.03,0.14
		c0.38-0.34,0.72-0.77,0.96-1.22C192.25,172.61,192.49,171.47,192.53,169.95z M216.9,159.9c0.18,0.23,0.23,0.36,0.32,0.41
		c2.28,1.15,4.42,2.54,6.56,3.91c0.24,0.15,0.52,0.25,0.79,0.34c0.08,0.03,0.2-0.06,0.39-0.13c0-0.25,0.07-0.55-0.01-0.8
		c-0.2-0.6-0.41-1.21-0.72-1.77c-0.96-1.75-2.41-3.11-3.73-4.57c-0.08-0.08-0.18-0.14-0.28-0.21c-0.44-0.28-0.92-0.31-1.28,0.04
		C218.13,157.93,217.25,158.7,216.9,159.9z M188.11,159.66c0.37,0.13,0.63,0.29,0.89,0.31c1.5,0.06,3.01,0.09,4.51,0.13
		c0.17,0,0.35,0,0.52-0.02c0.74-0.12,1.29-0.67,1.29-1.4c0.01-0.52-0.07-1.04-0.18-1.55c-0.15-0.67-0.66-0.96-1.3-0.79
		c-0.17,0.04-0.33,0.1-0.49,0.18c-1.58,0.85-3.16,1.69-4.73,2.56C188.45,159.17,188.34,159.39,188.11,159.66z M199.6,207.3
		c0.4-0.02,0.81-0.04,1.21-0.08c0.23-0.02,0.46-0.07,0.67-0.16c0.59-0.24,0.94-0.81,0.86-1.36c-0.08-0.59-0.48-0.95-1.01-1.05
		c-0.56-0.1-1.15-0.09-1.72-0.06c-1.15,0.05-2.3,0.14-3.45,0.22c-0.23,0.02-0.47,0.01-0.69,0.07c-0.15,0.04-0.33,0.16-0.38,0.29
		c-0.05,0.12,0.01,0.37,0.1,0.45C196.48,206.62,197.87,207.41,199.6,207.3z M241.92,183.21c0.59-0.12,0.64-0.5,0.47-0.81
		c-0.63-1.16-1.26-2.34-2.01-3.43c-0.66-0.96-1.57-1.7-2.63-2.21c-0.48-0.23-0.86-0.18-1.1,0.12c-0.28,0.35-0.2,0.8,0.25,1.22
		c0.25,0.24,0.52,0.47,0.8,0.66c1.36,0.92,2.41,2.15,3.38,3.46C241.34,182.58,241.66,182.91,241.92,183.21z M236.7,181.53
		c-0.13,0.18-0.35,0.38-0.42,0.62c-0.05,0.18,0.04,0.49,0.18,0.62c0.79,0.78,1.38,1.68,1.82,2.71c0.08,0.2,0.44,0.38,0.69,0.39
		c0.4,0.02,0.58-0.32,0.66-0.67c0.04-0.16,0.05-0.35,0.02-0.51c-0.28-1.48-1.31-2.37-2.51-3.12
		C237.05,181.52,236.91,181.54,236.7,181.53z"/>
	<path class="st2" d="M301.73,188.03c1.53,1.35,3.55,1.81,5.53,2.84c-0.4,0.15-0.58,0.27-0.77,0.29c-2.44,0.19-4.75-0.4-6.94-1.4
		c-2.84-1.3-5.33-3.1-7.44-5.42c-1.31-1.44-2.3-3.07-2.85-4.96c-0.16-0.55-0.28-1.09-0.09-1.81c1.6,1.06,2.98,2.26,4.76,2.71
		c0.33,0.08,0.69,0.09,1.03,0.1c0.09,0,0.17-0.12,0.28-0.19c-0.04-0.74-0.61-1.06-1.13-1.43c-1.54-1.07-2.94-2.29-4.2-3.68
		c-2.48-2.73-4.09-5.92-5.23-9.4c-0.34-1.05-0.78-2.06-1.2-3.15c-0.72-0.16-1.39-0.31-2.07-0.46c-0.98-0.22-1.85-0.63-2.53-1.43
		c-0.56-0.67-1.21-1.26-1.81-1.9c-1.72-1.81-2.54-5.64,0-8.47c0.77-0.86,1.24-1,2.31-0.44c0.81,0.43,1.58,0.99,2.26,1.61
		c1.73,1.59,3.02,3.54,4.31,5.48c0.61,0.92,1.19,1.85,1.89,2.92c0.16-0.35,0.31-0.54,0.32-0.73c0.04-1.17-0.1-2.3-0.63-3.39
		c-1.12-2.31-1.95-4.74-2.55-7.24c-0.67-2.78-1.03-5.6-0.81-8.49c0.15-1.96,0.71-3.77,1.72-5.44c0.48-0.8,0.93-1.61,1.45-2.39
		c0.86-1.3,1.25-2.74,1.39-4.27c0.06-0.7,0.14-1.39,0.22-2.09c0.29-2.31,1.37-4.2,3.19-5.63c0.82-0.64,1.72-1.23,2.68-1.62
		c2.75-1.14,5.58-2.04,8.55-2.36c0.45-0.05,0.93-0.02,1.36,0.09c1.24,0.32,2.43,0.78,3.54,1.44c2.36,1.39,4.82,2.62,7.5,3.28
		c2.55,0.63,5.13,0.99,7.78,0.62c1.96-0.27,3.92-0.51,5.79-1.22c1.25-0.47,2.5-0.92,3.62-1.7c1.21-0.85,1.75-1.01,3.22,0.34
		c0.86,0.8,1.58,1.74,2.05,2.81c0.54,1.22,1.11,2.46,1.42,3.75c0.68,2.83,1.28,5.68,1.53,8.59c0.21,2.32,0.48,4.64,0.79,6.95
		c0.47,3.42,0.64,6.85,0.53,10.29c-0.3,9.26-3.22,17.58-8.98,24.87c-5.05,6.4-11.59,10.33-19.63,11.72
		c-1.43,0.25-2.88,0.43-4.32,0.56c-1.75,0.16-3.49,0.01-5.2-0.44c-0.83-0.22-1.69-0.34-2.53-0.5
		C301.8,187.79,301.77,187.91,301.73,188.03z M303.31,162.45c-0.39,0.94-0.31,1.73,0.11,2.46c0.47,0.81,0.95,1.6,1.42,2.41
		c0.32,0.56,0.79,0.83,1.44,0.77c0.29-0.03,0.58-0.01,0.87-0.02c8.79-0.21,17.58-0.42,26.37-0.64c0.4-0.01,0.79-0.09,1.25-0.15
		c0.46-1.1,0.91-2.17,1.35-3.24c0.21-0.53,0.06-1.04-0.15-1.52c-0.15-0.36-0.25-0.8-0.9-0.74c-0.23,0.55-0.45,1.14-0.72,1.71
		c-0.32,0.69-0.82,1.07-1.64,1.05c-1.34-0.04-2.68-0.02-4.02,0.01c-5.18,0.13-10.36,0.28-15.54,0.43c-1.16,0.03-2.34-0.04-3.49,0.09
		c-1.59,0.19-3.13-0.08-4.7-0.21C304.4,164.05,303.85,163.25,303.31,162.45z M314.99,141.84c0.2-0.82,0.07-1.38-0.07-1.94
		c-0.16-0.63-0.54-1.01-1.24-1.01c-0.23,0-0.46-0.04-0.7-0.05c-4.46-0.29-8.93-0.58-13.39-0.87c-0.58-0.04-1.16-0.06-1.74-0.1
		c-1.56-0.11-3.13-0.24-4.69-0.34c-0.27-0.02-0.55,0.09-0.78,0.13c-0.29,0.61-0.09,1.1,0.06,1.59c0.32,1,0.43,1.11,1.45,1.18
		c1.97,0.14,3.95,0.23,5.92,0.37c1.73,0.12,3.47,0.18,5.3,0.46c-0.06,0.51-0.13,0.95-0.16,1.4c-0.09,1.27,0.21,2.43,1.03,3.41
		c0.88,1.04,2.12,1.01,2.99-0.05c0.77-0.94,1.11-2.03,0.98-3.24c-0.04-0.39-0.26-0.78,0.18-1.24
		C311.65,141.65,313.25,141.74,314.99,141.84z M321.68,138.13c-0.45,0.73-0.15,1.36-0.02,1.96c0.17,0.75,0.47,0.96,1.24,0.93
		c0.7-0.03,1.39-0.13,2.08-0.16c0.85-0.03,1.72-0.19,2.62,0.02c-0.04,0.7-0.1,1.32-0.12,1.95c-0.02,1.03,0.3,1.95,0.94,2.74
		c0.97,1.19,2.32,1.14,3.22-0.11c0.55-0.77,0.88-1.64,0.84-2.61c-0.03-0.74-0.14-1.48-0.22-2.34c1.65-0.23,3.33-0.2,4.89-0.56
		c0.29-0.62,0.12-1.12-0.03-1.62c-0.31-0.97-0.49-1.12-1.47-1.12c-0.52,0-1.05,0.02-1.57,0.06c-3.94,0.25-7.88,0.5-11.82,0.76
		C322.09,138.04,321.93,138.09,321.68,138.13z M320.92,158.45c0.95,0.02,1.56-0.26,2-0.87c0.95-1.32,1.9-2.65,2.84-3.97
		c0.51-0.71,0.47-1.41-0.03-2.1c-0.51-0.7-1.04-1.4-1.57-2.09c-1.73-2.27-3.39-4.58-4.49-7.24c-0.38-0.91-0.84-1.79-1.27-2.68
		c-0.13-0.26-0.26-0.52-0.43-0.75c-0.18-0.23-0.46-0.46-0.73-0.28c-0.21,0.14-0.4,0.45-0.42,0.69c-0.03,0.33,0.1,0.68,0.2,1.01
		c0.82,2.92,2.01,5.69,3.4,8.38c0.45,0.88,0.89,1.77,1.29,2.67c0.43,0.98,0.36,1.92-0.35,2.78c-0.59,0.72-1.15,1.46-1.71,2.2
		c-0.18,0.23-0.35,0.46-0.48,0.72c-0.22,0.47-0.03,0.98,0.44,1.14C320.09,158.26,320.6,158.37,320.92,158.45z M315.49,177.65
		c0.17,0,0.24,0.02,0.28,0c2.2-1.88,4.4-3.75,6.58-5.65c0.16-0.14,0.29-0.38,0.31-0.59c0.09-0.9-0.1-1.7-0.92-2.35
		c-0.35,0.26-0.69,0.47-0.99,0.72c-1.76,1.51-3.5,3.03-5.25,4.55c-0.22,0.19-0.46,0.37-0.61,0.61c-0.14,0.23-0.28,0.54-0.24,0.8
		C314.74,176.47,314.92,177.19,315.49,177.65z"/>
	<path class="st2" d="M232,210.12c2.31,0.55,4.44,0.93,6.49,1.89c0.11,0.26,0.3,0.56,0.36,0.89c0.91,5.03-0.11,9.6-3.26,13.67
		c-1.92,2.48-4.27,4.47-6.98,6c-3.26,1.84-6.69,3.28-10.44,3.84c-0.34,0.05-0.68,0.15-1.02,0.23c-1.14,0.27-1.78,0.95-1.97,2.15
		c-0.84,5.35-1.8,10.69-2.58,16.04c-0.53,3.63-0.85,7.29-1.28,10.94c-0.61,5.21-0.86,10.45-1.09,15.7
		c-0.04,0.81-0.11,1.63-0.18,2.44c-0.14,1.52-0.12,3.03,0.23,4.52c0.11,0.45,0.24,0.9,0.39,1.34c0.56,1.61,1.71,2.46,3.41,2.52
		c1.11,0.04,2.22,0.01,3.32-0.03c1.69-0.06,3.37-0.17,5.06-0.24c6.71-0.27,13.16-1.65,19.23-4.6c1.2-0.58,2.31-1.35,3.47-2.03
		c0.29-0.17,0.58-0.35,0.82-0.49c0.44,0.19,0.37,0.52,0.39,0.79c0.13,2.04,0.2,4.08,0.37,6.11c0.25,2.96,0.56,5.91,0.84,8.87
		c0.07,0.69,0.13,1.38,0.19,2.08c-2.64,1.57-5.38,2.7-8.21,3.62c-5.73,1.87-11.63,2.87-17.61,3.52c-3.67,0.4-7.34,0.34-11,0.2
		c-3.03-0.12-6.03-0.58-9-1.19c-4.69-0.97-9.27-2.3-13.67-4.22c-3.92-1.71-7.6-3.82-10.77-6.74c-0.73-0.67-1.39-1.41-2.09-2.12
		c0.03-0.57,0.01-1.1,0.08-1.61c0.71-4.88,1.43-9.77,2.15-14.66c0.66-0.06,0.93,0.37,1.27,0.64c2.24,1.78,4.45,3.6,6.94,5
		c1.27,0.71,2.58,1.34,3.9,1.96c0.47,0.22,0.99,0.39,1.5,0.45c0.37,0.05,0.76-0.12,1.16-0.19c0.15-1.32,0.31-2.53,0.43-3.75
		c0.36-3.54,0.73-7.07,1.07-10.61c0.26-2.73,0.68-5.43,1.16-8.13c1.47-8.2,3.33-16.32,5.44-24.38c0.15-0.56,0.31-1.13,0.39-1.7
		c0.17-1.21-0.09-2.52-1.51-3.22c-1.57-0.77-3.08-1.65-4.6-2.52c-2.18-1.25-3.82-3.02-4.93-5.29c-0.97-1.97-0.99-4.07-0.75-6.17
		c0.2-1.78,0.65-3.53,1.34-5.31c0.33,0.13,0.6,0.2,0.84,0.33c1.48,0.81,2.94,1.67,4.43,2.45c0.5,0.26,0.84,0.58,1.09,1.07
		c2.5,4.76,6.67,6.79,11.83,7.12c2.86,0.19,5.7,0.04,8.47-0.84c3.9-1.24,7.34-3.24,10.25-6.14c2.53-2.52,3.99-5.56,4.37-9.11
		C231.77,210.9,231.89,210.58,232,210.12z"/>
	<path class="st2" d="M160.62,157.33c0.15,0.58,0.28,1.08,0.42,1.64c-0.41,0.38-0.79,0.73-1.16,1.08c-0.94,0.88-1.79,1.84-2.39,2.99
		c-0.77,1.46-0.98,2.98-0.33,4.55c0.46,1.12,1.19,2,2.3,2.53c0.47,0.22,0.94,0.43,1.52,0.69c-0.22,0.88-0.42,1.72-0.63,2.55
		c-0.9,3.56-1.49,7.18-1.89,10.83c-0.38,3.44-0.37,6.87-0.21,10.3c0.13,2.91,0.54,5.8,1.11,8.66c0.95,4.8,1.98,9.58,2.9,14.38
		c0.37,1.94,0.57,3.92,0.81,5.89c0.3,2.48,0.54,4.98,0.84,7.46c0.14,1.18-0.06,2.31-0.3,3.44c-0.23,0.04-0.4,0.11-0.57,0.09
		c-3.09-0.39-6.05-1.19-8.81-2.67c-3.41-1.82-6.2-5.14-6.97-8.55c0.73-1.18,1.55-2.44,2.3-3.75c0.52-0.9,1.05-1.82,1.41-2.8
		c1.15-3.12,0.95-6.3,0.18-9.47c-0.37-1.54-1-2.98-1.71-4.39c-0.29-0.57-0.59-1.13-0.95-1.83c0.39-0.09,0.7-0.21,1.01-0.21
		c1.36,0.01,2.66-0.32,3.92-0.78c0.64-0.23,0.82-0.54,0.74-1.19c-0.04-0.29-0.09-0.58-0.18-0.85c-0.24-0.75-0.61-1.16-1.55-0.98
		c-1.32,0.25-2.66,0.35-3.97,0.61c-0.61,0.12-1.15,0.04-1.7-0.14c-1.1-0.37-2.22-0.7-3.31-1.12c-1.39-0.53-2.43-1.58-3.49-2.57
		c-0.68-0.64-1.22-1.39-1.61-2.26c-0.59-1.33-1.24-2.64-1.84-3.96c-0.18-0.41-0.28-0.86-0.42-1.3c0.25-0.21,0.41-0.39,0.6-0.5
		c3.25-1.91,5.69-4.63,7.62-7.81c1.3-2.14,2.37-4.41,3.61-6.59c0.73-1.29,0.54-2.43-0.38-3.65c-0.23,0.21-0.49,0.35-0.6,0.56
		c-0.92,1.75-1.8,3.53-2.72,5.28c-1.25,2.4-2.8,4.56-4.94,6.27c-1.41,1.13-2.81,2.27-4.22,3.4c-0.46,0.37-0.64,0.8-0.5,1.38
		c0.13,0.56,0.21,1.13,0.33,1.78c-0.41,0.2-0.75,0.43-1.12,0.53c-4.55,1.25-9.1,2.48-13.65,3.71c-0.45,0.12-0.91,0.22-1.37,0.25
		c-2.39,0.12-4.77,0.21-7.16,0.3c-1.86,0.07-3.74,0.05-5.59,0.23c-2.55,0.25-4.98-0.19-7.4-0.9c-5.11-1.51-9.94-3.68-14.55-6.32
		c-2.32-1.33-4.56-2.82-6.83-4.25c-0.38-0.24-0.72-0.55-1.13-0.87c0.15-0.26,0.24-0.47,0.37-0.65c1.97-2.54,2.74-5.49,3.01-8.62
		c0.04-0.51-0.01-1.05-0.13-1.56c-0.15-0.63,0.01-1.14,0.4-1.71c2.06,0.02,4.12,0.43,6.18,0.74c2.01,0.3,4.01,0.75,5.98,1.23
		c2.03,0.5,4.06,1.06,6.05,1.71c1.94,0.63,3.86,1.33,5.73,2.12c1.93,0.81,3.81,1.74,5.69,2.67c1.81,0.89,3.47,2.06,5.24,3.02
		c0.56-1.03-0.06-1.84-0.1-2.76c0.27-0.33,0.55-0.7,0.86-1.04c6.51-7.07,14.2-12.39,23.28-15.62c5.86-2.09,11.88-2.85,18.06-1.96
		C157.96,156.75,159.21,157.05,160.62,157.33z"/>
	<path class="st2" d="M308.18,237.53c-1.24-0.96-1.77-2.23-3.07-2.7c-1.26-0.45-2.51-0.39-3.81-0.16c-0.5-0.42-0.49-1.03-0.61-1.58
		c-0.33-1.48-0.74-2.94-1.41-4.31c-0.65-1.32-1.48-2.5-2.66-3.42c-0.76-0.59-1.58-0.95-2.57-0.95c-2.04,0-4.08-0.04-6.12-0.08
		c-0.7-0.01-1.41,0.04-2.09-0.06c-1.2-0.18-2.31,0.06-3.42,0.46c-1.53,0.55-3.09,1.06-4.45,2c-1.16,0.8-2.35,0.77-3.66,0.32
		c-3.36-1.14-6.73-2.25-10.13-3.27c-1.95-0.58-3.95-0.99-5.95-1.38c-1.14-0.22-2.03-0.74-2.85-1.56c-2.73-2.71-5.69-5.17-8.88-7.34
		c-3.19-2.18-6.59-3.95-10.25-5.21c-0.42-0.15-0.83-0.33-1.37-0.55c1.64-1.89,3.2-3.68,4.82-5.55c0.31-0.02,0.72-0.08,1.12-0.07
		c2.03,0.05,3.76-0.69,5.26-2.01c1.78-1.57,3.08-3.5,3.85-5.74c0.6-1.75,0.64-3.55,0.06-5.33c-0.43-1.3-0.79-1.77-1.93-2.63
		c2.33-2.85,3.47-6.28,4.65-9.68c0.66-1.92,1.3-3.85,1.99-5.87c0.35-0.07,0.74-0.21,1.13-0.22c2.68-0.06,5.36-0.18,8.04-0.12
		c3.55,0.08,7.1,0.3,10.64,0.47c0.22,0.01,0.44,0.09,0.67,0.14c0.38,0.78,0.12,1.53,0.04,2.26c-0.24,2.04-0.25,4.07-0.05,6.11
		c0.49,4.79,2.13,9.17,4.73,13.2c3.71,5.75,8.5,10.33,14.74,13.28c3.55,1.68,7.25,2.86,11.2,3.15c0.81,0.06,1.61,0.21,2.36,0.31
		c0.37,1.17,0.7,7.5,0.61,14.01C308.75,228.07,308.72,232.67,308.18,237.53z"/>
	<path class="st2" d="M146.81,105.93c1.2,0.59,2.08,1.5,2.98,2.32c-0.05,0.2-0.04,0.34-0.1,0.41c-1.6,1.58-1.89,3.55-1.62,5.66
		c0.06,0.5,0.27,1.02,0.54,1.45c0.69,1.09,1.86,1.26,2.84,0.4c0.47-0.42,0.86-0.95,1.17-1.5c0.54-0.98,0.82-2.05,0.77-3.19
		c-0.02-0.46,0-0.93,0-1.44c1.02-0.48,1.73-1.25,2.05-2.51c-0.96-0.37-1.89-0.67-2.76-1.08c-0.84-0.4-1.64-0.88-2.4-1.42
		c-0.8-0.57-1.53-1.24-2.24-1.82c0.26-1.64,1.57-4.22,3.49-6.87c1.89-2.6,4.02-4.96,6.74-6.8c0.35,0.27,0.65,0.45,0.88,0.7
		c1.27,1.44,2.91,2.33,4.64,3.04c1.77,0.73,3.59,1.36,5.4,2c1.75,0.63,3.52,1.21,5.27,1.85c3,1.09,5.35,3.05,7.17,5.64
		c1.73,2.47,2.89,5.17,3.2,8.21c0.09,0.92,0.3,1.84,0.51,2.75c0.07,0.32,0.29,0.6,0.5,1c0.42-0.32,0.74-0.54,1.04-0.78
		c0.68-0.55,1.33-1.13,2.04-1.64c0.42-0.31,0.89-0.56,1.37-0.77c2.42-1.05,4.42-0.04,5.03,2.56c0.44,1.88,0.15,3.71-0.62,5.46
		c-1.08,2.47-2.82,4.39-5.01,5.93c-0.19,0.13-0.38,0.27-0.59,0.38c-1.72,0.89-1.78,0.94-1.03,3.03c0.62,1.72,1.04,3.44,0.98,5.29
		c-0.04,1.08-0.24,2.1-0.88,2.96c-0.48,0.65-0.63,1.35-0.61,2.13c-1.09-0.45-1.47-1-1.21-1.96c0.21-0.78,0.59-1.52,0.88-2.28
		c0.22-0.58,0.67-1.08,0.66-1.85c-0.31,0-0.62-0.08-0.85,0.01c-2.79,1.15-5.24,2.8-7.03,5.29c-1.12,1.55-1.56,3.37-1.75,5.25
		c-0.04,0.4-0.05,0.81-0.08,1.27c-1.03,0.86-2.26,1.39-3.46,1.97c-2.52,1.22-5.15,2.19-7.91,2.72c-2.29,0.44-4.57,0.75-6.93,0.33
		c-2.75-0.49-5.03-1.77-6.99-3.68c-2.07-2.02-3.58-4.43-4.76-7.06c-1.62-3.59-2.49-7.39-3.13-11.24c-0.69-4.22-0.83-8.46-0.35-12.72
		c0.33-2.9,0.96-5.74,1.8-8.54C146.51,106.51,146.66,106.26,146.81,105.93z M166.86,111.11c-0.14,0.34-0.22,0.53-0.3,0.73
		c-0.3,0.82-0.63,1.63-0.87,2.47c-0.34,1.18-0.11,2.32,0.48,3.37c0.7,1.24,1.84,1.46,2.92,0.58c0.36-0.29,0.68-0.65,0.94-1.02
		c1.55-2.26,1.41-4.86-0.39-7.12c1.22-0.71,2.52-1.2,3.89-1.5c1.49-0.33,2.82,0.26,4.27,0.83c0.11-1.03,0.1-1.93-0.57-2.58
		c-0.96-0.93-2.19-1.42-3.51-1.19c-1.42,0.24-2.85,0.53-4.22,1.08c-4.04,1.62-2.52,1.43-7.25,1.56c-0.29,0.01-0.59,0.01-0.87,0.07
		c-0.33,0.06-0.64,0.17-1.04,0.29c0.05,0.49,0.06,0.89,0.15,1.27c0.3,1.3,0.37,1.33,1.74,1.47
		C163.74,111.57,165.24,111.44,166.86,111.11z M165.05,135.09c-1.4-0.56-2.73-0.96-4.08-1.26c-1.97-0.45-3.96-0.98-5.99-0.13
		c-0.26,0.11-0.68-0.03-0.96-0.18c-0.35-0.19-0.6-0.55-0.94-0.77c-0.28-0.18-0.63-0.34-0.95-0.33c-0.61,0.01-1.22,0.14-2,0.24
		c0.29,0.44,0.46,0.74,0.67,0.99c0.82,0.94,1.31,2.05,1.7,3.21c0.31,0.94,0.62,1.88,0.97,2.8c0.48,1.25,0.99,2.49,1.89,3.51
		c0.86,0.98,1.73,1.1,2.73,0.26c0.79-0.67,1.52-1.44,2.18-2.25C161.85,139.24,163.36,137.25,165.05,135.09z M152.7,126.67
		c1.6,1.1,3.09,2.06,4.73,2.93c0.53-0.71,0.83-1.43,1-2.29c-0.97-0.55-1.92-1.09-2.92-1.66c0.16-0.68,0.33-1.29,0.43-1.91
		c0.31-1.89,0.62-3.78,0.85-5.68c0.11-0.88,0.1-1.8-0.6-2.87C154.95,119.12,153.82,122.81,152.7,126.67z"/>
	<path class="st2" d="M268.67,238.44c0.22-0.34,0.32-0.56,0.47-0.73c1.43-1.69,3-3.25,4.66-4.72c2.49-2.21,5.45-3.54,8.49-4.75
		c2.28-0.9,4.6-1.65,7.07-1.84c1.95-0.14,3.83,0.08,5.66,0.79c1.36,0.53,2.39,1.41,3.15,2.64c1.04,1.67,1.48,3.52,1.74,5.33
		c-0.87,1.02-1.74,1.89-2.42,2.88c-0.69,1.01-1.03,2.21-1.22,3.47c-0.2-0.03-0.43,0.01-0.52-0.09c-1.13-1.18-2.52-1.85-4.1-2.19
		c-0.17-0.04-0.33-0.12-0.56-0.2c-0.46-0.65-0.22-1.76-1.28-2.2c-1.05,0.62-1.89,1.58-2.75,2.51c-0.17,0.18-0.17,0.55-0.18,0.83
		c-0.01,0.56,0.07,0.72,0.71,1.87c0.33,0,0.73,0,1.12,0c0.99-0.01,1.99-0.1,2.97-0.01c0.86,0.07,1.72,0.29,2.55,0.54
		c0.93,0.28,1.62,0.89,2.02,1.8c0.18,0.4,0.25,0.92,0.81,1.03c0.48-0.26,0.3-0.72,0.33-1.09c0.17-1.93,0.9-3.62,2.25-5
		c1.65-1.68,3.63-2.25,5.91-1.5c1.59,0.52,2.52,1.77,2.41,3.44c-0.09,1.39-0.22,2.8-0.57,4.14c-0.43,1.65-1.31,3.12-2.51,4.35
		c-2.5,2.58-5.47,4.29-9.1,4.77c-2.37,0.31-4.72,0.74-7.07,1.13c-0.23,0.04-0.48,0.09-0.65,0.22c-0.16,0.13-0.36,0.39-0.33,0.55
		c0.1,0.62,0.25,1.25,0.47,1.84c0.08,0.22,0.41,0.4,0.67,0.48c0.26,0.08,0.58,0.04,0.87,0.03c2.39-0.12,4.75-0.45,7.04-1.17
		c0.94-0.3,1.92-0.44,2.89-0.63c0.21-0.04,0.44,0.03,0.77,0.06c-0.18,1.96-0.81,3.67-1.82,5.25c-1.48,2.33-3.66,3.73-6.28,4.41
		c-1.41,0.37-2.85,0.59-4.33,0.5c-0.99-0.06-1.98-0.04-2.97-0.04c-0.34,0-0.67,0.08-1.01,0.13c-0.26,0.87,0.08,1.55,0.37,2.24
		c0.15,0.36,0.45,0.53,0.82,0.56c1.16,0.08,2.32,0.16,3.49,0.2c1.05,0.03,2.1-0.02,3.15-0.02c0.27,0,0.54,0.07,0.76,0.1
		c0.15,0.46-0.11,0.65-0.29,0.85c-1.06,1.21-2.34,2.08-3.83,2.67c-2.37,0.94-4.83,1.27-7.36,1.15c-0.34-0.02-0.67-0.14-1.1-0.24
		c-0.8-6.38-1.91-12.67-3.83-18.8C274.31,249.9,271.83,244.07,268.67,238.44z"/>
	<path class="st2" d="M183.59,137.52c0.56,3.35,2.67,5.14,5.83,5.14c1.89,0,3.53-0.68,4.92-1.95c0.99-0.91,1.92-1.87,2.93-2.76
		c1.14-1,2.31-1.95,3.49-2.9c1.57-1.26,3.32-1.57,5.25-0.95c1.16,0.37,2.36,0.64,3.53,1.01c1.2,0.38,2.16,0.13,2.95-0.87
		c0.98-1.23,1.98-2.45,2.99-3.65c0.78-0.94,1.58-1.86,2.41-2.77c1.04-1.13,2.3-1.25,3.68-0.74c1.34,0.5,2.42,1.38,3.5,2.27
		c0.58,0.48,1.16,0.97,1.78,1.41c1.93,1.39,4.16,2.14,6.42,2.64c2.42,0.53,4.3,1.75,5.77,3.65c1.28,1.66,2.48,3.38,3.69,5.09
		c0.54,0.76,1.14,1.43,1.91,2c0.74,0.55,1.42,1.23,1.97,1.96c2.55,3.38,4.45,7.09,5.42,11.25c0.44,1.9,0.49,3.82,0.36,5.74
		c-0.29,4.39-1.36,8.62-2.88,12.73c-0.13,0.36-0.34,0.69-0.64,1.29c-0.26-0.78-0.45-1.31-0.6-1.85c-0.81-2.99-2.28-5.6-4.49-7.77
		c-1.2-1.18-2.42-2.35-3.6-3.5c-0.01-0.56,0.44-0.69,0.75-0.92c1.23-0.9,2.31-1.95,3.28-3.13c1.02-1.24,1.47-2.63,1.23-4.22
		c-0.52-3.33-2.35-6.01-6.46-6.5c-0.75-0.09-1.5-0.04-2.25,0.19c-1.89,0.58-3.79,1.13-5.71,1.64c-2.3,0.61-2.28,0.96-4.02-1.15
		c-1.07-1.31-2.1-2.65-3.22-3.92c-0.81-0.91-1.69-1.77-2.61-2.57c-1.38-1.2-2.92-1.31-4.54-0.45c-1.75,0.93-3.51,1.83-5.27,2.73
		c-0.57,0.29-1.15,0.57-1.74,0.82c-0.86,0.36-1.7,0.31-2.5-0.21c-0.69-0.44-1.4-0.84-2.09-1.27c-2.35-1.44-4.57-1.1-6.63,0.56
		c-1.08,0.88-2.07,1.87-3.05,2.87c-1.14,1.17-2.21,2.4-3.33,3.59c-1.29,1.36-2.88,2.17-4.75,2.34c-2.21,0.2-3.49-0.55-4.48-2.56
		c-0.38-0.78-0.72-1.6-1.15-2.35c-1.33-2.31-1.45-4.76-0.89-7.28C181.13,140.43,182.04,138.9,183.59,137.52z"/>
	<path class="st2" d="M335.32,178.77c0.74,2.65,0.77,5.02,0.44,7.39c-0.59,4.31-2.6,7.95-5.58,11.05
		c-3.23,3.36-6.95,6.03-11.33,7.69c-4,1.51-8.12,2.04-12.36,1.49c-1.96-0.26-3.93-0.52-5.86-0.92c-3.92-0.82-7.59-2.27-10.84-4.64
		c-1.27-0.92-2.45-1.97-3.6-3.04c-0.9-0.83-1.7-1.76-2.55-2.64c-2.52-2.61-4.06-5.8-5.41-9.11c-0.78-1.9-1.29-3.87-1.6-5.89
		c-0.38-2.45-0.16-4.88,0.34-7.29c0.09-0.46,0.22-0.9,0.36-1.45c0.31-0.06,0.64-0.2,0.96-0.17c1.98,0.15,3.95,0.31,5.92,0.51
		c0.85,0.09,1.71,1.15,1.74,2.12c0.02,0.64-0.04,1.28-0.05,1.92c-0.08,3.53,1.08,6.59,3.35,9.31c2.5,2.99,5.37,5.48,8.89,7.2
		c3.93,1.91,8.04,2.24,12.27,1.41c2.54-0.5,4.65-1.83,6.27-3.86c0.51-0.63,1.08-0.96,1.87-1.14c6.12-1.44,11.36-4.42,15.7-8.98
		C334.51,179.44,334.83,179.2,335.32,178.77z"/>
	<path class="st2" d="M178.05,200.54c-2.15,0.4-4.17,0.22-6.11-0.41c-1.91-0.63-3.75-1.48-5.63-2.24c-0.28,1.3-0.2,1.66,0.7,2.22
		c2.86,1.76,5.93,2.99,9.31,3.28c0.97,0.08,1.96-0.07,2.91-0.11c1.6,2.44,3.19,4.86,4.81,7.32c-0.17,0.14-0.33,0.31-0.52,0.44
		c-5.13,3.49-9.25,7.98-12.78,13.04c-1.71,2.44-3.23,4.99-4.62,7.62c-0.14,0.27-0.15,0.73-0.75,0.7c-0.06-0.72-0.1-1.45-0.2-2.18
		c-0.56-4.1-1.05-8.21-1.71-12.29c-0.62-3.79-1.34-7.58-2.17-11.33c-1.7-7.65-2.07-15.36-1.15-23.12c0.46-3.94,1.3-7.81,2.52-11.59
		c0.09-0.27,0.19-0.54,0.32-0.87c0.54-0.03,1.06-0.1,1.57-0.07c2.34,0.14,4.5-0.56,6.58-1.51c2.18-1,4.17-2.33,6.02-3.86
		c0.63-0.52,1.26-1.03,1.91-1.56c0.76,0.46,0.87,1.05,0.53,1.8c-0.41,0.9-0.76,1.83-1.17,2.73c-1.38,3.05-2.17,6.27-2.73,9.56
		c-0.65,3.82-0.59,7.68-0.27,11.51c0.27,3.19,1.02,6.32,2.14,9.35C177.73,199.45,177.86,199.95,178.05,200.54z"/>
	<path class="st2" d="M406.32,201.12c-0.56,0.44-0.95,0.74-1.27,0.99c-0.14,0.75,0.11,1.29,0.33,1.82c0.48,1.19,0.95,2.39,1.53,3.52
		c0.4,0.78,0.5,1.53,0.3,2.36c-0.89,3.65-1.08,7.37-1.01,11.11c0.01,0.7,0.03,1.41,0.15,2.09c0.13,0.74,0.31,1.49,0.6,2.18
		c0.57,1.36,1.27,1.76,2.73,1.65c1.51-0.12,3.02-0.28,4.52-0.42c0.46-0.04,0.93-0.06,1.39-0.15c1.59-0.31,3.06-0.15,4.53,0.67
		c1.44,0.81,3.15,0.75,4.75,1.06c0.5,0.1,1.06-0.02,1.46,0.41c-0.07,0.1-0.11,0.24-0.2,0.28c-3.57,1.9-7.31,3.3-11.34,3.87
		c-1.53,0.22-3.02,0.06-4.51-0.2c-1.14-0.2-2.31-0.32-3.43-0.62c-1.06-0.29-2.11-0.67-3.08-1.18c-2.14-1.12-3.97-2.64-5.43-4.59
		c-0.34-0.46-0.6-0.98-1.29-1.07c-0.2-0.02-0.4-0.39-0.53-0.63c-3.07-5.83-4.5-11.98-3.54-18.56c0.7-4.82,3.06-8.62,7.21-11.25
		c0.63-0.4,1.38-0.63,1.62-1.49c0.06-0.21,0.41-0.4,0.67-0.49c2.92-1.05,5.86-1.95,9.04-1.38c0.8,0.14,1.63,0.11,2.44,0.17
		c1.84,0.14,2.45,0.42,3.09,2.5c0.51,1.68,0.61,3.44,0.7,5.18c0.14,2.69-0.18,5.35-0.37,8.03c-0.12,1.74-0.85,2.39-2.54,2.46
		c-0.87,0.04-1.75,0-2.62,0.02c-0.81,0.02-1.47-0.3-2.04-0.84c-0.81-0.77-1.46-1.68-1.9-2.7c-0.56-1.28-1.05-2.59-1.57-3.88
		C406.58,201.83,406.5,201.61,406.32,201.12z"/>
	<path class="st2" d="M259.66,333.7c0.92-1.94,1.76-3.79,2.66-5.61c0.8-1.62,1.53-3.27,2.03-5.01c0.31-1.07,0.31-1.11,0.07-2.36
		c-0.47-0.07-0.57,0.33-0.72,0.62c-1.59,3.05-3.19,6.09-4.75,9.15c-1.17,2.3-2.59,4.43-4.39,6.28c-0.48,0.5-1.02,0.97-1.58,1.36
		c-0.32,0.22-0.75,0.31-1.14,0.37c-0.41,0.06-0.8-0.3-0.86-0.7c-0.1-0.71-0.01-1.39,0.23-2.06c0.56-1.59,1.1-3.19,1.68-4.78
		c1.36-3.72,2.74-7.44,4.11-11.15c0.18-0.49,0.45-0.96,0.14-1.57c-1.06-0.2-2.15,0.01-3.23,0.11c-0.98,0.09-1.96,0.3-2.93,0.45
		c-1.46,0.23-2.9,0.22-4.31-0.27c-0.38-0.13-0.76-0.31-1.11-0.51c-0.41-0.24-0.78-0.54-0.71-1.1c0.06-0.52,0.42-0.84,0.86-1.02
		c0.97-0.39,1.97-0.73,2.95-1.09c0.66-0.24,1.29-0.54,1.96-0.74c1.91-0.57,3.4-1.75,4.7-3.21c0.19-0.22,0.32-0.49,0.36-0.55
		c0.41,0,0.55-0.05,0.63,0.01c2.56,1.66,5.37,2.1,8.36,1.8c3.68-0.38,7.03-1.59,9.97-3.85c0.69-0.53,1.3-1.17,1.95-1.75
		c0.2-0.18,0.42-0.35,0.8-0.66c0.29,2.67,0.77,5.1-0.04,7.57c-1.25,3.82-2.44,7.66-3.63,11.5c-0.43,1.37-1.24,2.49-2.11,3.59
		c-0.67,0.84-1.63,1.01-2.65,1.11c-0.27-0.54,0.06-0.94,0.25-1.32c0.91-1.83,1.7-3.7,2.38-5.63c0.25-0.72,0.49-1.43,0.29-2.21
		c-0.51-0.16-0.58,0.28-0.73,0.54c-1.01,1.84-2.02,3.68-2.99,5.54c-0.52,1-1.19,1.85-2.01,2.62c-1.49,1.39-2.95,2.82-4.41,4.24
		C261.18,333.91,260.62,334.25,259.66,333.7z"/>
	<path class="st2" d="M448.28,186.62c-0.26,1.19-0.47,2.21-0.71,3.23c-0.09,0.39-0.17,0.82-0.66,0.94
		c-0.32,0.08-0.63-0.25-0.83-0.96c-0.14-0.5-0.27-1.02-0.28-1.54c-0.02-2.21-0.02-4.42,0.04-6.63c0.02-0.56,0.24-1.14,0.47-1.66
		c0.4-0.91,1.06-1.44,2.16-1.46c2.85-0.07,5.7-0.21,8.55-0.36c5.17-0.26,10.34-0.55,15.51-0.8c2.91-0.14,5.82-0.26,8.72-0.37
		c0.33-0.01,0.67,0.07,1.11,0.12c-0.14,1.4-0.41,2.71-0.38,4.02c0.03,1.32,0.35,2.63,0.56,4.03c-0.95,0.29-1.95,0.24-2.92,0.32
		c-0.93,0.07-1.86,0.04-2.79,0.07c-5.06,0.19-10.12,0.4-15.18,0.58c-3.96,0.14-7.91,0.25-11.87,0.38
		C449.33,186.54,448.87,186.58,448.28,186.62z"/>
	<path class="st2" d="M154.05,294.97c0.42,0.31,0.75,0.53,1.06,0.78c2.41,1.98,5.08,3.49,8.06,4.44c0.89,0.28,1.77,0.58,2.63,0.93
		c0.36,0.15,0.82,0.37,0.95,0.68c0.58,1.34,1.02,2.73,0.62,4.23c-0.23,0.86-0.54,1.66-1.26,2.24c-0.22,0.18-0.39,0.41-0.65,0.69
		c0.32,0.58,0.61,1.14,0.94,1.68c1.28,2.08,2.59,4.15,3.86,6.24c0.57,0.94,1.1,1.92,1.62,2.9c0.16,0.3,0.26,0.64,0.35,0.98
		c0.09,0.36-0.13,0.68-0.51,0.79c-0.17,0.05-0.34,0.11-0.51,0.1c-1.52-0.13-3-0.39-4.33-1.21c-1.52-0.93-2.72-2.18-3.75-3.61
		c-1.38-1.9-2.38-4-3.25-6.16c-0.33-0.81-0.64-1.63-0.95-2.44c-0.06-0.16-0.11-0.33-0.18-0.49c-0.29-0.64-0.71-0.96-1.14-0.9
		c-0.73,0.1-1.35,0.68-1.4,1.35c-0.02,0.29-0.01,0.59,0.05,0.87c0.12,0.51,0.25,1.02,0.45,1.5c1.25,3.16,2.88,6.11,5.04,8.74
		c1.23,1.5,2.67,2.75,4.4,3.66c1.31,0.69,2.69,1.1,4.18,1.05c0.58-0.02,1.16,0,1.67,0c0.62,0.85,0.35,1.69,0.4,2.48
		c0.05,0.8,0.11,1.62-0.01,2.5c-1.28-0.05-2.39-0.42-3.39-0.96c-4.78-2.56-8.99-5.81-12.11-10.33c-2.17-3.15-3.28-6.67-3.51-10.47
		c-0.23-3.73-0.14-7.45,0.36-11.16C153.78,295.72,153.92,295.41,154.05,294.97z"/>
	<path class="st2" d="M160.69,153.17c2.06-0.02,4.14,0,6.21-0.4c2.07-0.4,4.09-0.94,6.02-1.76c1.93-0.81,3.82-1.71,5.76-2.59
		c0.45,0.45,0.45,0.45,0.8,1.42c-2.34,3.42-3.22,7.14-1.57,11.22c-0.31,0.34-0.55,0.66-0.85,0.92c-1.62,1.44-3.35,2.7-5.23,3.78
		c-3.47,1.98-7.19,2.62-11.12,2.07c-0.62-0.09-1.25-0.28-1.83-0.54c-0.77-0.35-0.94-1-0.48-1.74c0.3-0.49,0.67-0.96,1.09-1.36
		c0.79-0.77,1.6-1.54,2.47-2.22c0.64-0.51,0.85-1.05,0.61-1.82c-0.53-1.66-1.05-3.33-1.56-5
		C160.81,154.54,160.49,153.95,160.69,153.17z"/>
	<path class="st2" d="M71.26,156.19c-0.24,0.83-0.41,1.45-0.59,2.06c-0.37,1.24-0.94,2.38-1.77,3.38c-1.43,1.71-2.86,2-5.04,1.01
		c-0.05-0.34-0.13-0.74-0.15-1.13c-0.07-1.98-0.14-3.96-0.16-5.94c-0.01-0.75,0.06-1.51,0.19-2.25c0.38-2.21,2.09-3.37,4.32-2.93
		c1.2,0.24,2.35,0.65,3.43,1.25c2.54,1.42,4.7,3.21,5.93,5.95c1.05,2.36,1.37,4.79,0.8,7.32c-0.27,1.21-0.85,2.27-1.71,3.2
		c-1.03,1.11-1.01,1.17-0.13,2.53c0.03,0.05,0.08,0.08,0.2,0.19c0.31-0.08,0.68-0.17,1.05-0.26c0.04,0.12,0.12,0.24,0.1,0.33
		c-0.47,2.4-1.53,4.49-3.27,6.24c-1.99,2-4.38,2.54-7.06,2.02c-1.18-0.23-2.65-0.64-4.51-1.81c0.06-0.39,0.34-0.22,0.54-0.2
		c1.62,0.15,3.24,0.34,4.86,0.44c1.9,0.11,2.49-0.35,2.97-2.18c0.12-0.45,0.18-0.91,0.2-1.38c0.16-2.98,0.04-5.94-0.57-8.86
		c-0.23-1.12-0.16-2.13,0.32-3.21c0.5-1.1,0.72-2.33,1.02-3.51C72.46,157.58,72.15,156.89,71.26,156.19z"/>
	<path class="st2" d="M13.37,144.87c0.73-2.06,0.41-3.99,0.45-5.99c0.38-0.06,0.71-0.16,1.03-0.15c1.16,0.04,2.33,0.11,3.49,0.17
		c0.35,0.02,0.7,0.06,1.05,0.08c5.29,0.3,10.59,0.6,15.88,0.91c1.45,0.08,2.91,0.23,4.36,0.28c0.82,0.03,1.31,0.45,1.63,1.11
		c0.2,0.41,0.36,0.89,0.37,1.34c0.02,1.75,0.01,3.49-0.08,5.24c-0.03,0.6-0.08,1.3-0.69,1.71c-0.56-0.04-0.64-0.5-0.75-0.86
		c-0.21-0.72-0.34-1.46-0.51-2.21c-0.63-0.31-1.27-0.32-1.91-0.35c-4.31-0.19-8.61-0.38-12.92-0.58c-3.26-0.15-6.52-0.31-9.78-0.48
		C14.53,145.06,14.08,144.97,13.37,144.87z"/>
	<path class="st2" d="M422.19,179.82c1.08,0.26,1.42,1.31,2.35,1.79c1.14-0.47,1.42-1.73,2.21-2.59c0.38,0,0.78,0,1.26,0
		c0.72-0.54,0.98-1.64,1.98-2.08c0.68,0.76,0.9,1.44,0.38,2.39c-1.14,2.08-1.51,4.39-1.71,6.72c-0.2,2.41,0.65,4.58,1.75,6.67
		c0.32,0.61,0.77,1.15,0.99,1.94c-2.68,1.02-5.5,1.61-7.96,3.45c-0.12-0.74-0.23-1.3-0.29-1.87c-0.14-1.28-0.45-2.51-0.96-3.7
		c-0.72-1.68-1.86-2.93-3.52-3.71c-0.49-0.23-1.26-0.28-1.15-1.08c0.09-0.66,0.77-0.59,1.23-0.78c0.91-0.38,1.84-0.72,2.73-1.13
		c0.42-0.19,0.8-0.47,1.15-0.78c0.86-0.74,1.04-1.41,0.6-2.49c-0.24-0.59-0.62-1.11-0.93-1.67c-0.11-0.2-0.2-0.41-0.26-0.63
		C422.03,180.17,422.11,180.05,422.19,179.82z M425.49,191.27c0.8,0.02,1.44-0.58,1.5-1.39c0.06-0.93-0.53-1.52-1.5-1.52
		c-0.65,0.01-1.31,0.66-1.36,1.36C424.07,190.43,424.78,191.25,425.49,191.27z"/>
	<path class="st2" d="M435.72,195.71c0.64,0,1.28,0.01,1.92,0c0.69-0.02,1.07,0.36,1.28,0.97c0.4,1.2,0.35,2.4-0.03,3.6
		c-0.62,2-1.84,3.62-3.29,5.07c-0.26,0.26-0.7,0.47-1.06,0.49c-2.71,0.19-5.34-0.11-7.81-1.34c-0.41-0.21-0.82-0.45-1.17-0.75
		c-1.44-1.18-1.63-3.02-0.46-4.48c0.74-0.93,1.73-1.55,2.81-2.02c1.94-0.84,3.99-1.22,6.08-1.42c0.58-0.06,1.16-0.06,1.74-0.09
		C435.72,195.73,435.72,195.72,435.72,195.71z"/>
	<path class="st2" d="M428.96,216.06c-0.95,0-2.28,0.03-3.57-0.43c-0.83-0.3-1.62-0.64-2.27-1.25c-1.09-1.01-1.23-2.28-0.27-3.4
		c0.44-0.52,0.99-1,1.59-1.34c3.55-2.04,7.33-2.46,11.26-1.35c0.72,0.2,1.41,0.55,2.04,0.95c1.61,1.02,1.8,2.56,0.49,3.96
		c-0.93,0.99-2.12,1.61-3.39,2.07C433,215.93,431.75,216.1,428.96,216.06z"/>
	<path class="st2" d="M445.34,179.04c-0.3,0.69-0.48,1.11-0.64,1.48c-0.83,0.38-1.64,0.38-2.46,0.41c-1.92,0.07-3.84,0.15-5.76,0.23
		c-0.46,0.02-0.93,0.05-1.39,0.11c-0.82,0.12-1.25,0.53-1.34,1.36c-0.04,0.39-0.01,0.82,0.1,1.2c0.14,0.47,0.49,0.8,1.02,0.82
		c0.46,0.02,0.93,0.02,1.4,0.01c2.1-0.04,4.19-0.08,6.29-0.12c0.34-0.01,0.69,0,1,0c0.39,0.92,0.4,0.92,0.03,1.95
		c-0.52,0.04-1.08,0.1-1.65,0.13c-2.15,0.11-4.3,0.28-6.45,0.28c-1.59,0-2.06,1.78-1.48,2.8c0.31,0.55,0.85,0.78,1.48,0.76
		c0.99-0.04,1.97-0.12,2.96-0.16c2.03-0.08,4.06-0.14,6.17-0.21c0.3,0.56,0.57,1.06,0.89,1.67c-0.43,0.15-0.73,0.33-1.05,0.35
		c-0.75,0.06-1.51,0.04-2.27,0.07c-2.91,0.11-5.81,0.23-8.72,0.33c-0.4,0.02-0.81,0-1.29,0c-1.16-1.49-1.61-3.23-1.72-5.04
		c-0.17-2.69,0.02-5.35,1.49-7.77c0.56-0.09,1.07-0.18,1.59-0.24c0.4-0.05,0.81-0.06,1.22-0.07
		C438.17,179.3,441.6,179.18,445.34,179.04z"/>
	<path class="st2" d="M425.88,225.87c-2.09,0.04-3.48-0.04-4.84-0.44c-0.86-0.25-1.59-0.7-2.16-1.4c-0.36-0.44-0.47-0.92-0.34-1.47
		c0.15-0.63,0.4-1.21,0.85-1.69c0.81-0.87,1.75-1.55,2.9-1.86c1.46-0.4,2.92-0.83,4.41-1.03c2.47-0.33,4.86,0.14,7.11,1.23
		c0.4,0.2,0.76,0.54,1.06,0.88c0.74,0.84,0.75,1.82,0.03,2.69c-0.33,0.39-0.75,0.73-1.17,1.02c-1.22,0.83-2.61,1.31-4.03,1.58
		C428.2,225.66,426.69,225.77,425.88,225.87z"/>
	<path class="st2" d="M302.2,255.51c1.25-0.98,2.51-1.98,3.83-3.02c-0.37,4.67-4.73,17.86-7.35,21.78
		c-2.44,0.28-3.91,0.18-4.99-0.36c0.94-1.53,1.91-3.07,1.84-5c0.3-0.22,0.57-0.44,0.86-0.62c3.15-1.94,4.76-4.87,5.35-8.42
		C301.98,258.45,302.05,256.99,302.2,255.51z"/>
	<path class="st2" d="M58.52,155.19c-2.08-0.89-3.98-1.71-5.99-2.58c0.2-0.4,0.34-0.77,0.56-1.09c1.4-2.08,1.9-4.32,1.45-6.81
		c-0.23-1.27-0.41-2.53-1.02-3.68c-0.35-0.65-0.29-1.22,0.33-1.79c0.23,0.24,0.53,0.44,0.69,0.72c0.39,0.67,0.91,1.04,1.62,0.87
		c0.74,0.62,0.8,1.71,1.79,1.93c0.72-0.15,0.91-1.09,1.69-1.12c0.3,0.52-0.12,0.8-0.32,1.1c-0.96,1.47-0.86,2.47,1.07,3.49
		c0.76,0.4,1.62,0.64,2.42,0.98c0.14,0.06,0.35,0.24,0.34,0.34c-0.02,0.2-0.13,0.43-0.28,0.56c-0.22,0.18-0.51,0.28-0.76,0.41
		c-1.28,0.7-2.19,1.72-2.65,3.11c-0.26,0.77-0.46,1.56-0.67,2.34C58.68,154.37,58.61,154.77,58.52,155.19z M56.91,150.26
		c0.52,0.05,1.21-0.48,1.25-0.96c0.04-0.54-0.45-1.18-0.95-1.24c-0.63-0.07-1.15,0.33-1.2,0.93
		C55.96,149.61,56.39,150.21,56.91,150.26z"/>
	<path class="st2" d="M48.88,153.5c1.59,0.07,3.38,0.29,5.09,0.9c0.87,0.31,1.7,0.74,2.49,1.23c0.64,0.4,1.15,0.99,1.31,1.78
		c0.26,1.28-0.5,2.47-1.88,2.93c-0.38,0.13-0.79,0.2-1.19,0.26c-1.38,0.2-2.77,0.33-4.14,0.57c-0.86,0.15-1.5-0.11-1.92-0.83
		c-0.67-1.15-1.32-2.32-1.91-3.51c-0.17-0.34-0.14-0.8-0.15-1.2C46.54,153.83,46.92,153.45,48.88,153.5z"/>
	<path class="st2" d="M52.22,141.4c1.11,1.44,1.22,3.21,1.2,4.95c-0.02,1.68-0.34,3.35-1.5,4.79c-3.32-0.24-6.63-0.24-10.09-0.6
		c0.25-0.52,0.44-0.92,0.66-1.38c1.63,0.07,3.2,0.14,4.77,0.22c0.7,0.03,1.39,0.13,2.09,0.14c0.87,0.01,1.34-0.41,1.42-1.21
		c0.08-0.81-0.3-1.35-1.11-1.49c-0.51-0.09-1.04-0.1-1.56-0.14c-1.51-0.12-3.02-0.24-4.52-0.36c-0.11-0.01-0.21-0.1-0.35-0.17
		c0-0.37,0-0.75,0-1.26c0.52-0.01,0.97-0.05,1.42-0.03c1.63,0.08,3.26,0.22,4.89,0.26c1.16,0.03,1.75-0.99,1.22-2.04
		c-0.12-0.23-0.39-0.46-0.64-0.52c-0.56-0.14-1.15-0.21-1.73-0.24c-1.45-0.09-2.91-0.15-4.36-0.23c-0.35-0.02-0.7-0.03-1.04-0.12
		c-0.44-0.12-0.66-0.44-0.62-0.9c0.08-0.08,0.15-0.22,0.23-0.23C44.34,140.71,50.6,141.09,52.22,141.4z"/>
	<path class="st2" d="M260.21,225.83c4.16,0.96,7.88,2.09,11.58,3.25c0.42,0.13,0.8,0.4,1.32,0.67c-1.07,1.02-2.06,1.91-2.98,2.86
		c-0.93,0.95-1.8,1.95-2.79,3.04c-1.31-1.59-2.22-3.34-3.41-4.89C262.77,229.23,261.62,227.7,260.21,225.83z"/>
	<path class="st2" d="M247.59,278.4c1.01,1.89,1.62,3.52,2.25,5.13c0.49,1.24,0.91,2.51,1.36,3.76c-0.35,1.28-0.69,2.57-1.04,3.85
		c-0.44,1.57-0.89,3.13-1.33,4.69c-0.08,0.27-0.14,0.55-0.47,0.65"/>
	<path class="st2" d="M63.19,169.87c-0.22,0.75-0.7,1.09-1.2,1.39c-1.11,0.66-2.3,1.16-3.58,1.31c-1.84,0.21-3.7,0.28-5.56,0.42
		c-0.66,0.05-1.27-0.09-1.81-0.48c-0.32-0.23-0.41-0.58-0.25-0.93c0.31-0.65,0.78-1.15,1.48-1.39c1.54-0.53,3.05-1.1,4.73-1.03
		c1.28,0.05,2.56-0.03,3.83-0.02C61.67,169.13,62.46,169.27,63.19,169.87z"/>
	<path class="st2" d="M60.78,163.42c-0.13,0.86-0.64,1.18-1.13,1.47c-1.15,0.7-2.39,1.2-3.73,1.35c-1.67,0.19-3.35,0.28-5.03,0.42
		c-1.02,0.09-1.82-0.24-2.35-1.14c-0.23-0.4-0.15-0.83,0.25-1.05c0.35-0.19,0.73-0.36,1.11-0.49c0.93-0.32,1.87-0.63,2.8-0.93
		c0.27-0.09,0.56-0.18,0.84-0.19c1.62-0.05,3.25-0.08,4.87-0.09c0.4,0,0.81,0.07,1.2,0.17C60,163.05,60.36,163.24,60.78,163.42z"/>
	<path class="st2" d="M184.91,156.21c-1.23,2.05-2.44,4.08-3.75,6.25c-0.25-0.32-0.44-0.5-0.55-0.72c-0.93-1.8-1.32-3.69-1.04-5.71
		c0.1-0.71,0.35-1.34,0.78-1.9c0.44-0.57,0.89-0.65,1.5-0.27c0.2,0.12,0.38,0.26,0.56,0.4
		C183.18,154.86,183.95,155.46,184.91,156.21z"/>
	<path class="st2" d="M442.6,196.92c2.25,0.74,3.07,2.53,2.11,4.35c-0.19,0.35-0.41,0.72-0.71,0.97c-0.71,0.59-1.45,1.15-2.22,1.65
		c-0.4,0.26-0.83,0.62-1.53,0.47c0.66-1.22,1.35-2.33,1.89-3.51C442.69,199.63,442.81,198.3,442.6,196.92z"/>
	<path class="st2" d="M43.84,154.38c-0.18,2.14,0.63,3.8,1.62,5.36c-0.25,0.31-0.47,0.21-0.66,0.08c-0.49-0.31-0.98-0.63-1.46-0.96
		c-0.15-0.1-0.29-0.2-0.42-0.32c-0.61-0.59-1.01-1.29-0.96-2.16C42.01,155.61,42.45,155.12,43.84,154.38z"/>
	<path class="st2" d="M190.32,139.94c1.71-1.13,3.33-2.21,5.09-3.37c-0.75,1.36-1.95,2.56-3.05,3.11
		C191.65,140.03,191.34,140.08,190.32,139.94z"/>
</g>
</svg>
