<?xml version="1.0" encoding="utf-8"?>
<!-- Generator: Adobe Illustrator 24.2.1, SVG Export Plug-In . SVG Version: 6.00 Build 0)  -->
<svg version="1.1" xmlns="http://www.w3.org/2000/svg" xmlns:xlink="http://www.w3.org/1999/xlink" x="0px" y="0px"
	 viewBox="0 0 1100 1100" style="enable-background:new 0 0 1100 1100;" xml:space="preserve">
<style type="text/css">
	.st0{display:none;}
	.st1{display:inline;fill:#4D4D4D;}
</style>
<g id="Calque_6" class="st0">
	<rect x="-90.67" y="-49.33" class="st1" width="1290" height="1418"/>
</g>
<g id="Calque_1">
	<path d="M18.55,968.78c5.73-10.54,14.75-14.43,26.55-14.97c20.55-0.94,41.05-3.16,61.59-4.42c5.3-0.32,11.11-0.13,15.96,1.73
		c6.94,2.66,8.38,9.15,4.82,15.7c-2.87,5.28-7.26,8.83-13.23,9.53c-13.67,1.61-27.37,2.9-41.08,4.23
		c-10.73,1.04-21.48,1.96-32.22,2.89c-2.15,0.19-4.32,0.31-6.47,0.23c-7.17-0.28-13.41-2.14-15.94-9.92
		C18.55,972.1,18.55,970.44,18.55,968.78z"/>
	<path d="M956.39,598.24c17.32-3.56,33.68-3.88,40.55,19.66c5.21-2.85,10.89-5.01,16.41-2.14c4.45,2.31,8.8,5.48,12.08,9.23
		c4.81,5.49,5.93,12.15,2.19,18.99c-9.31,17.05-18.3,34.3-28.14,51.04c-2.9,4.94-7.62,9.45-12.55,12.43
		c-10.88,6.56-26.78-1.21-29.45-13.66c-0.28-1.29-0.61-2.57-1.06-4.44c-8.66,2.9-17.06,2.37-24.75-2.57
		c-7.69-4.94-12.76-11.64-12.65-21.29c-8.3-0.93-16.39-1.46-24.35-2.81c-14.97-2.55-28.36-9.25-41.39-16.73
		c-3.46-1.98-7.13-3.64-10.43-5.86c-10.22-6.87-22.2-5.74-33.69-8.31c-0.51,5.64-0.12,10.09,3.53,14.41
		c5.87,6.95,11.15,14.43,16.36,21.91c3.94,5.64,3.07,11.45-1.16,16.57c-2.3,2.78-4.96,5.43-7.9,7.5
		c-21.85,15.31-45.02,28.46-69.43,39.1c-13.39,5.83-27.95,8.4-42.59,9.89c-2.29,0.23-4.75,1.37-6.61,2.78
		c-23.19,17.59-45.75,36.05-69.51,52.82c-34.41,24.28-72.51,40.98-113.45,51.18c-26.12,6.5-52.16,13.34-78.21,20.13
		c-2.19,0.57-4.36,1.63-6.23,2.92c-9.85,6.81-19.4,14.09-29.44,20.6c-14.58,9.46-30.74,14.82-48.45,16.39
		c1.11,9.6-2.29,17.21-9.31,23.19c-7.04,6.01-15.33,7.5-24.52,5.79c-0.19,1.14-0.39,1.91-0.44,2.7
		c-1.03,17.07-18.64,26.31-32.69,16.37c-6.62-4.68-11.87-11.52-17.06-17.93c-7.11-8.79-13.58-18.09-20.3-27.19
		c-1.58-2.14-3.15-4.3-4.53-6.57c-7.67-12.62-3.97-25.91,9-33.09c5.47-3.03,10.86-2.26,16.85,0.26c1.46-9.37,4.75-17.37,12.89-22.33
		c7.82-4.77,16.02-6.29,24.15-2.58c5.09-8.54,9.51-17.09,15-24.9c8.72-12.41,20.8-21.49,32.95-30.27
		c7.55-5.46,13.5-12.04,18.43-19.93c15.25-24.39,30.49-48.79,46.38-72.77c27.9-42.1,63.91-75.98,106.46-103.04
		c12.63-8.03,24.91-16.62,37.63-24.51c5.34-3.31,8.34-7.77,10.26-13.99c-7.65-4.78-15.32-9.67-23.12-14.34
		c-1.15-0.69-2.9-0.42-4.38-0.54c-12.58-1.07-25.32-1.24-37.7-3.45c-10.2-1.82-20.22-5.45-29.87-9.36
		c-16.91-6.87-33.57-14.39-50.13-22.06c-3.77-1.75-7.15-4.88-9.98-8.02c-3.74-4.15-4.43-9.35-1.71-14.4
		c4.55-8.46,9.43-16.74,14.07-25.15c0.93-1.68,2.12-3.66,1.98-5.41c-1.29-15.61,2.33-30.43,7.06-45.04c1.07-3.32,0.4-4.93-2.41-6.9
		c-12.7-8.89-15.76-22.22-8.6-35.92c2.54-4.86,4.98-9.78,7.58-14.6c3.85-7.13,9.26-11.9,17.86-12.59c6.57-0.53,13-2.63,19.66-0.04
		c1.07,0.42,3.38-1.3,4.62-2.53c10.01-9.92,18.69-21.79,30.19-29.43c10.27-6.82,15.27-15.69,20.35-25.69
		c2.58-5.08,6.6-9.44,10.14-14c0.58-0.75,2.03-1.24,3.03-1.17c10.52,0.81,21.18,0.37,30.5,7.16c18.66,13.6,38.57,25.66,56.14,40.52
		c10.41,8.79,17.52,21.57,25.71,32.85c2.72,3.75,5.63,6.58,9.81,8.68c23.76,11.95,47.78,23.45,70.96,36.43
		c40.91,22.91,74.59,54.3,103.6,90.99c14.54,18.4,29.79,36.24,44.92,54.16c2.72,3.22,6.29,5.83,9.8,8.25
		c4.23,2.92,8.74,5.47,13.25,7.97C929.87,564.24,946.13,578.07,956.39,598.24z M667.61,534.35c-0.48,0.25-1.54,0.73-2.52,1.33
		c-33.01,19.93-66.39,39.29-98.9,60.02c-21.84,13.93-42.97,29.11-63.44,44.99c-19.41,15.05-35.57,33.68-49.48,53.87
		c-17.64,25.58-34.32,51.82-51.29,77.86c-9.16,14.04-17.56,28.67-32.9,37.28c-3.02,1.7-5.67,4.06-8.47,6.16
		c-17.97,13.47-32.73,29.67-42.6,50.03c-1.01,2.08-1.65,4.45-3.04,6.22c-1.99,2.54-4.36,3.18-6-0.6c-1.19-2.74-2.37-5.48-3.57-8.22
		c-1.2-2.73-3.08-3.07-4.94-0.88c-2.46,2.89-5.18,5.78-6.77,9.15c-2.82,5.98-4.87,12.33-7.23,18.53c-1.6,4.21-4.91,5.25-8.4,2.43
		c-1.53-1.24-2.52-3.15-4.08-4.35c-2.32-1.79-4.88-4.38-7.41-4.47c-2.52-0.09-5.47,2.12-7.62,4.01c-2.11,1.87-3.4,4.59-1.18,7.54
		c11.69,15.54,23.32,31.12,35.08,46.61c2.06,2.71,9.48,3.66,11.84,1.9c4.2-3.11,5.01-7.69,2.08-12.32c-0.97-1.54-2.31-2.85-3.25-4.4
		c-1.97-3.25-0.93-5.86,1.7-8.37c2.7-2.57,5.63-2.79,7.92-0.3c4.9,5.33,10.58,5.59,17.2,4.54c3.65-0.58,5.47-1.76,5.8-5.3
		c0.98-10.59,2.02-21.17,2.9-31.77c0.55-6.69,3.77-8.75,9.97-6.2c5.06,2.08,10,4.71,15.26,5.99c12.38,3.01,23.75-0.51,34.18-7.16
		c11.92-7.59,23.58-15.59,35.44-23.26c15.62-10.1,32.21-17.58,50.81-20.77c11.74-2.01,23.24-5.5,34.73-8.75
		c11.94-3.37,23.74-7.26,36.66-11.24c-3.72-10.92-7.1-21.27-10.79-31.52c-3.03-8.41-7.92-15.56-14.61-21.67
		c-10.43-9.54-20.6-19.39-30.61-29.38c-3.73-3.72-6.96-8.01-9.92-12.38c-2.3-3.4-1.78-6.96,1.59-9.77c2.94-2.45,5.73-5.09,8.77-7.39
		c40.11-30.35,83.23-56.16,125.43-83.37c1.14-0.73,3.36-1.15,4.35-0.53c13.52,8.34,26.41,17.95,35.47,30.89
		c13.23,18.89,24.77,38.96,37.03,58.53c1.02,1.64,2.04,3.28,3.19,5.14c18.24-15.88,36.02-31.38,53.98-47.02
		c-6.54-4.62-12.94-8.72-18.85-13.42c-5.96-4.74-11.44-10.08-17.17-15.19c-6.64,3.99-12.83,8.22-19.46,11.6
		c-15.18,7.74-31.85,3.11-41.18-11.01c-8.18-12.38-5.15-26.68,8.04-37.95c4.3-3.67,8.54-7.43,12.96-10.96
		c2.31-1.85,2.96-3.33,1.23-6.18c-2.66-4.39-5.18-8.98-6.85-13.81C674.74,557.68,671.33,546.11,667.61,534.35z M959.21,626.34
		c-2.17-1.87-3.89-3-5.14-4.51c-7.71-9.31-14.75-19.25-23.09-27.95c-14.03-14.63-32.45-22.95-49.84-32.7
		c-2.99-1.68-6.04-3.71-8.23-6.29c-14.44-16.97-29.36-33.6-42.79-51.34c-36.5-48.18-80.52-87.04-135.72-112.51
		c-33.02-15.23-66.12-30.28-99.24-45.29c-10.53-4.77-21.24-9.17-32.77-14.13c0.81,19.69-4.09,37.46-11.26,54.91
		c6.49,4.34,12.73,8.46,18.9,12.65c9.62,6.54,16.16,15.18,13.56,27.22c-2.79,12.96-10.27,22.54-24.21,25.52
		c-7.66,1.64-14.85,0.36-21.78-2.99c-5.64-2.73-11.24-5.53-16.23-7.98c-10.81,11.42-21.23,22.43-31.8,33.61
		c19.25,13.09,38.69,26.31,58.52,39.79c7.44-16.96,14.48-33.42,21.85-49.73c9.42-20.85,21.38-39.88,40.63-53.23
		c1.52-1.05,4.49-1.51,6.06-0.75c35.61,17.17,71.23,34.32,106.58,52.02c11.86,5.94,23.13,13.11,34.34,20.23
		c6.99,4.44,7.62,8.37,3.3,15.54c-2.3,3.82-5.3,7.23-8.08,10.74c-3.36,4.24-6.83,8.4-10.71,13.14c3.13,2.85,5.72,5.45,8.59,7.7
		c0.97,0.76,3.02,1.35,3.9,0.84c6.74-3.87,13.93-2.23,21-2.07c7.18,0.17,12.72,3.47,16.84,9.2c4.17,5.81,8.31,11.64,12.27,17.59
		c3.56,5.34,4.64,11.22,3.52,17.62c-1.45,8.29-6.63,13.93-13.1,18.88c2.27,5.15,4.35,10.19,6.74,15.07
		c0.62,1.26,2.09,2.54,3.43,2.94c22.09,6.61,42.72,16.63,62.86,27.58c17.98,9.78,35.22,11.74,52.83-0.77
		c7.97-5.66,10.88-3.94,12.86,5.87c1.9,9.43,4.01,18.83,6.03,28.24c0.85,3.95,3.03,6.38,7.18,7.26c5.04,1.07,8.92-0.69,11.8-4.54
		c2.58-3.45,5.88-4.51,9.93-4.52c4.4-0.01,6.45,2.36,5.15,6.65c-0.71,2.35-2.18,4.47-3.03,6.79c-1.95,5.31-0.28,9.83,4.2,11.89
		c2.33,1.07,9.92-1.48,11.45-4.14c9.58-16.72,19.18-33.43,28.42-50.33c0.95-1.74,0.3-5.25-0.9-7.11c-2.87-4.43-9.13-5.07-13.03-1.53
		c-2.16,1.96-3.74,4.59-5.41,7.03c-2.98,4.34-7.07,4.22-9.55-0.4c-1.49-2.78-2.7-5.75-4.44-8.36c-3.74-5.63-7.52-11.27-11.73-16.54
		c-2.4-3.01-4.84-2.16-6.18,1.53C962.37,618.25,960.97,621.76,959.21,626.34z M784.45,568.47c-1.21-2.39-1.8-3.94-2.71-5.27
		c-2.54-3.7-5.24-7.29-7.84-10.95c-3.66-5.15-4.48-5.37-9.15-1.42c-25.65,21.71-51.27,43.44-76.83,65.25
		c-1.71,1.46-4.05,3.65-3.96,5.39c0.14,2.94,1.66,6.02,3.33,8.56c0.51,0.78,3.82,0.65,5.16-0.18
		c28.43-17.55,56.81-35.17,85.02-53.06C780.41,574.92,782.2,571.22,784.45,568.47z M553.47,431.43c1.21-0.77,2.77-1.24,3.43-2.28
		c3.63-5.76,4.55-8.14-2.23-12.65c-22.82-15.18-45.67-30.32-68.54-45.42c-5.96-3.93-12.03-7.69-18.05-11.54
		c-3.27-2.09-5.41-1.29-6.96,2.31c-1.83,4.26-3.96,8.4-6.06,12.54c-3.2,6.3-2.09,9.49,4.41,12.55
		c27.92,13.14,55.84,26.3,83.75,39.47C546.5,427.96,549.73,429.6,553.47,431.43z M534.07,374.89c2.93-11.05,5.7-21.1,8.22-31.22
		c0.63-2.54,0.62-5.27,0.61-7.92c-0.05-8.7-4.95-11.77-12.71-7.98c-1.93,0.94-3.98,1.96-5.45,3.45
		c-7.45,7.51-14.72,15.19-22.52,23.29C513.25,361.58,523.13,367.89,534.07,374.89z M731.2,549.04
		c-6.41-5.82-12.06-11.44-18.25-16.39c-3.69-2.95-8-5.45-12.42-7.1c-7.01-2.62-12.24,1.51-11.26,8.87
		c1.82,13.61,7.65,25.82,14.16,38.29C712.73,564.79,721.55,557.28,731.2,549.04z M741.84,625.6c6.64,5.6,12.18,10.93,18.39,15.28
		c3.81,2.67,8.53,4.69,13.1,5.48c7.57,1.3,10.84-2.59,9.47-9.91c-0.37-1.95-0.55-3.99-1.23-5.83c-2.94-7.94-6.04-15.83-9.23-24.15
		C761.69,613.14,752.31,619.03,741.84,625.6z M501.89,432.56c-11.6-5.74-21.79-10.79-32.23-15.95c-4.21,11.58-6.73,22.99-7.32,34.84
		c-0.14,2.89,0.93,3.97,3.72,4.65c6.43,1.57,12.07-0.07,16.65-4.27C489.27,445.83,495.3,439.24,501.89,432.56z M551.12,304.69
		c22.99,9.86,45.59,19.55,68.19,29.24c0.25-0.42,0.5-0.85,0.74-1.27c-16.6-19.14-39.23-30.4-59.56-45.68
		C557.15,293.3,554.24,298.78,551.12,304.69z M516.66,518.51c-20.34-14.06-40.68-28.12-61.31-42.38c-3.47,6.22-6.32,11.33-9.48,17
		C469.78,502.17,491.88,513.72,516.66,518.51z M793.31,664.22c-18.74,16.44-37.25,32.68-55.76,48.92
		c23.67-8.57,45.11-20.93,66.99-33.55C800.52,674.09,797.11,669.43,793.31,664.22z"/>
	<path d="M227.26,976.37c-8.37-0.64-15.69-0.9-22.91-1.9c-2.61-0.36-4.92-2.61-7.45-3.81c-1.25-0.59-2.68-1.06-4.04-1.09
		c-6.32-0.11-12.65,0-18.98-0.06c-10.11-0.11-17.85-4.91-23.61-12.83c-4.66-6.41-4.29-14.45,0.91-18.54
		c2.29-1.8,5.65-3.12,8.55-3.15c21.14-0.27,42.28-0.3,63.42-0.11c15.41,0.14,25.17,10.54,24.96,26.03
		c-0.01,0.47,0.19,0.94,0.37,1.73c2.37,0.46,4.87,0.69,7.18,1.46c2.12,0.71,4.47,1.65,5.83,3.24c0.5,0.59-1.57,3.35-2.68,5.55
		c4.28-1.38,8.48-2.71,12.66-4.09c13.25-4.39,29.95,8.55,29.07,22.49c-0.37,5.88-3.21,10.01-8.51,12.47
		c-16.53,7.66-33.96,9.4-51.66,6.35c-9.8-1.69-15.89-8.76-18.55-18.27C220.18,985.99,221.85,980.72,227.26,976.37z"/>
	<path d="M429.87,796.22c7.14-0.88,13.01-0.31,17.86,4.48c6.74,6.65,12.67,13.75,13.05,23.84c0.08,1.96-0.06,4.03-0.62,5.88
		c-0.88,2.87-2.91,3.98-5.05,1.26c-8.09-10.31-16.03-20.73-23.94-31.18C430.46,799.55,430.42,798.09,429.87,796.22z"/>
</g>
<g id="Calque_2">
	<path d="M613.55,96.77c9.73,0.26,19.66-0.62,29.16,0.99c28.85,4.88,56.4,13.97,81.88,28.66c3.29,1.9,6.64,4.01,9.24,6.72
		c2.98,3.11,5.83,3.63,9.68,2.19c2.92-1.1,6.06-1.64,9.14-2.44c-6.62-16.79,1.45-28.69,12.7-38.95c10.66-9.72,22.84-17.01,37.66-19
		c6.24-0.84,12.31-2.82,18.51-4.06c25.88-5.19,46.57,4.48,63.73,23.06c8.39,9.08,7.73,20.53,5.83,31.68
		c-3.96,23.24-14.42,42.99-32.72,58.25c-0.49,0.41-0.93,0.89-1.31,1.25c6.28,1.4,12.5,2.79,18.7,4.18
		c1.36-4.75,2.55-10.09,4.44-15.17c2.99-8.04,8.23-13.09,17.6-13.64c10.03-0.59,9.94-1.1,11.04-10.99
		c1.36-12.26,3.34-24.39,9.42-35.4c10.75-19.46,40.03-23.94,56.39-8.76c5.11,4.75,7.34,10.88,9.56,17.19
		c6.89,19.62,14.79,38.77,26.77,55.98c6.91,9.92,15.42,17.45,27.04,21.81c13.99,5.25,27.6,11.53,41.34,17.43
		c7.67,3.29,9,10.35,3.81,16.89c-9.18,11.57-18.28,23.23-26.94,35.19c-5.12,7.07-7.34,15.26-8.52,24.11
		c-1.66,12.44-4.26,24.87-7.91,36.87c-1.84,6.05-6.99,11.04-10.36,16.69c-1.05,1.76-1.72,4.11-1.64,6.15
		c0.65,15.99,0.3,31.87-3.81,47.47c-4.3,16.31-12.46,29.95-26.76,39.52c-1.3,0.87-2.21,2.78-2.63,4.38
		c-1.3,4.98-2.27,10.04-3.38,15.06c-6.73,30.43-35.9,47-65.58,37.65c-30.41-9.58-58.27-24.26-84.5-42.05
		c-8.17-5.54-15.25-12.81-22.25-19.86c-2-2.02-2.49-6.01-2.78-9.18c-1.23-13.21-2.08-26.46-3.2-39.69c-0.22-2.63-0.96-5.23-1.62-7.8
		c-1.04-4.02-3.2-6.82-7.23-8.79c-38.4-18.71-76.88-37.29-114.98-56.62c-29.96-15.2-59.67-31.22-85.74-52.58
		c-18.07-14.8-34.47-31.66-51.5-47.72c-7.25-6.84-14.65-13.6-21.11-21.15c-4.21-4.91-7.75-10.84-9.97-16.9
		c-3.21-8.77,0.18-16.4,8.07-21.42c2.65-1.68,5.45-3.58,8.43-4.2c7.46-1.54,11.58-6.27,15.62-12.39
		c10.35-15.7,23.9-27.98,41.75-34.93c0.58-0.23,1.04-0.78,1.56-1.18C601.96,99.77,607.76,98.27,613.55,96.77z M815.69,355.78
		c1.38-7.77,2.38-14.66,3.9-21.42c0.7-3.11-0.15-4.83-2.63-6.51c-21.18-14.34-42.09-29.09-63.5-43.06
		c-30.76-20.08-61.29-40.45-88.8-64.88c-30.72-27.28-66.11-45.18-105.93-54.75c-8.53-2.05-14.49,3.12-22.97,6.16
		c8.39,8.63,15.58,16.36,23.14,23.72c16.63,16.17,32.65,33.1,50.36,48c34.07,28.66,73.76,48.45,113.39,68.07
		c22.91,11.34,46.16,22.01,69.23,33.03C799.65,347.83,807.34,351.68,815.69,355.78z M832.25,394.69c0.59,8.38,1.68,15.59,1.42,22.75
		c-0.25,7,1.98,12.09,7.75,15.83c12.51,8.13,24.51,17.23,37.64,24.21c15.92,8.47,32.78,15.2,49.25,22.64
		c5.46,2.47,9.42-1.93,13.75-3.75c0.58-0.24-0.41-6.9-2.19-9.59c-4.09-6.16-8.73-12.06-13.82-17.44
		c-16.93-17.89-37.6-30.49-59.84-40.57C855.38,403.87,844.24,399.64,832.25,394.69z M770.46,135.65
		c11.92,12.12,25.81,16.62,41.02,18c2.78,0.25,5.94-0.45,5.91-3.77c-0.02-2.44-1.73-4.91-2.89-7.27c-0.31-0.62-1.34-0.93-2.1-1.26
		C799.3,135.61,785.45,135.8,770.46,135.65z"/>
</g>
<g id="Calque_3">
	<path d="M263.39,278.93c18.96-19.84,37.62-39.63,56.65-59.05c3.41-3.48,1.77-6.1,0.56-9.08c-6.83-16.84-5.85-32.99,4.66-48
		c10.62-15.15,25.84-22.68,43.9-21.03c20.96,1.92,36.18,13.12,43.24,33.8c0.84,2.45,1.56,4.94,2.41,7.64
		c15.52,2.63,28.26,10.32,36.45,24.01c11.16,18.63,9.98,44.35-8.19,61.23c-15.12,14.05-32.8,17.14-52.2,10.53
		c-2.73-0.93-4.41-0.98-6.78,1.53c-17.13,18.11-34.35,36.13-52.03,53.69c-4.64,4.61-4.85,8.12-2.81,14.03
		c6.63,19.17,2.27,36.35-11.77,50.92c-21.44,22.25-58.49,18.36-75.13-7.05c-3.21-4.9-5.08-10.75-7.14-16.32
		c-1.06-2.87-2.04-4.66-5.51-5.33c-37.34-7.15-51.25-50.3-29.11-78.5C215.7,272.73,239.95,267.87,263.39,278.93z"/>
</g>
<g id="Calque_4">
	<path d="M208.81,453.22c4.32,0,8.64,0,12.97,0c0.58,0.27,1.15,0.69,1.76,0.78c27.92,4.26,54.42,13.62,80.53,23.77
		c9.6,3.73,12.19,9.98,6.34,17.93c-2.53,3.43-4.47,7.3-6.98,11.48c1.97-0.15,3.3-0.1,4.55-0.37c22.25-4.84,44.81-5.48,67.44-4.62
		c17.31,0.65,34.47,2.48,50.55,9.7c8.74,3.93,16.38,9.26,19.75,18.62c3.25,9.02,6.14,18.23,8.39,27.54
		c2.21,9.15,3.4,18.54,5.04,27.83c0,4.99,0,9.97,0,14.96c-0.26,0.76-0.7,1.51-0.76,2.29c-1.5,21.72-8.3,41.89-17.87,61.25
		c-6.22,12.58-13.91,24.17-23.53,34.42c-4.63,4.93-10.32,5.23-15.16,2.07c-4.04-2.64-8.58-5.03-13.23-6.12
		c-16.48-3.85-33.32-3.58-50.09-2.86c-3.14,0.14-6.76,1.68-9.2,3.72c-16.15,13.51-34.41,21.17-55.62,20.91
		c-3.16-0.04-4.24,1.34-5.45,3.76c-18.8,37.73-37.9,75.32-56.36,113.22c-4.37,8.98-10.28,12.1-19.89,11.74
		c-33.53-1.26-67.09-2.01-100.63-2.93c-10.09-0.28-14.22-4.52-14.23-14.81c-0.01-19.78-0.03-39.55,0.02-59.33
		c0.01-2.81-0.1-5.75,0.65-8.4c5.86-20.55,10.5-41.6,18.21-61.45c18.92-48.69,38.75-97.06,59.29-145.09
		c12.77-29.87,27.48-58.92,41.37-88.31C199.25,459.53,202.86,455.13,208.81,453.22z M184.22,766.4c0.93-2.2,1.74-3.99,2.46-5.82
		c21.84-55.55,43.63-111.12,65.53-166.65c4.29-10.87,12.59-13.34,21.68-5.7c4.14,3.47,8.21,6.13,13.95,6.49
		c17.37,1.08,34.74,2.36,52.06,4.14c21.9,2.25,43.73,5.13,65.62,7.52c1.4,0.15,3.71-1.2,4.39-2.49c1.92-3.64,3.32-7.56,4.74-11.45
		c5.87-16.04,11-32.24,11.44-49.55c0.11-4.55-1.68-7.98-5.74-9.51c-6.3-2.37-12.73-5.28-19.29-5.9
		c-16.31-1.54-32.74-1.89-49.12-2.75c-11.63-0.62-23.11,0.03-34.6,2.33c-11.34,2.27-22.85,3.67-34.3,5.35
		c-4.64,0.68-7.97-1.34-10.27-5.38c-2.41-4.24-1.9-8.19,0.61-12.18c4.37-6.93,8.64-13.93,13.5-21.78
		c-19.53-5.73-38.04-11.97-56.96-16.48c-16.6-3.95-12.68-5.62-19.53,8.93c-18.05,38.32-35.54,76.92-52.49,115.74
		c-19.84,45.46-38.9,91.27-53.13,138.89c-2.09,7-3.48,14.2-5.3,21.73C128.45,763.44,156.1,764.91,184.22,766.4z"/>
	<path d="M158.13,731.39c16.61-62.94,38.52-124.23,57.94-186.36c-0.5,1.09-1.08,2.15-1.5,3.28c-17.14,46.54-34.24,93.09-51.48,139.6
		c-1.05,2.84-2.84,5.63-4.93,7.82c-8.46,8.87-17.18,17.49-26.7,25.67c0.2-0.98,0.31-1.99,0.61-2.94
		c21.61-67.82,44.12-135.31,72.15-200.83c6.49-15.18,7.54-15.83,23.97-12.92c4.82,0.85,9.91,1.49,14.23,3.58
		c6.54,3.16,7.34,6.48,4.85,13.47c-4.97,13.9-10.35,27.66-14.99,41.67c-14.8,44.69-29.98,89.28-43.54,134.35
		c-3.58,11.91-8.14,21.03-18.97,26.98c-3.72,2.05-6.98,4.92-10.45,7.42C158.91,731.92,158.52,731.66,158.13,731.39z"/>
</g>
<g id="Calque_5">
	<path d="M949.69,905.61c-4.35-10.04-8.62-19.89-13.26-30.62c-5.26,7.07-10.38,13.3-14.78,20.01
		c-7.84,11.96-17.85,21.44-29.34,29.98c-42.69,31.73-84.97,64.02-127.41,96.09c-1.15,0.87-2.41,1.61-4.67,3.11
		c-0.52-2.86-1.29-4.94-1.2-6.99c0.41-8.76,1.07-17.51,1.71-27.44c-6.98,5.84-13.04,11.14-19.36,16.1
		c-2.41,1.89-5.27,3.49-8.19,4.36c-10.49,3.14-21.07,5.97-31.66,8.76c-2.03,0.54-4.26,0.67-6.36,0.49
		c-14.41-1.23-28.79-2.85-43.22-3.7c-3.03-0.18-6.8,1.64-9.23,3.71c-5.88,5-11,4.4-17.39,0.69c-14.59-8.46-26.65-19.56-35-34
		c-6.44-11.14-11.22-23.25-16.61-34.98c-1.79-3.9-0.78-7.32,3.1-9.28c7.37-3.71,10.4-9.7,11.31-17.74
		c1.04-9.23,2.91-18.39,4.97-27.46c0.96-4.21,2.6-8.55,5.02-12.08c7.72-11.21,15.96-22.06,23.99-33.05c0.49-0.67,0.85-1.5,1.49-1.99
		c14.33-11.04,28.41-22.44,43.16-32.89c6.84-4.84,14.88-8.09,22.61-11.54c3.94-1.76,8.43-2.23,12.59-3.54
		c2.81-0.89,5.42-2.4,8.21-3.34c22.18-7.49,44.32-15.07,66.6-22.25c6.57-2.11,13.51-3.11,20.33-4.36c1.48-0.27,3.28,0.28,4.71,0.93
		c3.62,1.65,7.5,3.09,10.58,5.5c5.2,4.06,10.86,3,16.38,2.16c1.87-0.28,4.96-3.24,4.76-4.56c-0.93-6.07,2.91-8.32,7.06-10.64
		c2.48-1.39,4.81-2.55,3.84-6.39c-0.32-1.25,1.53-3.52,2.93-4.66c3.35-2.72,6.8-5.45,10.59-7.45c10.52-5.52,13.88-14.9,14.86-25.8
		c0.37-4.14,0.86-8.27,1.26-12.4c0.89-9.3,13.82-15.51,21.59-10.12c1.84,1.27,3.91,3.96,3.82,5.9c-0.2,4.26,1.72,6.44,4.47,9.36
		c15.6,16.58,30.79,33.56,46.01,50.5c1.23,1.37,2,3.44,2.31,5.3c3.35,19.8,6.92,39.57,9.62,59.45c0.89,6.6-0.08,13.6-1.19,20.25
		c-0.41,2.47-3.54,4.57-5.62,6.65c-2.69,2.69-5.57,5.19-8.64,8.03c6.68,11.71,13.21,23.26,19.9,34.72c0.46,0.78,2.12,1.3,3.17,1.24
		c7.95-0.46,15.89-1.12,23.83-1.67c0.98-0.07,2.01-0.03,2.96,0.2c15.98,3.7,24.82,28.05,14.78,40.92
		c-8.25,10.57-20.03,14.54-32.66,16.05c-13.73,1.64-27.32,1.35-38.93-7.9c-10.06-8.01-9.41-12.42-6.05-23.13
		C935.55,917.42,938.81,914.19,949.69,905.61z M779.92,781.56c-0.68-0.13-1.04-0.33-1.31-0.24c-19.48,6.62-38.97,13.2-58.37,20.06
		c-1.45,0.51-3.26,3.34-3.02,4.77c1.41,8.1,2.19,16.61,5.38,24.03c14.33,33.25,37.02,60.1,65.8,81.79
		c5.32,4.01,11.93,6.37,18.09,9.16c3.12,1.41,5.75,0.77,7.98-2.6c10.65-16.03,21.59-31.87,32.4-47.79c0.86-1.26,1.57-2.62,2.44-4.1
		C821.42,859.38,784.27,813.58,779.92,781.56z M805.31,944.09c0.24,0.2,0.48,0.4,0.72,0.6c25.28-20.5,50.57-40.98,75.8-61.55
		c1.18-0.96,2.1-2.58,2.52-4.07c5.52-19.83,10.53-39.81,16.61-59.46c1.91-6.16-0.3-9.56-3.64-13.6c-3.09,1.82-6.23,5.24-8.7,4.82
		c-6.01-1.03-8.57,3.2-12.35,5.76c-1.42,0.97-3.12,2.26-4.65,2.21c-7.97-0.25-9.66,1.3-8.74,9.1c-4.43,1.71-4.56,4.83-3.28,9.1
		c2,6.64,4.1,13.58-1.91,19.59c-0.3,0.3-0.47,0.96-0.38,1.39c1.03,5-2.21,8.09-4.73,11.76c-13.83,20.14-27.44,40.44-41.05,60.74
		c-0.75,1.12-0.88,2.65-1.28,3.99c-0.55,1.84-0.84,3.81-1.69,5.49C807.79,941.5,806.42,942.73,805.31,944.09z M809.89,924.62
		c-13.28-2.03-23.38-8.86-32.86-16.83c-21.89-18.41-39.29-40.42-52.56-65.73c-6.2-11.82-11.36-23.94-10.56-37.75
		c-9.28,2.12-10.11,2.73-8.97,11.45c0.81,6.18,2.16,12.48,4.47,18.25c10.53,26.29,26.9,48.74,46.78,68.7
		c12.6,12.66,25.73,24.22,44.42,27.59C806.42,931.36,807.34,928.44,809.89,924.62z M954.65,905.46c-4.78,4.09-9.63,7.42-13.45,11.67
		c-10.29,11.44-7.21,25.52,6.98,31.56c17.41,7.42,34.56,4.71,50.85-3.5c9.58-4.82,13.42-13.64,11.38-22.18
		c-2.81-11.78-12.26-21.82-22.22-21.88c-8.66-0.06-17.33,1.56-26.13,2.45C951.21,884,940,863.78,928.8,843.57
		c-0.47,0.25-0.94,0.51-1.41,0.76C936.52,864.81,945.66,885.3,954.65,905.46z M837.4,783.58c-3.9,0.83-7.27,1.83-10.7,2.23
		c-8.04,0.93-11.67,6.58-8.67,14c3.92,9.7,10.09,17.85,17.39,25.23c8.52,8.59,8.47,8.56,18.98,2.89c2.67-1.44,4.88-2.67,3.32-6.35
		c-0.3-0.71,0.7-2.29,1.49-3.08c1.18-1.17,2.7-2,4.28-3.11C847.77,805.25,843.9,800.42,837.4,783.58z M902.23,798.3
		c-0.75,2.5-1.89,4.24-1.42,5.04c4.89,8.37,10.03,16.59,15.1,24.84c2.06-1.22,3.57-2.13,5.3-3.16
		C914.98,816.26,909.15,808.04,902.23,798.3z"/>
	<path d="M950.38,946.17c-10.47-0.15-17.95-12.61-12.33-22.38c2.42-4.21,6.85-7.36,10.68-10.63c1.7-1.45,4.31-1.78,6.23-3.04
		c10.37-6.79,22.04-6.4,33.65-6.14c1.62,0.04,3.48,1.05,4.78,2.15c5.64,4.78,7.96,11.27,8.75,18.4c0.42,3.82-1.65,6.27-4.88,7.89
		c-7.27,3.63-14.54,7.24-21.83,10.83c-0.88,0.43-1.83,0.88-2.79,0.97C965.38,944.9,958.11,945.5,950.38,946.17z M957.12,944.32
		c8.91,0.38,31.57-7.63,37.8-13.6c1.31-1.26,2.9-3.55,2.57-4.94c-1.14-4.78-2.47-9.73-4.94-13.9c-1.58-2.67-5.2-5.53-8.1-5.76
		c-13.39-1.07-26.01,1.9-36.74,10.44c-2.62,2.08-5.25,4.87-6.46,7.89C937.42,934.02,945.49,943.83,957.12,944.32z"/>
</g>
</svg>
